Montero2-Italic[wght].glyphspackage
{
glyphname = exclam;
layers = (
{
layerId = "EF07516E-CE4D-469D-8301-1491E725ACEB";
shapes = (
{
closed = 1;
nodes = (
(108,236,l),
(248,236,l),
(382,720,l),
(194,720,l)
);
},
{
closed = 1;
nodes = (
(197,-8,o),
(243,36,o),
(245,92,cs),
(247,148,o),
(205,192,o),
(147,192,cs),
(93,192,o),
(47,148,o),
(45,92,cs),
(43,36,o),
(86,-8,o),
(143,-8,cs)
);
}
);
width = 368;
},
{
layerId = "C82BF5B4-EE1A-4CB4-A2C0-4E66566823BE";
shapes = (
{
closed = 1;
nodes = (
(109,241,l),
(194,241,l),
(316,720,l),
(207,720,l)
);
},
{
closed = 1;
nodes = (
(150,-8,o),
(182,23,o),
(183,63,cs),
(184,103,o),
(154,134,o),
(113,134,cs),
(74,134,o),
(42,103,o),
(41,63,cs),
(40,23,o),
(71,-8,o),
(111,-8,cs)
);
}
);
width = 313;
},
{
layerId = "960527DE-BC0D-48AB-B834-0D46F4119FDB";
shapes = (
{
closed = 1;
nodes = (
(110,246,l),
(140,246,l),
(250,720,l),
(220,720,l)
);
},
{
closed = 1;
nodes = (
(113,-8,o),
(131,10,o),
(131,34,cs),
(131,58,o),
(113,76,o),
(89,76,cs),
(65,76,o),
(47,58,o),
(47,34,cs),
(47,10,o),
(65,-8,o),
(89,-8,cs)
);
}
);
width = 277;
}
);
leftKerningGroup = PCT_EXCLAM;
rightKerningGroup = PCT_EXCLAM;
unicode = 33;
}
{
glyphname = quotedbl;
layers = (
{
layerId = "EF07516E-CE4D-469D-8301-1491E725ACEB";
shapes = (
{
closed = 1;
nodes = (
(224,432,l),
(268,526,o),
(302,604,o),
(314,658,cs),
(322,696,o),
(316,760,o),
(234,760,cs),
(186,760,o),
(158,730,o),
(150,684,cs),
(141,634,o),
(136,536,o),
(136,432,c)
);
},
{
closed = 1;
nodes = (
(430,432,l),
(474,526,o),
(508,604,o),
(520,658,cs),
(528,696,o),
(522,760,o),
(440,760,cs),
(392,760,o),
(364,730,o),
(356,684,cs),
(347,634,o),
(342,536,o),
(342,432,c)
);
}
);
width = 482;
},
{
layerId = "C82BF5B4-EE1A-4CB4-A2C0-4E66566823BE";
shapes = (
{
closed = 1;
nodes = (
(195,477,l),
(232,578,o),
(261,653,o),
(270,698,cs),
(275,723,o),
(270,760,o),
(222,760,cs),
(192,760,o),
(175,742,o),
(169,711,cs),
(161,668,o),
(151,581,o),
(141,477,c)
);
},
{
closed = 1;
nodes = (
(364,477,l),
(401,578,o),
(430,653,o),
(439,698,cs),
(444,723,o),
(439,760,o),
(391,760,cs),
(361,760,o),
(344,742,o),
(338,711,cs),
(330,668,o),
(320,581,o),
(310,477,c)
);
}
);
width = 405;
},
{
layerId = "960527DE-BC0D-48AB-B834-0D46F4119FDB";
shapes = (
{
closed = 1;
nodes = (
(166,514,l),
(196,622,o),
(219,701,o),
(226,738,cs),
(228,750,o),
(224,760,o),
(210,760,cs),
(198,760,o),
(192,754,o),
(188,738,cs),
(180,702,o),
(166,618,o),
(146,514,c)
);
},
{
closed = 1;
nodes = (
(298,514,l),
(328,622,o),
(351,701,o),
(358,738,cs),
(360,750,o),
(356,760,o),
(342,760,cs),
(330,760,o),
(324,754,o),
(320,738,cs),
(312,702,o),
(298,618,o),
(278,514,c)
);
}
);
width = 328;
}
);
leftKerningGroup = PCT_QUOTE;
rightKerningGroup = PCT_QUOTE;
unicode = 34;
}
{
glyphname = numbersign;
layers = (
{
layerId = "9C023954-B0F0-4AC3-996A-DC35BCD11D7C";
shapes = (
{
closed = 1;
nodes = (
(24,0,l),
(168,0,l),
(520,720,l),
(378,720,l)
);
},
{
closed = 1;
nodes = (
(336,0,l),
(480,0,l),
(832,720,l),
(690,720,l)
);
},
{
closed = 1;
nodes = (
(110,416,l),
(804,416,l),
(830,528,l),
(136,528,l)
);
},
{
closed = 1;
nodes = (
(28,194,l),
(724,194,l),
(750,304,l),
(54,304,l)
);
}
);
width = 814;
},
{
layerId = "169D7F5A-B55B-498B-8A7E-44B3106F6DC0";
shapes = (
{
closed = 1;
nodes = (
(40,0,l),
(128,0,l),
(484,720,l),
(398,720,l)
);
},
{
closed = 1;
nodes = (
(330,0,l),
(418,0,l),
(772,720,l),
(686,720,l)
);
},
{
closed = 1;
nodes = (
(122,438,l),
(774,438,l),
(794,520,l),
(142,520,l)
);
},
{
closed = 1;
nodes = (
(20,200,l),
(672,200,l),
(692,282,l),
(40,282,l)
);
}
);
width = 768;
},
{
layerId = "1CFA5324-D054-4A76-8DD1-A1279E18B2E8";
shapes = (
{
closed = 1;
nodes = (
(32,0,l),
(64,0,l),
(426,720,l),
(392,720,l)
);
},
{
closed = 1;
nodes = (
(342,0,l),
(374,0,l),
(736,720,l),
(700,720,l)
);
},
{
closed = 1;
nodes = (
(130,484,l),
(742,484,l),
(748,512,l),
(136,512,l)
);
},
{
closed = 1;
nodes = (
(18,206,l),
(632,206,l),
(638,234,l),
(24,234,l)
);
}
);
width = 720;
}
);
leftKerningGroup = PCT_OCTOTHORP;
rightKerningGroup = PCT_OCTOTHORP;
unicode = 35;
}
{
glyphname = dollar;
layers = (
{
layerId = "EF07516E-CE4D-469D-8301-1491E725ACEB";
shapes = (
{
closed = 1;
nodes = (
(388,-4,o),
(500,82,o),
(528,194,cs),
(562,326,o),
(452,396,o),
(394,416,c),
(342,436,o),
(277,456,o),
(286,506,cs),
(293,544,o),
(322,574,o),
(382,574,cs),
(430,574,o),
(442,552,o),
(446,520,c),
(600,568,l),
(586,658,o),
(522,728,o),
(394,728,cs),
(272,728,o),
(164,674,o),
(132,552,cs),
(100,432,o),
(172,362,o),
(252,328,cs),
(310,304,o),
(380,288,o),
(372,236,c),
(368,194,o),
(332,150,o),
(274,150,cs),
(214,150,o),
(198,198,o),
(192,236,c),
(22,184,l),
(30,84,o),
(126,-4,o),
(254,-4,cs)
);
},
{
closed = 1;
nodes = (
(252,-124,l),
(286,28,l),
(302,138,l),
(348,328,l),
(366,386,l),
(414,600,l),
(446,680,l),
(482,844,l),
(398,844,l),
(362,682,l),
(352,600,l),
(304,386,l),
(284,328,l),
(238,138,l),
(204,30,l),
(170,-124,l)
);
}
);
width = 584;
},
{
layerId = "C82BF5B4-EE1A-4CB4-A2C0-4E66566823BE";
shapes = (
{
closed = 1;
nodes = (
(332,-8,o),
(450,72,o),
(478,198,cs),
(510,338,o),
(398,388,o),
(332,412,c),
(286,434,o),
(220,458,o),
(236,538,c),
(252,600,o),
(314,632,o),
(364,632,cs),
(418,632,o),
(450,592,o),
(458,558,c),
(556,594,l),
(540,662,o),
(486,728,o),
(380,728,cs),
(264,728,o),
(164,658,o),
(140,546,c),
(112,430,o),
(180,368,o),
(268,334,c),
(308,314,o),
(400,286,o),
(380,200,cs),
(366,136,o),
(300,88,o),
(234,88,cs),
(170,88,o),
(134,140,o),
(128,194,c),
(28,158,l),
(34,76,o),
(106,-8,o),
(222,-8,cs)
);
},
{
closed = 1;
nodes = (
(230,-124,l),
(264,20,l),
(274,86,l),
(334,348,l),
(346,386,l),
(404,642,l),
(420,690,l),
(452,832,l),
(370,832,l),
(338,694,l),
(332,644,l),
(272,386,l),
(260,348,l),
(200,86,l),
(182,20,l),
(148,-124,l)
);
}
);
width = 544;
},
{
layerId = "960527DE-BC0D-48AB-B834-0D46F4119FDB";
shapes = (
{
closed = 1;
nodes = (
(328,-8,o),
(412,62,o),
(436,168,cs),
(466,304,o),
(356,348,o),
(282,388,cs),
(236,412,o),
(152,458,o),
(180,568,cs),
(200,648,o),
(259,698,o),
(352,698,cs),
(438,698,o),
(472,650,o),
(486,604,c),
(514,614,l),
(502,662,o),
(464,728,o),
(358,728,cs),
(266,728,o),
(176,682,o),
(150,574,cs),
(118,438,o),
(228,382,o),
(284,356,cs),
(378,310,o),
(426,258,o),
(406,172,cs),
(388,94,o),
(322,22,o),
(214,22,cs),
(122,22,o),
(68,74,o),
(60,136,c),
(26,126,l),
(40,58,o),
(102,-8,o),
(214,-8,cs)
);
},
{
closed = 1;
nodes = (
(190,-124,l),
(218,0,l),
(220,10,l),
(300,366,l),
(302,374,l),
(378,706,l),
(380,718,l),
(404,820,l),
(372,820,l),
(348,718,l),
(346,706,l),
(270,374,l),
(268,366,l),
(188,10,l),
(186,0,l),
(158,-124,l)
);
}
);
width = 522;
}
);
leftKerningGroup = LAT_S_UC;
rightKerningGroup = LAT_S_UC;
unicode = 36;
}
{
glyphname = ampersand;
layers = (
{
layerId = "9C023954-B0F0-4AC3-996A-DC35BCD11D7C";
shapes = (
{
closed = 1;
nodes = (
(587,532,l),
(590,546,o),
(592,543,o),
(592,557,cs),
(592,674,o),
(487,730,o),
(381,730,cs),
(266,730,o),
(143,649,o),
(143,526,cs),
(143,425,o),
(236,308,o),
(297,233,cs),
(486,0,l),
(696,0,l),
(435,321,ls),
(396,368,o),
(309,470,o),
(309,531,cs),
(309,566,o),
(340,602,o),
(377,602,cs),
(409,602,o),
(427,584,o),
(427,554,cs),
(427,546,o),
(426,539,o),
(424,532,c)
);
},
{
closed = 1;
nodes = (
(251,401,l),
(126,359,o),
(6,331,o),
(6,168,cs),
(6,43,o),
(112,-8,o),
(219,-8,cs),
(411,-8,o),
(647,167,o),
(691,362,c),
(550,362,l),
(526,258,o),
(376,111,o),
(267,111,cs),
(226,111,o),
(185,144,o),
(185,192,cs),
(185,260,o),
(276,291,o),
(328,310,c)
);
}
);
width = 690;
},
{
layerId = "169D7F5A-B55B-498B-8A7E-44B3106F6DC0";
shapes = (
{
closed = 1;
nodes = (
(524,553,l),
(526,565,o),
(528,567,o),
(528,579,cs),
(528,676,o),
(445,729,o),
(355,729,cs),
(251,729,o),
(153,650,o),
(153,543,cs),
(153,440,o),
(236,326,o),
(295,248,cs),
(483,0,l),
(611,0,l),
(377,301,ls),
(329,363,o),
(253,463,o),
(253,544,cs),
(253,598,o),
(294,651,o),
(351,651,cs),
(397,651,o),
(430,619,o),
(430,574,cs),
(430,566,o),
(429,560,o),
(427,553,c)
);
},
{
closed = 1;
nodes = (
(235,410,l),
(117,365,o),
(14,319,o),
(14,171,cs),
(14,52,o),
(110,-8,o),
(217,-8,cs),
(408,-8,o),
(604,199,o),
(644,380,c),
(559,380,l),
(530,254,o),
(382,65,o),
(241,65,cs),
(175,65,o),
(121,113,o),
(121,184,cs),
(121,275,o),
(202,322,o),
(277,351,c)
);
}
);
width = 653;
},
{
layerId = "1CFA5324-D054-4A76-8DD1-A1279E18B2E8";
shapes = (
{
closed = 1;
nodes = (
(460,573,l),
(462,584,o),
(464,591,o),
(464,601,cs),
(464,678,o),
(402,728,o),
(328,728,cs),
(235,728,o),
(162,651,o),
(162,559,cs),
(162,454,o),
(234,345,o),
(293,263,cs),
(480,0,l),
(514,0,l),
(317,281,ls),
(262,360,o),
(196,456,o),
(196,557,cs),
(196,629,o),
(248,699,o),
(325,699,cs),
(385,699,o),
(432,654,o),
(432,593,cs),
(432,586,o),
(431,580,o),
(430,573,c)
);
},
{
closed = 1;
nodes = (
(219,418,l),
(108,371,o),
(21,306,o),
(21,173,cs),
(21,61,o),
(107,-8,o),
(214,-8,cs),
(404,-8,o),
(561,231,o),
(597,397,c),
(567,397,l),
(533,250,o),
(388,18,o),
(215,18,cs),
(124,18,o),
(56,81,o),
(56,175,cs),
(56,289,o),
(128,352,o),
(226,392,c)
);
}
);
width = 616;
}
);
unicode = 38;
}
{
glyphname = quotesingle;
layers = (
{
layerId = "E1414F7C-7342-42E0-9F1C-475EAD3EF451";
shapes = (
{
closed = 1;
nodes = (
(224,432,l),
(268,526,o),
(302,604,o),
(314,658,cs),
(322,696,o),
(316,760,o),
(234,760,cs),
(186,760,o),
(158,730,o),
(150,684,cs),
(141,634,o),
(136,536,o),
(136,432,c)
);
}
);
width = 276;
},
{
layerId = "39EADFFA-F378-45E3-ACCF-69574A40D336";
shapes = (
{
closed = 1;
nodes = (
(194,474,l),
(228,576,o),
(266,664,o),
(272,702,c),
(280,744,o),
(256,760,o),
(226,760,cs),
(190,760,o),
(174,738,o),
(166,704,cs),
(156,664,o),
(152,580,o),
(140,474,c)
);
}
);
width = 238;
},
{
layerId = "0FE7234A-0103-4F7B-BAB8-33CF7CB7E092";
shapes = (
{
closed = 1;
nodes = (
(166,514,l),
(196,622,o),
(219,701,o),
(226,738,cs),
(228,750,o),
(224,760,o),
(210,760,cs),
(198,760,o),
(192,754,o),
(188,738,cs),
(180,702,o),
(166,618,o),
(146,514,c)
);
}
);
width = 196;
}
);
leftKerningGroup = PCT_QUOTE;
rightKerningGroup = PCT_QUOTE;
unicode = 39;
}
{
glyphname = parenleft;
layers = (
{
layerId = "E1414F7C-7342-42E0-9F1C-475EAD3EF451";
shapes = (
{
closed = 1;
nodes = (
(276,-108,l),
(198,-16,o),
(154,140,o),
(192,314,cs),
(234,504,o),
(360,668,o),
(488,768,c),
(400,858,l),
(248,748,o),
(114,554,o),
(68,350,cs),
(16,126,o),
(68,-74,o),
(172,-180,c)
);
}
);
width = 394;
},
{
layerId = "39EADFFA-F378-45E3-ACCF-69574A40D336";
shapes = (
{
closed = 1;
nodes = (
(234,-125,l),
(151,-27,o),
(107,136,o),
(149,323,cs),
(193,519,o),
(317,686,o),
(449,788,c),
(396,844,l),
(249,734,o),
(117,547,o),
(71,342,cs),
(22,127,o),
(72,-64,o),
(170,-172,c)
);
}
);
width = 347;
},
{
layerId = "0FE7234A-0103-4F7B-BAB8-33CF7CB7E092";
shapes = (
{
closed = 1;
nodes = (
(192,-142,l),
(104,-38,o),
(60,132,o),
(106,332,cs),
(152,534,o),
(274,704,o),
(410,808,c),
(392,830,l),
(250,720,o),
(120,540,o),
(74,334,cs),
(28,128,o),
(76,-54,o),
(168,-164,c)
);
}
);
width = 300;
}
);
leftKerningGroup = PCT_PARENLEFT;
rightKerningGroup = PCT_BRACELEFT;
unicode = 40;
}
{
glyphname = parenright;
layers = (
{
layerId = "9C023954-B0F0-4AC3-996A-DC35BCD11D7C";
shapes = (
{
closed = 1;
nodes = (
(40,-192,l),
(190,-84,o),
(312,112,o),
(358,318,cs),
(408,540,o),
(354,738,o),
(252,848,c),
(144,772,l),
(228,680,o),
(272,524,o),
(234,352,cs),
(196,182,o),
(92,8,o),
(-54,-106,c)
);
}
);
width = 394;
},
{
layerId = "169D7F5A-B55B-498B-8A7E-44B3106F6DC0";
shapes = (
{
closed = 1;
nodes = (
(-8,-178,l),
(137,-69,o),
(263,119,o),
(309,323,cs),
(358,539,o),
(306,729,o),
(210,839,c),
(143,790,l),
(229,692,o),
(274,531,o),
(232,344,cs),
(190,159,o),
(76,-15,o),
(-65,-124,c)
);
}
);
width = 347;
},
{
layerId = "1CFA5324-D054-4A76-8DD1-A1279E18B2E8";
shapes = (
{
closed = 1;
nodes = (
(-56,-164,l),
(84,-54,o),
(214,126,o),
(260,328,cs),
(308,538,o),
(258,720,o),
(168,830,c),
(142,808,l),
(230,704,o),
(276,538,o),
(230,336,cs),
(184,136,o),
(60,-38,o),
(-76,-142,c)
);
}
);
width = 300;
}
);
leftKerningGroup = PCT_BRACERIGHT;
rightKerningGroup = PCT_PARENRIGHT;
unicode = 41;
}
{
glyphname = asterisk;
layers = (
{
layerId = "EF07516E-CE4D-469D-8301-1491E725ACEB";
shapes = (
{
closed = 1;
nodes = (
(212,448,o),
(232,422,o),
(258,416,c),
(290,410,o),
(314,434,o),
(320,460,c),
(324,482,o),
(316,540,o),
(318,602,c),
(346,664,o),
(376,706,o),
(382,732,cs),
(388,760,o),
(370,790,o),
(342,796,cs),
(316,802,o),
(288,784,o),
(282,754,cs),
(276,728,o),
(284,672,o),
(282,610,c),
(256,552,o),
(226,508,o),
(220,482,cs)
);
},
{
closed = 1;
nodes = (
(394,448,o),
(426,456,o),
(442,474,cs),
(464,498,o),
(458,532,o),
(438,550,cs),
(420,566,o),
(364,588,o),
(314,620,c),
(276,670,o),
(248,724,o),
(234,738,cs),
(224,748,o),
(190,770,o),
(158,736,c),
(138,712,o),
(136,684,o),
(164,662,cs),
(184,646,o),
(232,626,o),
(290,594,c),
(324,540,o),
(352,492,o),
(368,474,c)
);
},
{
closed = 1;
nodes = (
(122,602,o),
(106,576,o),
(114,550,cs),
(122,522,o),
(152,506,o),
(184,516,c),
(206,524,o),
(250,558,o),
(306,590,c),
(368,594,o),
(422,592,o),
(448,598,c),
(484,608,o),
(492,638,o),
(486,662,cs),
(478,692,o),
(446,704,o),
(416,694,cs),
(388,684,o),
(352,654,o),
(296,624,c),
(228,616,o),
(182,620,o),
(154,612,cs)
);
}
);
width = 448;
},
{
layerId = "C82BF5B4-EE1A-4CB4-A2C0-4E66566823BE";
shapes = (
{
closed = 1;
nodes = (
(229,451,o),
(242,433,o),
(260,429,cs),
(282,425,o),
(298,440,o),
(302,460,cs),
(306,481,o),
(308,540,o),
(315,611,c),
(341,681,o),
(364,733,o),
(369,755,cs),
(374,775,o),
(362,795,o),
(342,799,cs),
(325,803,o),
(306,791,o),
(301,770,cs),
(296,748,o),
(295,688,o),
(287,617,c),
(264,550,o),
(240,498,o),
(234,475,c)
);
},
{
closed = 1;
nodes = (
(407,469,o),
(429,472,o),
(440,485,cs),
(456,502,o),
(451,524,o),
(436,537,c),
(420,553,o),
(368,584,o),
(312,624,c),
(264,679,o),
(229,729,o),
(214,743,cs),
(205,752,o),
(182,763,o),
(162,742,cs),
(148,726,o),
(148,705,o),
(166,691,cs),
(184,677,o),
(232,647,o),
(293,605,c),
(338,549,o),
(374,502,o),
(389,487,cs)
);
},
{
closed = 1;
nodes = (
(126,595,o),
(115,578,o),
(120,560,cs),
(126,540,o),
(146,531,o),
(168,537,c),
(189,544,o),
(241,571,o),
(306,601,c),
(376,613,o),
(434,620,o),
(456,625,c),
(480,632,o),
(487,652,o),
(482,669,cs),
(477,689,o),
(455,698,o),
(435,691,cs),
(412,683,o),
(364,657,o),
(298,627,c),
(225,615,o),
(171,608,o),
(148,601,cs)
);
}
);
width = 446;
},
{
layerId = "960527DE-BC0D-48AB-B834-0D46F4119FDB";
shapes = (
{
closed = 1;
nodes = (
(245,454,o),
(251,444,o),
(262,442,cs),
(273,440,o),
(281,446,o),
(284,460,cs),
(288,480,o),
(300,540,o),
(312,620,c),
(335,698,o),
(352,759,o),
(356,778,cs),
(359,790,o),
(354,800,o),
(342,802,cs),
(333,804,o),
(323,798,o),
(320,786,cs),
(316,767,o),
(305,704,o),
(292,624,c),
(271,547,o),
(253,488,o),
(248,468,cs)
);
},
{
closed = 1;
nodes = (
(420,490,o),
(431,488,o),
(438,496,cs),
(447,506,o),
(443,515,o),
(434,524,cs),
(420,539,o),
(371,579,o),
(310,628,c),
(252,688,o),
(210,733,o),
(194,748,cs),
(186,755,o),
(174,756,o),
(166,748,cs),
(158,740,o),
(160,726,o),
(168,720,cs),
(184,707,o),
(232,667,o),
(296,616,c),
(351,557,o),
(396,512,o),
(410,500,cs)
);
},
{
closed = 1;
nodes = (
(130,587,o),
(124,579,o),
(126,570,cs),
(129,558,o),
(139,555,o),
(152,558,cs),
(171,563,o),
(231,584,o),
(306,612,c),
(384,632,o),
(445,647,o),
(464,652,cs),
(476,655,o),
(481,665,o),
(478,676,cs),
(475,686,o),
(464,691,o),
(454,688,cs),
(435,682,o),
(375,660,o),
(300,630,c),
(222,613,o),
(160,595,o),
(142,590,cs)
);
}
);
width = 444;
}
);
leftKerningGroup = PCT_QUOTE;
rightKerningGroup = PCT_QUOTE;
unicode = 42;
}
{
glyphname = plus;
layers = (
{
layerId = "9C023954-B0F0-4AC3-996A-DC35BCD11D7C";
shapes = (
{
closed = 1;
nodes = (
(26,234,l),
(548,234,l),
(580,382,l),
(58,382,l)
);
},
{
closed = 1;
nodes = (
(290,576,l),
(170,42,l),
(318,42,l),
(438,576,l)
);
}
);
width = 588;
},
{
layerId = "169D7F5A-B55B-498B-8A7E-44B3106F6DC0";
shapes = (
{
closed = 1;
nodes = (
(33,262,l),
(500,262,l),
(519,350,l),
(52,350,l)
);
},
{
closed = 1;
nodes = (
(287,548,l),
(178,65,l),
(266,65,l),
(375,548,l)
);
}
);
width = 532;
},
{
layerId = "1CFA5324-D054-4A76-8DD1-A1279E18B2E8";
shapes = (
{
closed = 1;
nodes = (
(40,290,l),
(452,290,l),
(458,318,l),
(46,318,l)
);
},
{
closed = 1;
nodes = (
(284,520,l),
(186,88,l),
(214,88,l),
(312,520,l)
);
}
);
width = 476;
}
);
leftKerningGroup = PCT_EMDASH;
rightKerningGroup = PCT_EMDASH;
unicode = 43;
}
{
glyphname = comma;
layers = (
{
layerId = "E1414F7C-7342-42E0-9F1C-475EAD3EF451";
shapes = (
{
closed = 1;
nodes = (
(14,-172,l),
(98,-116,ls),
(155,-78,o),
(220,-8,o),
(220,72,cs),
(220,152,o),
(170,192,o),
(114,192,cs),
(60,192,o),
(10,152,o),
(10,92,cs),
(10,34,o),
(60,-8,o),
(110,-8,cs),
(148,-8,o),
(166,22,o),
(166,48,c),
(144,48,l),
(146,-8,o),
(81,-43,o),
(52,-62,cs),
(-26,-112,l)
);
}
);
width = 310;
},
{
layerId = "39EADFFA-F378-45E3-ACCF-69574A40D336";
shapes = (
{
closed = 1;
nodes = (
(-16,-144,l),
(52,-100,ls),
(104,-66,o),
(150,-10,o),
(150,52,cs),
(150,104,o),
(114,134,o),
(74,134,cs),
(46,134,o),
(2,116,o),
(2,62,cs),
(2,10,o),
(44,-8,o),
(72,-8,cs),
(98,-8,o),
(110,10,o),
(116,32,c),
(96,32,l),
(96,-4,o),
(60,-38,o),
(18,-64,cs),
(-46,-104,l)
);
}
);
width = 246;
},
{
layerId = "0FE7234A-0103-4F7B-BAB8-33CF7CB7E092";
shapes = (
{
closed = 1;
nodes = (
(-40,-128,l),
(26,-72,ls),
(50,-51,o),
(80,-18,o),
(80,22,cs),
(80,62,o),
(58,76,o),
(36,76,cs),
(8,76,o),
(-6,54,o),
(-6,34,cs),
(-6,10,o),
(12,-8,o),
(34,-8,cs),
(50,-8,o),
(56,-2,o),
(66,14,c),
(48,14,l),
(50,-4,o),
(39,-28,o),
(6,-54,cs),
(-60,-106,l)
);
}
);
width = 180;
}
);
leftKerningGroup = PCT_COMMA;
rightKerningGroup = PCT_COMMA;
unicode = 44;
}
{
glyphname = hyphen;
layers = (
{
layerId = "EF07516E-CE4D-469D-8301-1491E725ACEB";
shapes = (
{
closed = 1;
nodes = (
(36,198,l),
(364,198,l),
(396,346,l),
(68,346,l)
);
}
);
width = 428;
},
{
layerId = "C82BF5B4-EE1A-4CB4-A2C0-4E66566823BE";
shapes = (
{
closed = 1;
nodes = (
(42,223,l),
(329,223,l),
(348,312,l),
(61,312,l)
);
}
);
width = 387;
},
{
layerId = "960527DE-BC0D-48AB-B834-0D46F4119FDB";
shapes = (
{
closed = 1;
nodes = (
(48,248,l),
(294,248,l),
(300,278,l),
(54,278,l)
);
}
);
width = 346;
}
);
leftKerningGroup = PCT_EMDASH;
rightKerningGroup = PCT_EMDASH;
unicode = 45;
}
{
glyphname = period;
layers = (
{
layerId = "EF07516E-CE4D-469D-8301-1491E725ACEB";
shapes = (
{
closed = 1;
nodes = (
(164,-8,o),
(210,36,o),
(212,92,cs),
(214,148,o),
(172,192,o),
(114,192,cs),
(60,192,o),
(14,148,o),
(12,92,cs),
(10,36,o),
(53,-8,o),
(110,-8,cs)
);
}
);
width = 304;
},
{
layerId = "C82BF5B4-EE1A-4CB4-A2C0-4E66566823BE";
shapes = (
{
closed = 1;
nodes = (
(114,-8,o),
(146,23,o),
(147,63,cs),
(148,103,o),
(118,134,o),
(77,134,cs),
(38,134,o),
(6,103,o),
(5,63,cs),
(4,23,o),
(35,-8,o),
(75,-8,cs)
);
}
);
width = 242;
},
{
layerId = "960527DE-BC0D-48AB-B834-0D46F4119FDB";
shapes = (
{
closed = 1;
nodes = (
(64,-8,o),
(82,10,o),
(82,34,cs),
(82,58,o),
(64,76,o),
(40,76,cs),
(16,76,o),
(-2,58,o),
(-2,34,cs),
(-2,10,o),
(16,-8,o),
(40,-8,cs)
);
}
);
width = 180;
}
);
leftKerningGroup = PCT_COMMA;
rightKerningGroup = PCT_COMMA;
unicode = 46;
}
{
glyphname = slash;
layers = (
{
layerId = "EF07516E-CE4D-469D-8301-1491E725ACEB";
shapes = (
{
closed = 1;
nodes = (
(496,812,l),
(-118,-146,l),
(24,-146,l),
(640,812,l)
);
}
);
width = 490;
},
{
layerId = "C82BF5B4-EE1A-4CB4-A2C0-4E66566823BE";
shapes = (
{
closed = 1;
nodes = (
(495,812,l),
(-119,-146,l),
(-31,-146,l),
(583,812,l)
);
}
);
width = 431;
},
{
layerId = "960527DE-BC0D-48AB-B834-0D46F4119FDB";
shapes = (
{
closed = 1;
nodes = (
(494,812,l),
(-120,-146,l),
(-86,-146,l),
(526,812,l)
);
}
);
width = 372;
}
);
leftKerningGroup = PCT_SLASHSS10;
rightKerningGroup = PCT_SLASHSS10;
unicode = 47;
}
{
glyphname = zero;
layers = (
{
anchors = (
{
name = center;
position = "{338, 360}";
}
);
layerId = "9C023954-B0F0-4AC3-996A-DC35BCD11D7C";
shapes = (
{
closed = 1;
nodes = (
(424,-8,o),
(556,102,o),
(602,308,cs),
(622,398,ls),
(668,608,o),
(576,728,o),
(414,728,cs),
(256,728,o),
(118,614,o),
(72,406,cs),
(54,324,ls),
(8,118,o),
(96,-8,o),
(266,-8,cs)
);
},
{
closed = 1;
nodes = (
(230,144,o),
(198,182,o),
(220,278,cs),
(252,422,ls),
(274,520,o),
(320,572,o),
(390,572,cs),
(446,572,o),
(480,536,o),
(456,438,cs),
(422,294,ls),
(400,198,o),
(352,144,o),
(286,144,cs)
);
}
);
width = 632;
},
{
anchors = (
{
name = center;
position = "{342, 360}";
}
);
layerId = "169D7F5A-B55B-498B-8A7E-44B3106F6DC0";
shapes = (
{
closed = 1;
nodes = (
(422,-8,o),
(549,111,o),
(595,313,cs),
(614,397,ls),
(660,602,o),
(576,728,o),
(417,728,cs),
(263,728,o),
(133,607,o),
(87,403,cs),
(69,323,ls),
(23,120,o),
(105,-8,o),
(266,-8,cs)
);
},
{
closed = 1;
nodes = (
(182,83,o),
(137,164,o),
(168,298,cs),
(193,409,ls),
(225,549,o),
(301,635,o),
(405,635,cs),
(501,635,o),
(548,558,o),
(515,419,cs),
(489,308,ls),
(457,170,o),
(377,83,o),
(277,83,cs)
);
}
);
width = 638;
},
{
anchors = (
{
name = center;
position = "{346, 360}";
}
);
layerId = "1CFA5324-D054-4A76-8DD1-A1279E18B2E8";
shapes = (
{
closed = 1;
nodes = (
(420,-8,o),
(542,120,o),
(588,318,cs),
(606,396,ls),
(652,596,o),
(576,728,o),
(420,728,cs),
(270,728,o),
(148,600,o),
(102,400,cs),
(84,322,ls),
(38,122,o),
(114,-8,o),
(266,-8,cs)
);
},
{
closed = 1;
nodes = (
(134,22,o),
(76,146,o),
(116,318,cs),
(134,396,ls),
(176,578,o),
(282,698,o),
(420,698,cs),
(556,698,o),
(616,580,o),
(574,400,cs),
(556,322,ls),
(514,142,o),
(402,22,o),
(268,22,cs)
);
}
);
width = 644;
}
);
leftKerningGroup = NUM_ZERO;
rightKerningGroup = NUM_ZERO;
unicode = 48;
}
{
glyphname = one;
layers = (
{
layerId = "E1414F7C-7342-42E0-9F1C-475EAD3EF451";
shapes = (
{
closed = 1;
nodes = (
(310,0,l),
(474,720,l),
(420,720,l),
(132,602,l),
(96,436,l),
(278,508,l),
(256,560,l),
(130,0,l)
);
}
);
width = 452;
},
{
layerId = "39EADFFA-F378-45E3-ACCF-69574A40D336";
shapes = (
{
closed = 1;
nodes = (
(254,0,l),
(418,720,l),
(381,720,l),
(146,617,l),
(124,517,l),
(306,597,l),
(289,626,l),
(148,0,l)
);
}
);
width = 410;
},
{
layerId = "0FE7234A-0103-4F7B-BAB8-33CF7CB7E092";
shapes = (
{
closed = 1;
nodes = (
(198,0,l),
(362,720,l),
(342,720,l),
(160,632,l),
(152,598,l),
(334,686,l),
(322,692,l),
(166,0,l)
);
}
);
width = 368;
}
);
leftKerningGroup = NUM_ONE;
rightKerningGroup = NUM_ONE;
unicode = 49;
}
{
glyphname = two;
layers = (
{
layerId = "E1414F7C-7342-42E0-9F1C-475EAD3EF451";
shapes = (
{
closed = 1;
nodes = (
(-4,0,l),
(486,0,l),
(520,156,l),
(408,156,l),
(312,152,l),
(316,156,l),
(386,220,ls),
(484,308,o),
(574,396,o),
(598,500,cs),
(630,640,o),
(526,728,o),
(376,728,cs),
(234,728,o),
(131,633,o),
(93,500,c),
(262,474,l),
(274,530,o),
(312,572,o),
(364,572,cs),
(410,572,o),
(434,540,o),
(426,506,c),
(414,448,o),
(302,348,o),
(248,292,cs),
(2,36,l)
);
}
);
width = 596;
},
{
layerId = "39EADFFA-F378-45E3-ACCF-69574A40D336";
shapes = (
{
closed = 1;
nodes = (
(5,0,l),
(466,0,l),
(486,93,l),
(299,93,l),
(190,91,l),
(193,94,l),
(347,236,ls),
(460,339,o),
(548,418,o),
(569,519,c),
(598,646,o),
(506,728,o),
(376,728,cs),
(249,728,o),
(148,633,o),
(115,517,c),
(216,500,l),
(232,576,o),
(292,635,o),
(370,635,cs),
(442,635,o),
(481,583,o),
(468,525,cs),
(453,454,o),
(355,369,o),
(266,282,cs),
(10,28,l)
);
}
);
width = 583;
},
{
layerId = "0FE7234A-0103-4F7B-BAB8-33CF7CB7E092";
shapes = (
{
closed = 1;
nodes = (
(14,0,l),
(446,0,l),
(452,30,l),
(190,30,l),
(68,30,l),
(70,32,l),
(308,252,ls),
(436,370,o),
(521,440,o),
(540,538,cs),
(565,652,o),
(486,728,o),
(376,728,cs),
(264,728,o),
(165,633,o),
(137,534,c),
(170,526,l),
(189,622,o),
(272,698,o),
(376,698,cs),
(474,698,o),
(527,626,o),
(510,544,cs),
(492,460,o),
(407,389,o),
(284,272,cs),
(18,20,l)
);
}
);
width = 570;
}
);
leftKerningGroup = NUM_TWO;
rightKerningGroup = NUM_TWO;
unicode = 50;
}
{
glyphname = three;
layers = (
{
layerId = "E1414F7C-7342-42E0-9F1C-475EAD3EF451";
shapes = (
{
closed = 1;
nodes = (
(390,-8,o),
(504,74,o),
(530,184,cs),
(556,292,o),
(482,392,o),
(314,390,c),
(312,340,l),
(448,340,o),
(550,404,o),
(576,510,cs),
(604,624,o),
(528,728,o),
(378,728,cs),
(275,728,o),
(178,651,o),
(133,557,c),
(280,526,l),
(285,540,o),
(308,580,o),
(354,580,cs),
(392,580,o),
(418,560,o),
(408,516,cs),
(398,472,o),
(356,430,o),
(300,430,cs),
(276,430,l),
(244,298,l),
(274,298,ls),
(350,298,o),
(374,262,o),
(364,218,cs),
(354,174,o),
(314,136,o),
(258,136,cs),
(203,136,o),
(184,190,o),
(184,204,c),
(11,183,l),
(19,79,o),
(120,-8,o),
(244,-8,cs)
);
}
);
width = 596;
},
{
layerId = "39EADFFA-F378-45E3-ACCF-69574A40D336";
shapes = (
{
closed = 1;
nodes = (
(376,-8,o),
(484,88,o),
(506,198,cs),
(528,312,o),
(452,386,o),
(332,384,c),
(330,360,l),
(422,358,o),
(524,430,o),
(550,536,cs),
(578,652,o),
(488,728,o),
(368,728,cs),
(271,728,o),
(184,665,o),
(153,592,c),
(243,557,l),
(255,599,o),
(308,636,o),
(360,636,cs),
(426,636,o),
(458,594,o),
(446,536,cs),
(432,470,o),
(368,418,o),
(290,418,cs),
(256,418,l),
(238,326,l),
(272,326,ls),
(366,326,o),
(420,282,o),
(404,208,cs),
(390,142,o),
(324,84,o),
(248,84,cs),
(190,84,o),
(138,118,o),
(131,170,c),
(26,153,l),
(37,61,o),
(130,-8,o),
(240,-8,cs)
);
}
);
width = 578;
},
{
layerId = "0FE7234A-0103-4F7B-BAB8-33CF7CB7E092";
shapes = (
{
closed = 1;
nodes = (
(354,-8,o),
(458,88,o),
(480,196,cs),
(506,322,o),
(414,400,o),
(292,392,c),
(290,376,l),
(392,370,o),
(496,452,o),
(520,556,cs),
(544,658,o),
(472,728,o),
(366,728,cs),
(279,728,o),
(211,681,o),
(174,614,c),
(199,598,l),
(233,657,o),
(295,698,o),
(366,698,cs),
(448,698,o),
(508,642,o),
(490,562,cs),
(472,482,o),
(380,400,o),
(286,400,cs),
(252,400,l),
(246,370,l),
(262,370,ls),
(396,370,o),
(472,306,o),
(450,204,cs),
(432,114,o),
(340,22,o),
(222,22,cs),
(133,22,o),
(74,74,o),
(70,151,c),
(39,140,l),
(46,49,o),
(124,-8,o),
(226,-8,cs)
);
}
);
width = 558;
}
);
leftKerningGroup = NUM_THREE;
rightKerningGroup = NUM_EIGHT;
unicode = 51;
}
{
glyphname = four;
layers = (
{
layerId = "9C023954-B0F0-4AC3-996A-DC35BCD11D7C";
shapes = (
{
closed = 1;
nodes = (
(456,0,l),
(620,720,l),
(462,720,l),
(12,238,l),
(-8,138,l),
(560,138,l),
(592,282,l),
(204,282,l),
(206,284,l),
(320,406,l),
(398,502,l),
(400,502,l),
(374,386,l),
(286,0,l)
);
}
);
width = 620;
},
{
layerId = "169D7F5A-B55B-498B-8A7E-44B3106F6DC0";
shapes = (
{
closed = 1;
nodes = (
(412,0,l),
(576,720,l),
(490,720,l),
(22,214,l),
(8,154,l),
(540,154,l),
(560,244,l),
(170,244,l),
(168,246,l),
(366,464,l),
(436,546,l),
(438,546,l),
(412,442,l),
(310,0,l)
);
}
);
width = 598;
},
{
layerId = "1CFA5324-D054-4A76-8DD1-A1279E18B2E8";
shapes = (
{
closed = 1;
nodes = (
(376,0,l),
(540,720,l),
(516,720,l),
(30,188,l),
(26,172,l),
(518,172,l),
(526,202,l),
(80,202,l),
(80,204,l),
(416,570,l),
(490,654,l),
(494,654,l),
(466,536,l),
(344,0,l)
);
}
);
width = 576;
}
);
leftKerningGroup = NUM_FOUR;
rightKerningGroup = NUM_FOUR;
unicode = 52;
}
{
glyphname = five;
layers = (
{
layerId = "EF07516E-CE4D-469D-8301-1491E725ACEB";
shapes = (
{
closed = 1;
nodes = (
(18,148,l),
(42,66,o),
(140,-8,o),
(264,-8,cs),
(404,-8,o),
(520,76,o),
(552,212,cs),
(586,358,o),
(496,460,o),
(368,460,cs),
(324,460,o),
(273,448,o),
(251,426,c),
(259,370,l),
(318,568,l),
(572,568,l),
(606,720,l),
(205,720,l),
(85,320,l),
(213,276,l),
(235,302,o),
(286,328,o),
(328,328,cs),
(386,328,o),
(404,280,o),
(396,238,cs),
(386,184,o),
(338,146,o),
(284,146,cs),
(248,146,o),
(212,172,o),
(202,204,c)
);
}
);
width = 608;
},
{
layerId = "C82BF5B4-EE1A-4CB4-A2C0-4E66566823BE";
shapes = (
{
closed = 1;
nodes = (
(40,154,l),
(58,64,o),
(156,-8,o),
(264,-8,cs),
(394,-8,o),
(506,84,o),
(534,216,cs),
(562,348,o),
(488,456,o),
(348,456,cs),
(294,456,o),
(236,440,o),
(206,416,c),
(226,374,l),
(298,624,l),
(572,624,l),
(594,720,l),
(224,720,l),
(116,344,l),
(176,312,l),
(206,342,o),
(262,364,o),
(318,364,cs),
(410,364,o),
(450,308,o),
(432,228,cs),
(414,146,o),
(350,88,o),
(272,88,cs),
(200,88,o),
(156,140,o),
(144,190,c)
);
}
);
width = 600;
},
{
layerId = "960527DE-BC0D-48AB-B834-0D46F4119FDB";
shapes = (
{
closed = 1;
nodes = (
(46,140,l),
(62,50,o),
(152,-8,o),
(248,-8,cs),
(370,-8,o),
(480,90,o),
(506,218,cs),
(534,358,o),
(448,450,o),
(322,450,cs),
(258,450,o),
(184,426,o),
(158,396,c),
(168,386,l),
(255,690,l),
(564,690,l),
(572,720,l),
(232,720,l),
(134,374,l),
(156,360,l),
(178,386,o),
(248,420,o),
(320,420,cs),
(440,420,o),
(498,330,o),
(474,220,cs),
(450,108,o),
(354,22,o),
(248,22,cs),
(164,22,o),
(86,76,o),
(76,148,c)
);
}
);
width = 578;
}
);
leftKerningGroup = NUM_FIVE;
rightKerningGroup = NUM_FIVE;
unicode = 53;
}
{
glyphname = six;
layers = (
{
layerId = "9C023954-B0F0-4AC3-996A-DC35BCD11D7C";
shapes = (
{
closed = 1;
nodes = (
(392,-8,o),
(514,80,o),
(546,212,cs),
(580,352,o),
(496,458,o),
(360,458,cs),
(334,458,o),
(318,454,o),
(314,448,c),
(332,432,l),
(566,720,l),
(368,720,l),
(134,438,ls),
(103,401,o),
(46,324,o),
(28,250,cs),
(-6,112,o),
(88,-8,o),
(252,-8,cs)
);
},
{
closed = 1;
nodes = (
(218,142,o),
(178,170,o),
(190,226,cs),
(202,278,o),
(250,322,o),
(310,322,cs),
(350,322,o),
(398,302,o),
(386,242,cs),
(376,190,o),
(328,142,o),
(266,142,cs)
);
}
);
width = 590;
},
{
layerId = "169D7F5A-B55B-498B-8A7E-44B3106F6DC0";
shapes = (
{
closed = 1;
nodes = (
(384,-8,o),
(498,86,o),
(528,216,cs),
(560,358,o),
(468,454,o),
(354,454,cs),
(314,454,o),
(274,442,o),
(256,426,c),
(274,424,l),
(532,720,l),
(414,720,l),
(148,418,ls),
(116,382,o),
(60,312,o),
(42,236,cs),
(10,100,o),
(106,-8,o),
(250,-8,cs)
);
},
{
closed = 1;
nodes = (
(182,86,o),
(120,136,o),
(142,228,cs),
(160,306,o),
(234,370,o),
(320,370,cs),
(400,370,o),
(448,316,o),
(428,230,c),
(412,156,o),
(350,86,o),
(258,86,cs)
);
}
);
width = 584;
},
{
layerId = "1CFA5324-D054-4A76-8DD1-A1279E18B2E8";
shapes = (
{
closed = 1;
nodes = (
(374,-8,o),
(482,94,o),
(508,220,cs),
(536,356,o),
(458,448,o),
(332,448,cs),
(292,448,o),
(242,438,o),
(194,404,c),
(214,414,l),
(496,720,l),
(456,720,l),
(162,400,ls),
(132,368,o),
(72,300,o),
(54,224,cs),
(24,98,o),
(114,-8,o),
(246,-8,cs)
);
},
{
closed = 1;
nodes = (
(138,22,o),
(62,104,o),
(86,220,cs),
(108,328,o),
(210,418,o),
(328,418,cs),
(438,418,o),
(502,342,o),
(476,222,cs),
(452,114,o),
(364,22,o),
(248,22,cs)
);
}
);
width = 578;
}
);
leftKerningGroup = NUM_SIX;
rightKerningGroup = NUM_SIX;
unicode = 54;
}
{
glyphname = seven;
layers = (
{
layerId = "EF07516E-CE4D-469D-8301-1491E725ACEB";
shapes = (
{
closed = 1;
nodes = (
(26,0,l),
(216,0,l),
(634,692,l),
(640,720,l),
(124,720,l),
(88,564,l),
(464,564,l),
(428,648,l)
);
}
);
width = 550;
},
{
layerId = "C82BF5B4-EE1A-4CB4-A2C0-4E66566823BE";
shapes = (
{
closed = 1;
nodes = (
(75,0,l),
(188,0,l),
(612,696,l),
(617,720,l),
(135,720,l),
(113,627,l),
(514,627,l),
(493,677,l)
);
}
);
width = 537;
},
{
layerId = "960527DE-BC0D-48AB-B834-0D46F4119FDB";
shapes = (
{
closed = 1;
nodes = (
(124,0,l),
(160,0,l),
(590,700,l),
(594,720,l),
(146,720,l),
(138,690,l),
(564,690,l),
(558,706,l)
);
}
);
width = 524;
}
);
leftKerningGroup = NUM_SEVEN;
rightKerningGroup = NUM_SEVEN;
unicode = 55;
}
{
glyphname = eight;
layers = (
{
layerId = "EF07516E-CE4D-469D-8301-1491E725ACEB";
shapes = (
{
closed = 1;
nodes = (
(420,-8,o),
(544,82,o),
(572,194,cs),
(602,316,o),
(512,416,o),
(340,416,cs),
(190,416,o),
(66,332,o),
(38,220,cs),
(6,98,o),
(102,-8,o),
(270,-8,cs)
);
},
{
closed = 1;
nodes = (
(236,132,o),
(198,164,o),
(208,210,cs),
(216,250,o),
(262,298,o),
(330,298,cs),
(380,298,o),
(418,270,o),
(408,224,cs),
(400,184,o),
(354,132,o),
(286,132,cs)
);
},
{
closed = 1;
nodes = (
(478,312,o),
(584,404,o),
(610,510,cs),
(642,638,o),
(548,728,o),
(408,728,cs),
(286,728,o),
(176,658,o),
(146,544,cs),
(114,422,o),
(192,312,o),
(342,312,cs)
);
},
{
closed = 1;
nodes = (
(304,432,o),
(276,462,o),
(286,506,cs),
(296,554,o),
(346,594,o),
(392,594,cs),
(434,594,o),
(474,572,o),
(464,524,cs),
(456,480,o),
(408,432,o),
(350,432,cs)
);
}
);
width = 636;
},
{
layerId = "C82BF5B4-EE1A-4CB4-A2C0-4E66566823BE";
shapes = (
{
closed = 1;
nodes = (
(392,-8,o),
(506,84,o),
(532,198,cs),
(560,320,o),
(468,410,o),
(328,410,cs),
(186,410,o),
(72,320,o),
(46,206,cs),
(18,84,o),
(110,-8,o),
(250,-8,cs)
);
},
{
closed = 1;
nodes = (
(180,84,o),
(134,132,o),
(150,204,cs),
(166,276,o),
(232,328,o),
(316,328,cs),
(400,328,o),
(444,276,o),
(430,208,cs),
(414,136,o),
(342,84,o),
(260,84,cs)
);
},
{
closed = 1;
nodes = (
(454,346,o),
(554,434,o),
(574,536,cs),
(596,650,o),
(520,728,o),
(400,728,cs),
(278,728,o),
(178,646,o),
(156,540,cs),
(132,428,o),
(212,346,o),
(330,346,cs)
);
},
{
closed = 1;
nodes = (
(276,420,o),
(240,464,o),
(254,530,cs),
(268,594,o),
(322,636,o),
(388,636,cs),
(450,636,o),
(488,598,o),
(474,534,cs),
(460,470,o),
(402,420,o),
(336,420,cs)
);
}
);
width = 604;
},
{
layerId = "960527DE-BC0D-48AB-B834-0D46F4119FDB";
shapes = (
{
closed = 1;
nodes = (
(376,-8,o),
(492,80,o),
(518,196,cs),
(546,316,o),
(462,406,o),
(330,406,cs),
(200,406,o),
(78,320,o),
(52,204,cs),
(24,84,o),
(110,-8,o),
(244,-8,cs)
);
},
{
closed = 1;
nodes = (
(128,22,o),
(62,100,o),
(82,196,cs),
(104,296,o),
(208,376,o),
(328,376,cs),
(442,376,o),
(510,302,o),
(488,204,cs),
(466,104,o),
(366,22,o),
(246,22,cs)
);
},
{
closed = 1;
nodes = (
(434,376,o),
(528,450,o),
(550,550,cs),
(574,658,o),
(508,728,o),
(402,728,cs),
(294,728,o),
(202,654,o),
(180,554,cs),
(158,456,o),
(214,376,o),
(328,376,cs)
);
},
{
closed = 1;
nodes = (
(240,406,o),
(192,470,o),
(210,550,cs),
(230,634,o),
(314,700,o),
(402,700,cs),
(492,700,o),
(538,630,o),
(520,554,cs),
(502,474,o),
(420,406,o),
(330,406,cs)
);
}
);
width = 596;
}
);
leftKerningGroup = NUM_EIGHT;
rightKerningGroup = NUM_EIGHT;
unicode = 56;
}
{
glyphname = nine;
layers = (
{
layerId = "EF07516E-CE4D-469D-8301-1491E725ACEB";
shapes = (
{
closed = 1;
nodes = (
(240,728,o),
(118,640,o),
(86,508,cs),
(52,368,o),
(136,262,o),
(272,262,cs),
(298,262,o),
(314,266,o),
(318,272,c),
(300,288,l),
(66,0,l),
(264,0,l),
(498,282,ls),
(529,319,o),
(586,396,o),
(604,470,cs),
(638,608,o),
(544,728,o),
(380,728,cs)
);
},
{
closed = 1;
nodes = (
(414,578,o),
(454,550,o),
(442,494,cs),
(430,442,o),
(382,398,o),
(322,398,cs),
(282,398,o),
(234,418,o),
(246,478,cs),
(256,530,o),
(304,578,o),
(366,578,cs)
);
}
);
width = 590;
},
{
layerId = "C82BF5B4-EE1A-4CB4-A2C0-4E66566823BE";
shapes = (
{
closed = 1;
nodes = (
(246,728,o),
(131,633,o),
(102,504,cs),
(71,366,o),
(152,267,o),
(283,267,cs),
(316,267,o),
(349,274,o),
(375,294,c),
(356,297,l),
(98,0,l),
(217,0,l),
(481,301,ls),
(512,336,o),
(570,408,o),
(588,483,cs),
(620,615,o),
(528,728,o),
(380,728,cs)
);
},
{
closed = 1;
nodes = (
(451,638,o),
(509,583,o),
(491,497,cs),
(474,417,o),
(399,350,o),
(310,350,cs),
(235,350,o),
(179,398,o),
(198,488,cs),
(215,568,o),
(283,638,o),
(372,638,cs)
);
}
);
width = 584;
},
{
layerId = "960527DE-BC0D-48AB-B834-0D46F4119FDB";
shapes = (
{
closed = 1;
nodes = (
(252,728,o),
(144,626,o),
(118,500,cs),
(90,364,o),
(168,272,o),
(294,272,cs),
(334,272,o),
(384,282,o),
(432,316,c),
(412,306,l),
(130,0,l),
(170,0,l),
(464,320,ls),
(494,352,o),
(554,420,o),
(572,496,cs),
(602,622,o),
(512,728,o),
(380,728,cs)
);
},
{
closed = 1;
nodes = (
(488,698,o),
(564,616,o),
(540,500,cs),
(518,392,o),
(416,302,o),
(298,302,cs),
(188,302,o),
(124,378,o),
(150,498,cs),
(174,606,o),
(262,698,o),
(378,698,cs)
);
}
);
width = 578;
}
);
leftKerningGroup = NUM_NINE;
rightKerningGroup = NUM_NINE;
unicode = 57;
}
{
glyphname = colon;
layers = (
{
layerId = "E1414F7C-7342-42E0-9F1C-475EAD3EF451";
shapes = (
{
closed = 1;
nodes = (
(244,372,o),
(290,416,o),
(292,472,cs),
(294,528,o),
(252,572,o),
(194,572,cs),
(140,572,o),
(94,528,o),
(92,472,cs),
(90,416,o),
(133,372,o),
(190,372,cs)
);
},
{
closed = 1;
nodes = (
(164,-8,o),
(210,36,o),
(212,92,cs),
(214,148,o),
(172,192,o),
(114,192,cs),
(60,192,o),
(14,148,o),
(12,92,cs),
(10,36,o),
(53,-8,o),
(110,-8,cs)
);
}
);
width = 320;
},
{
layerId = "39EADFFA-F378-45E3-ACCF-69574A40D336";
shapes = (
{
closed = 1;
nodes = (
(215,386,o),
(247,417,o),
(248,457,cs),
(249,497,o),
(219,528,o),
(178,528,cs),
(139,528,o),
(107,497,o),
(106,457,cs),
(105,417,o),
(136,386,o),
(176,386,cs)
);
},
{
closed = 1;
nodes = (
(126,-8,o),
(158,23,o),
(159,63,cs),
(160,103,o),
(130,134,o),
(89,134,cs),
(50,134,o),
(18,103,o),
(17,63,cs),
(16,23,o),
(47,-8,o),
(87,-8,cs)
);
}
);
width = 266;
},
{
layerId = "0FE7234A-0103-4F7B-BAB8-33CF7CB7E092";
shapes = (
{
closed = 1;
nodes = (
(144,412,o),
(162,430,o),
(162,454,cs),
(162,478,o),
(144,496,o),
(120,496,cs),
(96,496,o),
(78,478,o),
(78,454,cs),
(78,430,o),
(96,412,o),
(120,412,cs)
);
},
{
closed = 1;
nodes = (
(64,-8,o),
(82,10,o),
(82,34,cs),
(82,58,o),
(64,76,o),
(40,76,cs),
(16,76,o),
(-2,58,o),
(-2,34,cs),
(-2,10,o),
(16,-8,o),
(40,-8,cs)
);
}
);
width = 212;
}
);
leftKerningGroup = PCT_COLON;
rightKerningGroup = PCT_COLON;
unicode = 58;
}
{
glyphname = semicolon;
layers = (
{
layerId = "EF07516E-CE4D-469D-8301-1491E725ACEB";
shapes = (
{
closed = 1;
nodes = (
(244,372,o),
(290,416,o),
(292,472,cs),
(294,528,o),
(252,572,o),
(194,572,cs),
(140,572,o),
(94,528,o),
(92,472,cs),
(90,416,o),
(133,372,o),
(190,372,cs)
);
},
{
closed = 1;
nodes = (
(22,-172,l),
(106,-116,ls),
(163,-78,o),
(228,-8,o),
(228,72,cs),
(228,152,o),
(178,192,o),
(122,192,cs),
(68,192,o),
(18,152,o),
(18,92,cs),
(18,34,o),
(68,-8,o),
(118,-8,cs),
(156,-8,o),
(174,22,o),
(174,48,c),
(152,48,l),
(154,-8,o),
(89,-43,o),
(60,-62,cs),
(-18,-112,l)
);
}
);
width = 334;
},
{
layerId = "C82BF5B4-EE1A-4CB4-A2C0-4E66566823BE";
shapes = (
{
closed = 1;
nodes = (
(215,386,o),
(247,417,o),
(248,457,cs),
(249,497,o),
(219,528,o),
(178,528,cs),
(139,528,o),
(107,497,o),
(106,457,cs),
(105,417,o),
(136,386,o),
(176,386,cs)
);
},
{
closed = 1;
nodes = (
(-4,-144,l),
(64,-100,ls),
(116,-66,o),
(162,-10,o),
(162,52,cs),
(162,104,o),
(126,134,o),
(86,134,cs),
(58,134,o),
(14,116,o),
(14,62,cs),
(14,10,o),
(56,-8,o),
(84,-8,cs),
(110,-8,o),
(122,10,o),
(128,32,c),
(108,32,l),
(108,-4,o),
(72,-38,o),
(30,-64,cs),
(-34,-104,l)
);
}
);
width = 274;
},
{
layerId = "960527DE-BC0D-48AB-B834-0D46F4119FDB";
shapes = (
{
closed = 1;
nodes = (
(144,412,o),
(162,430,o),
(162,454,cs),
(162,478,o),
(144,496,o),
(120,496,cs),
(96,496,o),
(78,478,o),
(78,454,cs),
(78,430,o),
(96,412,o),
(120,412,cs)
);
},
{
closed = 1;
nodes = (
(-24,-128,l),
(42,-72,ls),
(66,-51,o),
(96,-18,o),
(96,22,cs),
(96,62,o),
(74,76,o),
(52,76,cs),
(24,76,o),
(10,54,o),
(10,34,cs),
(10,10,o),
(28,-8,o),
(50,-8,cs),
(66,-8,o),
(72,-2,o),
(82,14,c),
(64,14,l),
(66,-4,o),
(55,-28,o),
(22,-54,cs),
(-44,-106,l)
);
}
);
width = 213;
}
);
leftKerningGroup = PCT_COLON;
rightKerningGroup = PCT_COLON;
unicode = 59;
}
{
glyphname = less;
layers = (
{
layerId = "E1414F7C-7342-42E0-9F1C-475EAD3EF451";
shapes = (
{
closed = 1;
nodes = (
(218,296,l),
(220,300,l),
(544,406,l),
(582,576,l),
(60,382,l),
(24,234,l),
(460,42,l),
(494,192,l)
);
}
);
width = 542;
},
{
layerId = "39EADFFA-F378-45E3-ACCF-69574A40D336";
shapes = (
{
closed = 1;
nodes = (
(147,298,l),
(148,302,l),
(517,431,l),
(540,533,l),
(56,352,l),
(34,260,l),
(436,81,l),
(457,170,l)
);
}
);
width = 511;
},
{
layerId = "0FE7234A-0103-4F7B-BAB8-33CF7CB7E092";
shapes = (
{
closed = 1;
nodes = (
(76,300,l),
(76,304,l),
(490,456,l),
(498,490,l),
(52,322,l),
(44,286,l),
(412,120,l),
(420,148,l)
);
}
);
width = 480;
}
);
unicode = 60;
}
{
glyphname = equal;
layers = (
{
layerId = "E1414F7C-7342-42E0-9F1C-475EAD3EF451";
shapes = (
{
closed = 1;
nodes = (
(37,264,l),
(559,264,l),
(593,412,l),
(71,412,l)
);
},
{
closed = 1;
nodes = (
(-6,76,l),
(516,76,l),
(550,224,l),
(28,224,l)
);
}
);
width = 588;
},
{
layerId = "39EADFFA-F378-45E3-ACCF-69574A40D336";
shapes = (
{
closed = 1;
nodes = (
(49,381,l),
(516,381,l),
(536,469,l),
(69,469,l)
);
},
{
closed = 1;
nodes = (
(-5,144,l),
(462,144,l),
(482,232,l),
(15,232,l)
);
}
);
width = 532;
},
{
layerId = "0FE7234A-0103-4F7B-BAB8-33CF7CB7E092";
shapes = (
{
closed = 1;
nodes = (
(41,290,l),
(453,290,l),
(459,318,l),
(47,318,l)
);
},
{
closed = 1;
nodes = (
(16,182,l),
(428,182,l),
(435,210,l),
(23,210,l)
);
}
);
width = 476;
}
);
unicode = 61;
}
{
glyphname = greater;
layers = (
{
layerId = "E1414F7C-7342-42E0-9F1C-475EAD3EF451";
shapes = (
{
closed = 1;
nodes = (
(-18,42,l),
(504,234,l),
(536,382,l),
(102,576,l),
(68,430,l),
(344,324,l),
(344,320,l),
(20,216,l)
);
}
);
width = 542;
},
{
layerId = "39EADFFA-F378-45E3-ACCF-69574A40D336";
shapes = (
{
closed = 1;
nodes = (
(-6,81,l),
(477,260,l),
(497,352,l),
(95,533,l),
(75,445,l),
(385,316,l),
(384,312,l),
(16,184,l)
);
}
);
width = 511;
},
{
layerId = "0FE7234A-0103-4F7B-BAB8-33CF7CB7E092";
shapes = (
{
closed = 1;
nodes = (
(6,120,l),
(450,286,l),
(458,322,l),
(88,490,l),
(82,460,l),
(426,308,l),
(424,304,l),
(12,152,l)
);
}
);
width = 480;
}
);
unicode = 62;
}
{
glyphname = question;
layers = (
{
layerId = "E1414F7C-7342-42E0-9F1C-475EAD3EF451";
shapes = (
{
closed = 1;
nodes = (
(226,732,o),
(118,632,o),
(86,508,c),
(234,508,l),
(246,550,o),
(294,588,o),
(340,588,cs),
(380,588,o),
(402,574,o),
(394,544,c),
(376,460,o),
(218,426,o),
(184,278,cs),
(174,236,l),
(318,236,l),
(324,262,ls),
(350,372,o),
(512,398,o),
(540,532,c),
(570,650,o),
(496,732,o),
(364,732,cs)
);
},
{
closed = 1;
nodes = (
(280,-8,o),
(326,36,o),
(328,92,cs),
(330,148,o),
(288,192,o),
(230,192,cs),
(176,192,o),
(130,148,o),
(128,92,cs),
(126,36,o),
(169,-8,o),
(226,-8,cs)
);
}
);
width = 510;
},
{
layerId = "39EADFFA-F378-45E3-ACCF-69574A40D336";
shapes = (
{
closed = 1;
nodes = (
(224,730,o),
(122,650,o),
(98,544,c),
(190,544,l),
(202,600,o),
(260,642,o),
(322,644,c),
(382,644,o),
(416,604,o),
(404,550,c),
(380,452,o),
(223,462,o),
(190,314,cs),
(174,242,l),
(268,242,l),
(284,312,ls),
(307,412,o),
(466,418,o),
(498,556,cs),
(520,654,o),
(450,730,o),
(336,730,cs)
);
},
{
closed = 1;
nodes = (
(236,-8,o),
(267,23,o),
(267,64,cs),
(267,105,o),
(236,136,o),
(195,136,cs),
(154,136,o),
(123,105,o),
(123,64,cs),
(123,23,o),
(154,-8,o),
(195,-8,cs)
);
}
);
width = 456;
},
{
layerId = "0FE7234A-0103-4F7B-BAB8-33CF7CB7E092";
shapes = (
{
closed = 1;
nodes = (
(232,728,o),
(142,656,o),
(124,574,c),
(152,574,l),
(168,640,o),
(244,700,o),
(322,698,c),
(404,700,o),
(448,646,o),
(432,572,cs),
(404,446,o),
(240,448,o),
(206,300,cs),
(194,246,l),
(224,246,l),
(236,298,ls),
(266,430,o),
(432,428,o),
(460,568,c),
(484,660,o),
(426,728,o),
(328,728,cs)
);
},
{
closed = 1;
nodes = (
(200,-8,o),
(218,10,o),
(218,34,cs),
(218,58,o),
(200,76,o),
(176,76,cs),
(152,76,o),
(134,58,o),
(134,34,cs),
(134,10,o),
(152,-8,o),
(176,-8,cs)
);
}
);
width = 440;
}
);
leftKerningGroup = PCT_QUESTION;
rightKerningGroup = PCT_QUESTION;
unicode = 63;
}
{
glyphname = at;
layers = (
{
layerId = "E1414F7C-7342-42E0-9F1C-475EAD3EF451";
shapes = (
{
closed = 1;
nodes = (
(480,-134,o),
(570,-120,o),
(620,-92,c),
(584,12,l),
(518,-12,o),
(460,-26,o),
(406,-26,cs),
(228,-26,o),
(114,116,o),
(150,306,cs),
(186,498,o),
(344,620,o),
(522,620,cs),
(706,620,o),
(812,488,o),
(784,338,cs),
(774,282,o),
(736,180,o),
(672,180,cs),
(630,180,o),
(634,228,o),
(636,236,cs),
(700,516,l),
(586,516,l),
(576,468,l),
(562,468,l),
(566,430,l),
(512,196,l),
(486,146,l),
(538,154,l),
(546,98,o),
(618,70,o),
(672,70,cs),
(790,70,o),
(870,178,o),
(898,300,cs),
(948,522,o),
(804,728,o),
(526,728,cs),
(270,728,o),
(92,556,o),
(44,336,cs),
(-14,66,o),
(160,-134,o),
(414,-134,cs)
);
},
{
closed = 1;
nodes = (
(526,72,o),
(590,196,o),
(606,282,cs),
(632,410,o),
(572,522,o),
(456,522,cs),
(348,522,o),
(256,428,o),
(232,314,cs),
(204,180,o),
(286,72,o),
(402,72,cs)
);
},
{
closed = 1;
nodes = (
(398,202,o),
(360,230,o),
(370,290,cs),
(376,328,o),
(402,390,o),
(470,390,cs),
(522,390,o),
(544,356,o),
(538,310,cs),
(532,268,o),
(500,202,o),
(438,202,cs)
);
}
);
width = 918;
},
{
layerId = "39EADFFA-F378-45E3-ACCF-69574A40D336";
shapes = (
{
closed = 1;
nodes = (
(528,-134,o),
(626,-100,o),
(670,-70,c),
(644,12,l),
(596,-20,o),
(512,-52,o),
(418,-52,cs),
(220,-52,o),
(100,88,o),
(136,288,cs),
(170,478,o),
(332,646,o),
(554,646,cs),
(746,646,o),
(866,518,o),
(826,330,cs),
(806,234,o),
(752,156,o),
(692,156,cs),
(652,156,o),
(632,188,o),
(644,242,cs),
(704,508,l),
(622,508,l),
(612,462,l),
(602,462,l),
(604,422,l),
(552,196,l),
(530,146,l),
(574,148,l),
(584,106,o),
(638,76,o),
(694,76,cs),
(804,76,o),
(884,180,o),
(912,322,c),
(958,564,o),
(808,728,o),
(560,728,cs),
(286,728,o),
(94,528,o),
(54,304,cs),
(8,46,o),
(172,-134,o),
(420,-134,cs)
);
},
{
closed = 1;
nodes = (
(532,78,o),
(620,174,o),
(644,292,cs),
(668,410,o),
(612,508,o),
(494,508,cs),
(382,508,o),
(280,422,o),
(256,302,cs),
(232,182,o),
(304,78,o),
(420,78,cs)
);
},
{
closed = 1;
nodes = (
(372,166,o),
(338,220,o),
(352,290,cs),
(366,362,o),
(422,422,o),
(488,422,cs),
(550,422,o),
(588,372,o),
(572,294,cs),
(560,234,o),
(514,166,o),
(440,166,cs)
);
}
);
width = 942;
},
{
layerId = "0FE7234A-0103-4F7B-BAB8-33CF7CB7E092";
shapes = (
{
closed = 1;
nodes = (
(540,-132,o),
(632,-102,o),
(690,-64,c),
(676,-40,l),
(600,-84,o),
(526,-104,o),
(446,-104,cs),
(212,-104,o),
(54,60,o),
(102,306,cs),
(144,520,o),
(318,700,o),
(554,700,cs),
(780,700,o),
(910,538,o),
(862,318,cs),
(838,206,o),
(776,110,o),
(688,110,cs),
(632,110,o),
(598,152,o),
(614,220,cs),
(676,496,l),
(646,496,l),
(626,410,l),
(612,410,l),
(624,384,l),
(578,190,l),
(566,176,l),
(580,176,l),
(584,120,o),
(634,82,o),
(692,82,cs),
(798,82,o),
(866,196,o),
(892,318,cs),
(940,550,o),
(800,728,o),
(554,728,cs),
(302,728,o),
(116,536,o),
(72,308,cs),
(18,34,o),
(208,-132,o),
(442,-132,cs)
);
},
{
closed = 1;
nodes = (
(530,80,o),
(606,176,o),
(628,290,cs),
(654,426,o),
(584,496,o),
(490,496,cs),
(388,496,o),
(298,412,o),
(274,290,cs),
(250,168,o),
(312,80,o),
(418,80,cs)
);
},
{
closed = 1;
nodes = (
(330,108,o),
(282,176,o),
(302,282,cs),
(320,378,o),
(390,468,o),
(488,468,cs),
(562,468,o),
(626,418,o),
(602,294,cs),
(582,192,o),
(514,108,o),
(418,108,cs)
);
}
);
width = 938;
}
);
leftKerningGroup = at;
rightKerningGroup = at;
unicode = 64;
}
{
glyphname = A;
layers = (
{
anchors = (
{
name = bottom;
position = "{314, 0}";
},
{
name = ogonek;
position = "{610, 0}";
},
{
name = top;
position = "{478, 720}";
}
);
layerId = "9C023954-B0F0-4AC3-996A-DC35BCD11D7C";
shapes = (
{
closed = 1;
nodes = (
(-56,0,l),
(148,0,l),
(252,176,l),
(282,246,l),
(436,514,l),
(440,514,l),
(478,246,l),
(476,176,l),
(500,0,l),
(680,0,l),
(552,720,l),
(400,720,l)
);
},
{
closed = 1;
nodes = (
(150,132,l),
(538,132,l),
(572,278,l),
(184,278,l)
);
}
);
width = 744;
},
{
anchors = (
{
name = bottom;
position = "{294, 0}";
},
{
name = ogonek;
position = "{558, 0}";
},
{
name = top;
position = "{458, 720}";
}
);
layerId = "169D7F5A-B55B-498B-8A7E-44B3106F6DC0";
shapes = (
{
closed = 1;
nodes = (
(-48,0,l),
(66,0,l),
(196,206,l),
(220,244,l),
(426,574,l),
(430,574,l),
(488,244,l),
(492,206,l),
(530,0,l),
(632,0,l),
(498,720,l),
(414,720,l)
);
},
{
closed = 1;
nodes = (
(136,180,l),
(530,180,l),
(550,272,l),
(156,272,l)
);
}
);
width = 704;
},
{
anchors = (
{
name = bottom;
position = "{278, 0}";
},
{
name = ogonek;
position = "{510, 0}";
},
{
name = top;
position = "{442, 720}";
}
);
layerId = "1CFA5324-D054-4A76-8DD1-A1279E18B2E8";
shapes = (
{
closed = 1;
nodes = (
(-26,0,l),
(10,0,l),
(160,242,l),
(168,254,l),
(430,676,l),
(434,676,l),
(504,252,l),
(508,240,l),
(546,0,l),
(578,0,l),
(452,720,l),
(424,720,l)
);
},
{
closed = 1;
nodes = (
(140,232,l),
(518,232,l),
(526,262,l),
(148,262,l)
);
}
);
width = 668;
}
);
leftKerningGroup = LAT_A_UC;
rightKerningGroup = LAT_A_UC;
unicode = 65;
}
{
glyphname = B;
layers = (
{
anchors = (
{
name = bottom;
position = "{284, 0}";
},
{
name = center;
position = "{154, 226}";
},
{
name = top;
position = "{410, 720}";
}
);
layerId = "EF07516E-CE4D-469D-8301-1491E725ACEB";
shapes = (
{
closed = 1;
nodes = (
(358,0,ls),
(496,0,o),
(586,80,o),
(610,192,cs),
(638,320,o),
(560,374,o),
(472,388,c),
(468,344,l),
(540,368,o),
(610,440,o),
(628,524,cs),
(652,646,o),
(548,720,o),
(410,720,cs),
(342,720,l),
(306,564,l),
(380,564,ls),
(422,564,o),
(462,550,o),
(456,506,cs),
(452,472,o),
(420,430,o),
(374,430,cs),
(276,430,l),
(246,298,l),
(378,298,ls),
(418,298,o),
(452,276,o),
(442,232,cs),
(432,188,o),
(402,156,o),
(352,156,cs),
(214,156,l),
(178,0,l)
);
},
{
closed = 1;
nodes = (
(192,0,l),
(356,720,l),
(176,720,l),
(12,0,l)
);
}
);
width = 652;
},
{
anchors = (
{
name = bottom;
position = "{256, 0}";
},
{
name = center;
position = "{130, 208}";
},
{
name = top;
position = "{418, 720}";
}
);
layerId = "C82BF5B4-EE1A-4CB4-A2C0-4E66566823BE";
shapes = (
{
closed = 1;
nodes = (
(300,0,ls),
(444,0,o),
(534,82,o),
(554,196,cs),
(572,294,o),
(528,362,o),
(438,388,c),
(434,362,l),
(492,382,o),
(558,448,o),
(576,532,cs),
(600,642,o),
(528,720,o),
(370,720,cs),
(276,720,l),
(256,628,l),
(356,628,ls),
(436,628,o),
(482,596,o),
(472,532,cs),
(462,466,o),
(400,414,o),
(324,414,cs),
(206,414,l),
(186,322,l),
(336,322,ls),
(420,322,o),
(464,276,o),
(452,206,cs),
(440,138,o),
(386,92,o),
(310,92,cs),
(144,92,l),
(122,0,l)
);
},
{
closed = 1;
nodes = (
(132,0,l),
(296,720,l),
(192,720,l),
(28,0,l)
);
}
);
width = 610;
},
{
anchors = (
{
name = bottom;
position = "{228, 0}";
},
{
name = center;
position = "{108, 206}";
},
{
name = top;
position = "{388, 720}";
}
);
layerId = "960527DE-BC0D-48AB-B834-0D46F4119FDB";
shapes = (
{
closed = 1;
nodes = (
(260,0,ls),
(386,0,o),
(478,66,o),
(502,184,cs),
(522,284,o),
(476,358,o),
(374,378,c),
(386,372,l),
(454,400,o),
(506,456,o),
(524,536,cs),
(546,638,o),
(488,720,o),
(372,720,cs),
(216,720,l),
(208,690,l),
(368,690,ls),
(454,690,o),
(514,636,o),
(492,542,cs),
(472,452,o),
(390,386,o),
(304,386,cs),
(140,386,l),
(132,356,l),
(310,356,ls),
(420,356,o),
(492,302,o),
(472,192,cs),
(452,90,o),
(370,30,o),
(260,30,cs),
(76,30,l),
(70,0,l)
);
},
{
closed = 1;
nodes = (
(74,0,l),
(238,720,l),
(206,720,l),
(42,0,l)
);
}
);
width = 586;
}
);
leftKerningGroup = LAT_H_UC;
rightKerningGroup = LAT_B_UC;
unicode = 66;
}
{
glyphname = C;
layers = (
{
anchors = (
{
name = base;
position = "{350, 0}";
},
{
name = bottom;
position = "{344, 0}";
},
{
name = cedilla;
position = "{356, 0}";
},
{
name = top;
position = "{504, 720}";
}
);
layerId = "9C023954-B0F0-4AC3-996A-DC35BCD11D7C";
shapes = (
{
closed = 1;
nodes = (
(436,-8,o),
(508,4,o),
(582,42,c),
(546,212,l),
(506,176,o),
(444,156,o),
(390,156,cs),
(282,156,o),
(206,234,o),
(230,356,cs),
(252,464,o),
(346,564,o),
(474,564,cs),
(528,564,o),
(586,546,o),
(608,516,c),
(708,666,l),
(646,706,o),
(564,728,o),
(488,728,cs),
(284,728,o),
(102,592,o),
(56,388,cs),
(8,176,o),
(142,-8,o),
(376,-8,cs)
);
}
);
width = 662;
},
{
anchors = (
{
name = base;
position = "{360, 0}";
},
{
name = bottom;
position = "{346, 0}";
},
{
name = cedilla;
position = "{352, 0}";
},
{
name = top;
position = "{510, 720}";
}
);
layerId = "169D7F5A-B55B-498B-8A7E-44B3106F6DC0";
shapes = (
{
closed = 1;
nodes = (
(458,-8,o),
(530,22,o),
(596,66,c),
(574,164,l),
(524,122,o),
(466,88,o),
(382,88,cs),
(228,88,o),
(140,206,o),
(172,356,cs),
(202,496,o),
(330,632,o),
(488,632,cs),
(554,632,o),
(626,608,o),
(660,568,c),
(718,662,l),
(668,702,o),
(582,728,o),
(498,728,cs),
(282,728,o),
(108,556,o),
(68,366,cs),
(22,150,o),
(160,-8,o),
(366,-8,cs)
);
}
);
width = 672;
},
{
anchors = (
{
name = base;
position = "{358, 0}";
},
{
name = bottom;
position = "{338, 0}";
},
{
name = cedilla;
position = "{338, 0}";
},
{
name = top;
position = "{502, 720}";
}
);
layerId = "1CFA5324-D054-4A76-8DD1-A1279E18B2E8";
shapes = (
{
closed = 1;
nodes = (
(422,-8,o),
(508,20,o),
(578,76,c),
(570,110,l),
(512,56,o),
(430,22,o),
(348,22,cs),
(176,22,o),
(72,170,o),
(114,358,cs),
(158,556,o),
(332,698,o),
(492,698,cs),
(558,698,o),
(640,676,o),
(682,622,c),
(702,652,l),
(656,698,o),
(576,728,o),
(494,728,cs),
(314,728,o),
(132,576,o),
(84,362,cs),
(34,140,o),
(168,-8,o),
(344,-8,cs)
);
}
);
width = 664;
}
);
leftKerningGroup = LAT_O_UC;
rightKerningGroup = LAT_C_UC;
unicode = 67;
}
{
glyphname = D;
layers = (
{
anchors = (
{
name = bottom;
position = "{280, 0}";
},
{
name = center;
position = "{190, 360}";
},
{
name = top;
position = "{446, 720}";
}
);
layerId = "EF07516E-CE4D-469D-8301-1491E725ACEB";
shapes = (
{
closed = 1;
nodes = (
(12,0,l),
(300,0,ls),
(480,0,o),
(650,122,o),
(702,344,cs),
(754,564,o),
(632,720,o),
(412,720,cs),
(176,720,l)
);
},
{
closed = 1;
nodes = (
(228,160,l),
(320,560,l),
(404,560,ls),
(470,560,o),
(558,526,o),
(530,380,cs),
(500,226,o),
(384,160,o),
(326,160,cs)
);
}
);
width = 712;
},
{
anchors = (
{
name = bottom;
position = "{281, 0}";
},
{
name = center;
position = "{167, 360}";
},
{
name = top;
position = "{445, 720}";
}
);
layerId = "C82BF5B4-EE1A-4CB4-A2C0-4E66566823BE";
shapes = (
{
closed = 1;
nodes = (
(27,0,l),
(292,0,ls),
(479,0,o),
(630,145,o),
(675,353,cs),
(724,577,o),
(609,720,o),
(406,720,cs),
(191,720,l)
);
},
{
closed = 1;
nodes = (
(154,95,l),
(275,625,l),
(400,625,ls),
(519,625,o),
(607,549,o),
(574,378,cs),
(541,209,o),
(421,95,o),
(304,95,cs)
);
}
);
width = 698;
},
{
anchors = (
{
name = bottom;
position = "{282, 0}";
},
{
name = center;
position = "{144, 360}";
},
{
name = top;
position = "{444, 720}";
}
);
layerId = "960527DE-BC0D-48AB-B834-0D46F4119FDB";
shapes = (
{
closed = 1;
nodes = (
(42,0,l),
(284,0,ls),
(478,0,o),
(610,168,o),
(648,362,cs),
(694,590,o),
(586,720,o),
(400,720,cs),
(206,720,l)
);
},
{
closed = 1;
nodes = (
(80,30,l),
(230,690,l),
(396,690,ls),
(568,690,o),
(656,572,o),
(618,376,cs),
(582,192,o),
(458,30,o),
(282,30,cs)
);
}
);
width = 684;
}
);
leftKerningGroup = LAT_H_UC;
rightKerningGroup = LAT_O_UC;
unicode = 68;
}
{
glyphname = E;
layers = (
{
anchors = (
{
name = bottom;
position = "{242, 0}";
},
{
name = cedilla;
position = "{240, 0}";
},
{
name = ogonek;
position = "{338, 0}";
},
{
name = top;
position = "{404, 720}";
},
{
name = topleft;
position = "{126, 720}";
}
);
layerId = "E1414F7C-7342-42E0-9F1C-475EAD3EF451";
shapes = (
{
closed = 1;
nodes = (
(12,0,l,{name = .dv02;}),
(430,0,l),
(466,160,l),
(228,160,l,{name = .dv01;}),
(256,286,l,{name = .dv03;}),
(452,286,l),
(490,438,l),
(292,438,l,{name = .dv04;}),
(320,560,l,{name = .dv06;}),
(556,560,l),
(594,720,l),
(176,720,l,{name = .dv05;})
);
}
);
width = 542;
},
{
anchors = (
{
name = bottom;
position = "{243, 0}";
},
{
name = cedilla;
position = "{239, 0}";
},
{
name = ogonek;
position = "{334, 0}";
},
{
name = top;
position = "{401, 720}";
},
{
name = topleft;
position = "{127, 720}";
}
);
layerId = "39EADFFA-F378-45E3-ACCF-69574A40D336";
shapes = (
{
closed = 1;
nodes = (
(27,0,l),
(418,0,l),
(439,95,l),
(154,95,l),
(205,320,l),
(445,320,l),
(468,411,l),
(227,411,l),
(275,625,l),
(559,625,l),
(582,720,l),
(191,720,l)
);
}
);
width = 537;
},
{
anchors = (
{
name = bottom;
position = "{244, 0}";
},
{
name = cedilla;
position = "{238, 0}";
},
{
name = ogonek;
position = "{330, 0}";
},
{
name = top;
position = "{398, 720}";
},
{
name = topleft;
position = "{128, 720}";
}
);
layerId = "0FE7234A-0103-4F7B-BAB8-33CF7CB7E092";
shapes = (
{
closed = 1;
nodes = (
(42,0,l,{name = .dv02;}),
(406,0,l),
(412,30,l),
(80,30,l,{name = .dv01;}),
(154,354,l,{name = .dv03;}),
(438,354,l),
(446,384,l),
(162,384,l,{name = .dv04;}),
(230,690,l,{name = .dv06;}),
(562,690,l),
(570,720,l),
(206,720,l,{name = .dv05;})
);
}
);
width = 532;
}
);
leftKerningGroup = LAT_H_UC;
rightKerningGroup = LAT_E_UC;
unicode = 69;
}
{
glyphname = F;
layers = (
{
anchors = (
{
name = bottom;
position = "{102, 0}";
},
{
name = center;
position = "{134, 142}";
},
{
name = top;
position = "{416, 720}";
}
);
layerId = "9C023954-B0F0-4AC3-996A-DC35BCD11D7C";
shapes = (
{
closed = 1;
nodes = (
(12,0,l),
(192,0,l),
(250,256,l),
(446,256,l),
(482,416,l),
(286,416,l),
(318,560,l),
(558,560,l),
(594,720,l),
(176,720,l)
);
}
);
width = 522;
},
{
anchors = (
{
name = bottom;
position = "{80, 0}";
},
{
name = center;
position = "{117, 163}";
},
{
name = top;
position = "{407, 720}";
}
);
layerId = "169D7F5A-B55B-498B-8A7E-44B3106F6DC0";
shapes = (
{
closed = 1;
nodes = (
(27,0,l),
(133,0,l),
(202,305,l),
(440,305,l),
(462,400,l),
(224,400,l),
(274,625,l),
(554,625,l),
(576,720,l),
(191,720,l)
);
}
);
width = 507;
},
{
anchors = (
{
name = bottom;
position = "{58, 0}";
},
{
name = center;
position = "{100, 184}";
},
{
name = top;
position = "{398, 720}";
}
);
layerId = "1CFA5324-D054-4A76-8DD1-A1279E18B2E8";
shapes = (
{
closed = 1;
nodes = (
(42,0,l),
(74,0,l),
(154,354,l),
(434,354,l),
(442,384,l),
(162,384,l),
(230,690,l),
(550,690,l),
(558,720,l),
(206,720,l)
);
}
);
width = 492;
}
);
leftKerningGroup = LAT_H_UC;
rightKerningGroup = LAT_F_UC;
unicode = 70;
}
{
glyphname = G;
layers = (
{
anchors = (
{
name = bottom;
position = "{334, 0}";
},
{
name = hook;
position = "{734, 670}";
},
{
name = top;
position = "{498, 720}";
}
);
layerId = "EF07516E-CE4D-469D-8301-1491E725ACEB";
shapes = (
{
closed = 1;
nodes = (
(552,-8,o),
(696,112,o),
(734,280,cs),
(766,420,l),
(418,418,l),
(386,274,l),
(566,274,l),
(550,210,o),
(472,152,o),
(378,152,cs),
(264,152,o),
(210,236,o),
(232,344,cs),
(258,472,o),
(372,564,o),
(496,564,cs),
(550,564,o),
(606,546,o),
(630,516,c),
(730,666,l),
(672,704,o),
(588,728,o),
(504,728,cs),
(308,728,o),
(102,594,o),
(54,380,cs),
(8,180,o),
(126,-8,o),
(362,-8,cs)
);
}
);
width = 762;
},
{
anchors = (
{
name = bottom;
position = "{336, 0}";
},
{
name = hook;
position = "{732, 662}";
},
{
name = top;
position = "{492, 720}";
}
);
layerId = "C82BF5B4-EE1A-4CB4-A2C0-4E66566823BE";
shapes = (
{
closed = 1;
nodes = (
(550,-8,o),
(678,116,o),
(724,314,cs),
(742,392,l),
(408,392,l),
(388,300,l),
(614,300,l),
(584,170,o),
(500,88,o),
(374,88,cs),
(234,88,o),
(136,190,o),
(172,354,cs),
(208,514,o),
(342,632,o),
(496,632,cs),
(572,632,o),
(640,604,o),
(670,566,c),
(730,662,l),
(670,708,o),
(586,728,o),
(506,728,cs),
(278,728,o),
(112,566,o),
(68,364,cs),
(20,142,o),
(166,-8,o),
(368,-8,cs)
);
}
);
width = 752;
},
{
anchors = (
{
name = bottom;
position = "{322, 0}";
},
{
name = hook;
position = "{708, 652}";
},
{
name = top;
position = "{486, 720}";
}
);
layerId = "960527DE-BC0D-48AB-B834-0D46F4119FDB";
shapes = (
{
closed = 1;
nodes = (
(534,-8,o),
(660,136,o),
(704,342,cs),
(710,370,l),
(396,370,l),
(390,342,l),
(672,342,l),
(634,167,o),
(522,20,o),
(350,20,cs),
(182,20,o),
(72,158,o),
(114,358,cs),
(154,546,o),
(308,698,o),
(490,698,cs),
(568,698,o),
(650,670,o),
(688,622,c),
(708,652,l),
(664,696,o),
(584,728,o),
(494,728,cs),
(292,728,o),
(126,564,o),
(84,362,cs),
(38,142,o),
(160,-8,o),
(348,-8,cs)
);
}
);
width = 744;
}
);
leftKerningGroup = LAT_O_UC;
rightKerningGroup = LAT_G_UC;
unicode = 71;
}
{
glyphname = H;
layers = (
{
anchors = (
{
name = bottom;
position = "{320, 0}";
},
{
name = center;
position = "{452, 578}";
},
{
name = top;
position = "{484, 720}";
}
);
layerId = "9C023954-B0F0-4AC3-996A-DC35BCD11D7C";
shapes = (
{
closed = 1;
nodes = (
(12,0,l),
(192,0,l),
(256,282,l),
(510,282,l),
(448,0,l),
(628,0,l),
(792,720,l),
(612,720,l),
(548,442,l),
(292,442,l),
(356,720,l),
(176,720,l)
);
}
);
width = 760;
},
{
anchors = (
{
name = bottom;
position = "{304, 0}";
},
{
name = center;
position = "{430, 554}";
},
{
name = top;
position = "{468, 720}";
}
);
layerId = "169D7F5A-B55B-498B-8A7E-44B3106F6DC0";
shapes = (
{
closed = 1;
nodes = (
(27,0,l),
(133,0,l),
(205,318,l),
(545,318,l),
(474,0,l),
(580,0,l),
(744,720,l),
(638,720,l),
(568,413,l),
(227,413,l),
(297,720,l),
(191,720,l)
);
}
);
width = 725;
},
{
anchors = (
{
name = bottom;
position = "{288, 0}";
},
{
name = center;
position = "{408, 530}";
},
{
name = top;
position = "{452, 720}";
}
);
layerId = "1CFA5324-D054-4A76-8DD1-A1279E18B2E8";
shapes = (
{
closed = 1;
nodes = (
(42,0,l),
(74,0,l),
(154,354,l),
(580,354,l),
(500,0,l),
(532,0,l),
(696,720,l),
(664,720,l),
(588,384,l),
(162,384,l),
(238,720,l),
(206,720,l)
);
}
);
width = 690;
}
);
leftKerningGroup = LAT_H_UC;
rightKerningGroup = LAT_H_UC;
unicode = 72;
}
{
glyphname = I;
layers = (
{
anchors = (
{
name = bottom;
position = "{112, 0}";
},
{
name = ogonek;
position = "{96, 0}";
},
{
name = top;
position = "{276, 720}";
}
);
layerId = "EF07516E-CE4D-469D-8301-1491E725ACEB";
shapes = (
{
closed = 1;
nodes = (
(22,0,l),
(202,0,l),
(366,720,l),
(186,720,l)
);
}
);
width = 346;
},
{
anchors = (
{
name = bottom;
position = "{87, 0}";
},
{
name = ogonek;
position = "{56, 0}";
},
{
name = top;
position = "{251, 720}";
}
);
layerId = "C82BF5B4-EE1A-4CB4-A2C0-4E66566823BE";
shapes = (
{
closed = 1;
nodes = (
(34,0,l),
(140,0,l),
(304,720,l),
(198,720,l)
);
}
);
width = 293;
},
{
anchors = (
{
name = bottom;
position = "{62, 0}";
},
{
name = ogonek;
position = "{16, 0}";
},
{
name = top;
position = "{226, 720}";
}
);
layerId = "960527DE-BC0D-48AB-B834-0D46F4119FDB";
shapes = (
{
closed = 1;
nodes = (
(46,0,l),
(78,0,l),
(242,720,l),
(210,720,l)
);
}
);
width = 240;
}
);
leftKerningGroup = LAT_H_UC;
rightKerningGroup = LAT_H_UC;
unicode = 73;
}
{
glyphname = J;
layers = (
{
anchors = (
{
name = bottom;
position = "{216, 0}";
},
{
name = top;
position = "{492, 720}";
}
);
layerId = "9C023954-B0F0-4AC3-996A-DC35BCD11D7C";
shapes = (
{
closed = 1;
nodes = (
(294,234,ls),
(288,208,o),
(274,152,o),
(220,152,cs),
(182,152,o),
(160,178,o),
(174,234,c),
(8,234,l),
(-26,82,o),
(52,-8,o),
(212,-8,cs),
(348,-8,o),
(440,76,o),
(472,220,cs),
(584,720,l),
(404,720,l)
);
}
);
width = 554;
},
{
anchors = (
{
name = bottom;
position = "{183, 0}";
},
{
name = top;
position = "{463, 720}";
}
);
layerId = "169D7F5A-B55B-498B-8A7E-44B3106F6DC0";
shapes = (
{
closed = 1;
nodes = (
(301,223,ls),
(283,143,o),
(246,87,o),
(181,87,cs),
(125,87,o),
(88,129,o),
(105,201,c),
(6,201,l),
(-21,73,o),
(49,-8,o),
(177,-8,cs),
(291,-8,o),
(373,67,o),
(406,215,cs),
(520,720,l),
(414,720,l)
);
}
);
width = 502;
},
{
anchors = (
{
name = bottom;
position = "{150, 0}";
},
{
name = top;
position = "{434, 720}";
}
);
layerId = "1CFA5324-D054-4A76-8DD1-A1279E18B2E8";
shapes = (
{
closed = 1;
nodes = (
(308,212,ls),
(278,78,o),
(218,22,o),
(142,22,cs),
(68,22,o),
(16,80,o),
(36,168,c),
(4,168,l),
(-16,64,o),
(46,-8,o),
(142,-8,cs),
(234,-8,o),
(306,58,o),
(340,210,cs),
(456,720,l),
(424,720,l)
);
}
);
width = 450;
}
);
leftKerningGroup = LAT_J_UC;
rightKerningGroup = LAT_U_UC;
unicode = 74;
}
{
glyphname = K;
layers = (
{
anchors = (
{
name = bottom;
position = "{300, 0}";
},
{
name = top;
position = "{446, 720}";
}
);
layerId = "EF07516E-CE4D-469D-8301-1491E725ACEB";
shapes = (
{
closed = 1;
nodes = (
(192,0,l),
(262,312,l),
(304,312,l),
(254,338,l),
(426,0,l),
(624,0,l),
(410,398,l),
(400,300,l),
(792,720,l),
(570,720,l),
(260,378,l),
(326,404,l),
(284,404,l),
(356,720,l),
(176,720,l),
(12,0,l)
);
}
);
width = 702;
},
{
anchors = (
{
name = bottom;
position = "{273, 0}";
},
{
name = top;
position = "{428, 720}";
}
);
layerId = "C82BF5B4-EE1A-4CB4-A2C0-4E66566823BE";
shapes = (
{
closed = 1;
nodes = (
(133,0,l),
(207,329,l),
(236,329,l),
(204,348,l),
(436,0,l),
(554,0,l),
(296,383,l),
(291,324,l),
(710,720,l),
(576,720,l),
(207,370,l),
(251,389,l),
(221,389,l),
(297,720,l),
(191,720,l),
(27,0,l)
);
}
);
width = 643;
},
{
anchors = (
{
name = bottom;
position = "{246, 0}";
},
{
name = top;
position = "{410, 720}";
}
);
layerId = "960527DE-BC0D-48AB-B834-0D46F4119FDB";
shapes = (
{
closed = 1;
nodes = (
(74,0,l),
(152,346,l),
(168,346,l),
(154,358,l),
(446,0,l),
(484,0,l),
(182,368,l),
(182,348,l),
(628,720,l),
(582,720,l),
(154,362,l),
(176,374,l),
(158,374,l),
(238,720,l),
(206,720,l),
(42,0,l)
);
}
);
width = 584;
}
);
leftKerningGroup = LAT_H_UC;
rightKerningGroup = LAT_K_UC;
unicode = 75;
}
{
glyphname = L;
layers = (
{
anchors = (
{
name = bottom;
position = "{224, 0}";
},
{
name = center;
position = "{184, 370}";
},
{
name = dot;
position = "{444, 370}";
},
{
name = top;
position = "{270, 720}";
},
{
name = topright;
position = "{412, 720}";
}
);
layerId = "9C023954-B0F0-4AC3-996A-DC35BCD11D7C";
shapes = (
{
closed = 1;
nodes = (
(12,0,l),
(426,0,l),
(464,160,l),
(228,160,l),
(356,720,l),
(176,720,l)
);
}
);
width = 504;
},
{
anchors = (
{
name = bottom;
position = "{226, 0}";
},
{
name = center;
position = "{162, 365}";
},
{
name = dot;
position = "{417, 365}";
},
{
name = top;
position = "{246, 720}";
},
{
name = topright;
position = "{442, 720}";
}
);
layerId = "169D7F5A-B55B-498B-8A7E-44B3106F6DC0";
shapes = (
{
closed = 1;
nodes = (
(27,0,l),
(413,0,l),
(435,95,l),
(154,95,l),
(297,720,l),
(191,720,l)
);
}
);
width = 494;
},
{
anchors = (
{
name = bottom;
position = "{228, 0}";
},
{
name = center;
position = "{140, 360}";
},
{
name = dot;
position = "{390, 360}";
},
{
name = top;
position = "{222, 720}";
},
{
name = topright;
position = "{472, 720}";
}
);
layerId = "1CFA5324-D054-4A76-8DD1-A1279E18B2E8";
shapes = (
{
closed = 1;
nodes = (
(42,0,l),
(400,0,l),
(406,30,l),
(80,30,l),
(238,720,l),
(206,720,l)
);
}
);
width = 484;
}
);
leftKerningGroup = LAT_H_UC;
rightKerningGroup = LAT_L_UC;
unicode = 76;
}
{
glyphname = M;
layers = (
{
anchors = (
{
name = bottom;
position = "{388, 0}";
},
{
name = top;
position = "{552, 720}";
}
);
layerId = "EF07516E-CE4D-469D-8301-1491E725ACEB";
shapes = (
{
closed = 1;
nodes = (
(12,0,l),
(192,0,l),
(234,196,l),
(276,398,l),
(282,398,l),
(408,150,l),
(440,150,l),
(676,398,l),
(678,398,l),
(626,196,l),
(582,0,l),
(764,0,l),
(928,720,l),
(784,720,l),
(470,400,l),
(466,400,l),
(292,720,l),
(176,720,l)
);
}
);
width = 896;
},
{
anchors = (
{
name = bottom;
position = "{362, 0}";
},
{
name = top;
position = "{526, 720}";
}
);
layerId = "C82BF5B4-EE1A-4CB4-A2C0-4E66566823BE";
shapes = (
{
closed = 1;
nodes = (
(28,0,l),
(132,0,l),
(212,352,l),
(244,496,l),
(248,496,l),
(380,140,l),
(414,140,l),
(702,496,l),
(706,496,l),
(670,352,l),
(590,0,l),
(694,0,l),
(858,720,l),
(766,720,l),
(426,298,l),
(422,298,l),
(266,720,l),
(192,720,l)
);
}
);
width = 840;
},
{
anchors = (
{
name = bottom;
position = "{330, 0}";
},
{
name = top;
position = "{494, 720}";
}
);
layerId = "960527DE-BC0D-48AB-B834-0D46F4119FDB";
shapes = (
{
closed = 1;
nodes = (
(42,0,l),
(74,0,l),
(192,522,l),
(224,658,l),
(228,658,l),
(352,134,l),
(372,134,l),
(730,658,l),
(734,658,l),
(702,522,l),
(584,0,l),
(616,0,l),
(780,720,l),
(736,720,l),
(374,188,l),
(368,188,l),
(242,720,l),
(206,720,l)
);
}
);
width = 774;
}
);
leftKerningGroup = LAT_H_UC;
rightKerningGroup = LAT_H_UC;
unicode = 77;
}
{
glyphname = N;
layers = (
{
anchors = (
{
name = bottom;
position = "{326, 0}";
},
{
name = leghookright;
position = "{558, 0}";
},
{
name = top;
position = "{492, 720}";
}
);
layerId = "9C023954-B0F0-4AC3-996A-DC35BCD11D7C";
shapes = (
{
closed = 1;
nodes = (
(12,0,l),
(192,0,l),
(248,254,l),
(280,414,l),
(286,414,l),
(318,348,l),
(514,0,l),
(644,0,l),
(808,720,l),
(626,720,l),
(568,466,l),
(538,316,l),
(532,316,l),
(498,380,l),
(304,720,l),
(176,720,l)
);
}
);
width = 776;
},
{
anchors = (
{
name = bottom;
position = "{310, 0}";
},
{
name = leghookright;
position = "{548, 0}";
},
{
name = top;
position = "{478, 720}";
}
);
layerId = "169D7F5A-B55B-498B-8A7E-44B3106F6DC0";
shapes = (
{
closed = 1;
nodes = (
(28,0,l),
(132,0,l),
(212,352,l),
(252,524,l),
(256,524,l),
(302,438,l),
(526,0,l),
(600,0,l),
(764,720,l),
(660,720,l),
(582,372,l),
(542,196,l),
(536,196,l),
(492,284,l),
(268,720,l),
(192,720,l)
);
}
);
width = 746;
},
{
anchors = (
{
name = bottom;
position = "{282, 0}";
},
{
name = leghookright;
position = "{520, 0}";
},
{
name = top;
position = "{454, 720}";
}
);
layerId = "1CFA5324-D054-4A76-8DD1-A1279E18B2E8";
shapes = (
{
closed = 1;
nodes = (
(42,0,l),
(74,0,l),
(182,472,l),
(224,660,l),
(228,660,l),
(284,528,l),
(506,0,l),
(536,0,l),
(700,720,l),
(668,720,l),
(562,252,l),
(518,58,l),
(512,58,l),
(458,190,l),
(234,720,l),
(206,720,l)
);
}
);
width = 694;
}
);
leftKerningGroup = LAT_H_UC;
rightKerningGroup = LAT_H_UC;
unicode = 78;
}
{
glyphname = O;
layers = (
{
anchors = (
{
name = bottom;
position = "{340, 0}";
},
{
name = center;
position = "{422, 360}";
},
{
name = horn;
position = "{656, 696}";
},
{
name = ogonek;
position = "{342, 0}";
},
{
name = top;
position = "{504, 720}";
},
{
name = topleft;
position = "{112, 720}";
},
{
name = topright;
position = "{894, 720}";
}
);
layerId = "E1414F7C-7342-42E0-9F1C-475EAD3EF451";
shapes = (
{
closed = 1;
nodes = (
(571,-8,o),
(742,137,o),
(790,350,cs),
(836,552,o),
(688,728,o),
(472,728,cs),
(268,728,o),
(89,575,o),
(52,368,c),
(7,166,o),
(155,-8,o),
(370,-8,cs)
);
},
{
closed = 1;
nodes = (
(273,156,o),
(203,241,o),
(226,348,cs),
(252,468,o),
(357,564,o),
(462,564,cs),
(569,564,o),
(638,480,o),
(616,374,cs),
(591,254,o),
(486,156,o),
(382,156,cs)
);
}
);
width = 798;
},
{
anchors = (
{
name = bottom;
position = "{338, 0}";
},
{
name = center;
position = "{420, 359}";
},
{
name = horn;
position = "{652, 692}";
},
{
name = ogonek;
position = "{339, 0}";
},
{
name = top;
position = "{502, 720}";
},
{
name = topleft;
position = "{128, 720}";
},
{
name = topright;
position = "{876, 720}";
}
);
layerId = "39EADFFA-F378-45E3-ACCF-69574A40D336";
shapes = (
{
closed = 1;
nodes = (
(552,-8,o),
(730,146,o),
(772,350,cs),
(815,561,o),
(688,728,o),
(484,728,cs),
(290,728,o),
(110,571,o),
(68,366,cs),
(26,159,o),
(155,-8,o),
(360,-8,cs)
);
},
{
closed = 1;
nodes = (
(219,90,o),
(137,206,o),
(172,358,cs),
(207,512,o),
(341,632,o),
(478,632,cs),
(619,632,o),
(702,513,o),
(668,360,cs),
(634,205,o),
(502,90,o),
(360,90,cs)
);
}
);
width = 796;
},
{
anchors = (
{
name = bottom;
position = "{336, 0}";
},
{
name = center;
position = "{418, 358}";
},
{
name = horn;
position = "{648, 688}";
},
{
name = ogonek;
position = "{336, 0}";
},
{
name = top;
position = "{500, 720}";
},
{
name = topleft;
position = "{144, 720}";
},
{
name = topright;
position = "{858, 720}";
}
);
layerId = "0FE7234A-0103-4F7B-BAB8-33CF7CB7E092";
shapes = (
{
closed = 1;
nodes = (
(538,-8,o),
(705,141,o),
(752,354,cs),
(799,568,o),
(688,728,o),
(492,728,cs),
(303,728,o),
(129,572,o),
(84,362,cs),
(39,150,o),
(151,-8,o),
(348,-8,cs)
);
},
{
closed = 1;
nodes = (
(173,22,o),
(72,165,o),
(114,358,cs),
(156,551,o),
(320,698,o),
(492,698,cs),
(668,698,o),
(766,554,o),
(722,358,cs),
(678,162,o),
(522,22,o),
(350,22,cs)
);
}
);
width = 790;
}
);
leftKerningGroup = LAT_O_UC;
rightKerningGroup = LAT_O_UC;
unicode = 79;
}
{
glyphname = P;
layers = (
{
anchors = (
{
name = bottom;
position = "{114, 0}";
},
{
name = top;
position = "{436, 720}";
}
);
layerId = "E1414F7C-7342-42E0-9F1C-475EAD3EF451";
shapes = (
{
closed = 1;
nodes = (
(284,560,l),
(404,560,ls),
(456,560,o),
(490,534,o),
(480,478,cs),
(470,420,o),
(422,378,o),
(370,378,cs),
(242,378,l),
(206,220,l),
(352,220,ls),
(518,220,o),
(622,326,o),
(650,458,cs),
(682,616,o),
(586,720,o),
(416,720,cs),
(320,720,l)
);
},
{
closed = 1;
nodes = (
(356,720,l),
(176,720,l),
(12,0,l),
(192,0,l)
);
}
);
width = 640;
},
{
anchors = (
{
name = bottom;
position = "{91, 0}";
},
{
name = top;
position = "{424, 720}";
}
);
layerId = "39EADFFA-F378-45E3-ACCF-69574A40D336";
shapes = (
{
closed = 1;
nodes = (
(252,625,l),
(403,625,ls),
(477,625,o),
(530,587,o),
(513,502,cs),
(498,427,o),
(437,366,o),
(359,366,cs),
(193,366,l),
(172,272,l),
(346,272,ls),
(489,272,o),
(587,367,o),
(613,489,cs),
(643,634,o),
(553,720,o),
(410,720,cs),
(274,720,l)
);
},
{
closed = 1;
nodes = (
(297,720,l),
(191,720,l),
(27,0,l),
(133,0,l)
);
}
);
width = 605;
},
{
anchors = (
{
name = bottom;
position = "{68, 0}";
},
{
name = top;
position = "{412, 720}";
}
);
layerId = "0FE7234A-0103-4F7B-BAB8-33CF7CB7E092";
shapes = (
{
closed = 1;
nodes = (
(220,690,l),
(402,690,ls),
(498,690,o),
(570,640,o),
(546,526,cs),
(526,434,o),
(452,354,o),
(348,354,cs),
(144,354,l),
(138,324,l),
(340,324,ls),
(460,324,o),
(552,408,o),
(576,520,cs),
(604,652,o),
(520,720,o),
(404,720,cs),
(228,720,l)
);
},
{
closed = 1;
nodes = (
(238,720,l),
(206,720,l),
(42,0,l),
(74,0,l)
);
}
);
width = 570;
}
);
leftKerningGroup = LAT_H_UC;
rightKerningGroup = LAT_P_UC;
unicode = 80;
}
{
glyphname = Q;
layers = (
{
anchors = (
{
name = bottom;
position = "{342, 0}";
},
{
name = top;
position = "{506, 720}";
}
);
layerId = "E1414F7C-7342-42E0-9F1C-475EAD3EF451";
shapes = (
{
closed = 1;
nodes = (
(325,10,l),
(396,-51,o),
(480,-105,o),
(587,-160,c),
(744,-55,l),
(621,-20,o),
(519,26,o),
(454,76,c)
);
},
{
alignment = -1;
ref = O;
}
);
width = 806;
},
{
anchors = (
{
name = bottom;
position = "{338, 0}";
},
{
name = top;
position = "{502, 720}";
},
{
name = center;
position = "{420, 359}";
},
{
name = horn;
position = "{652, 692}";
},
{
name = ogonek;
position = "{339, 0}";
},
{
name = topleft;
position = "{127, 720}";
},
{
name = topright;
position = "{877, 720}";
}
);
layerId = "39EADFFA-F378-45E3-ACCF-69574A40D336";
shapes = (
{
closed = 1;
nodes = (
(325,5,l),
(401,-57,o),
(501,-116,o),
(607,-162,c),
(709,-89,l),
(600,-57,o),
(484,-2,o),
(410,52,c)
);
},
{
alignment = -1;
ref = O;
}
);
width = 802;
},
{
anchors = (
{
name = bottom;
position = "{344, 0}";
},
{
name = top;
position = "{504, 720}";
}
);
layerId = "0FE7234A-0103-4F7B-BAB8-33CF7CB7E092";
shapes = (
{
closed = 1;
nodes = (
(326,-2,l),
(411,-65,o),
(534,-130,o),
(635,-165,c),
(659,-136,l),
(562,-106,o),
(427,-39,o),
(346,20,c)
);
},
{
alignment = -1;
ref = O;
}
);
width = 798;
}
);
leftKerningGroup = LAT_O_UC;
rightKerningGroup = LAT_Q_UC;
unicode = 81;
}
{
glyphname = R;
layers = (
{
anchors = (
{
name = bottom;
position = "{286, 0}";
},
{
name = top;
position = "{440, 720}";
}
);
layerId = "E1414F7C-7342-42E0-9F1C-475EAD3EF451";
shapes = (
{
closed = 1;
nodes = (
(284,560,l),
(410,560,ls),
(460,560,o),
(490,532,o),
(480,478,cs),
(470,422,o),
(420,382,o),
(366,382,cs),
(242,382,l),
(210,236,l),
(312,236,ls),
(488,236,o),
(620,328,o),
(652,470,cs),
(684,616,o),
(590,720,o),
(422,720,cs),
(320,720,l)
);
},
{
closed = 1;
nodes = (
(356,720,l),
(176,720,l),
(12,0,l),
(192,0,l)
);
},
{
closed = 1;
nodes = (
(340,262,l),
(414,0,l),
(598,0,l),
(480,368,l)
);
}
);
width = 694;
},
{
anchors = (
{
name = bottom;
position = "{269, 0}";
},
{
name = top;
position = "{420, 720}";
}
);
layerId = "39EADFFA-F378-45E3-ACCF-69574A40D336";
shapes = (
{
closed = 1;
nodes = (
(249,625,l),
(400,626,ls),
(478,627,o),
(526,580,o),
(510,502,cs),
(495,428,o),
(430,370,o),
(348,369,cs),
(190,368,l),
(171,280,l),
(323,281,ls),
(470,282,o),
(585,371,o),
(612,498,cs),
(640,634,o),
(547,722,o),
(409,721,cs),
(271,720,l)
);
},
{
closed = 1;
nodes = (
(297,720,l),
(191,720,l),
(27,0,l),
(133,0,l)
);
},
{
closed = 1;
nodes = (
(335,295,l),
(427,0,l),
(535,0,l),
(418,359,l)
);
}
);
width = 646;
},
{
anchors = (
{
name = bottom;
position = "{252, 0}";
},
{
name = top;
position = "{400, 720}";
}
);
layerId = "0FE7234A-0103-4F7B-BAB8-33CF7CB7E092";
shapes = (
{
closed = 1;
nodes = (
(214,690,l),
(390,692,ls),
(496,694,o),
(562,628,o),
(540,526,cs),
(520,434,o),
(440,358,o),
(330,356,cs),
(138,354,l),
(132,324,l),
(334,326,ls),
(452,328,o),
(550,414,o),
(572,526,cs),
(596,652,o),
(504,724,o),
(396,722,cs),
(222,720,l)
);
},
{
closed = 1;
nodes = (
(238,720,l),
(206,720,l),
(42,0,l),
(74,0,l)
);
},
{
closed = 1;
nodes = (
(330,328,l),
(440,0,l),
(472,0,l),
(356,350,l)
);
}
);
width = 598;
}
);
leftKerningGroup = LAT_H_UC;
rightKerningGroup = LAT_R_UC;
unicode = 82;
}
{
glyphname = S;
layers = (
{
anchors = (
{
name = bottom;
position = "{256, 0}";
},
{
name = top;
position = "{404, 720}";
}
);
layerId = "E1414F7C-7342-42E0-9F1C-475EAD3EF451";
shapes = (
{
closed = 1;
nodes = (
(422,-8,o),
(526,90,o),
(552,202,cs),
(586,346,o),
(468,400,o),
(418,418,cs),
(368,436,o),
(290,458,o),
(300,508,c),
(304,536,o),
(332,568,o),
(372,568,cs),
(412,568,o),
(436,538,o),
(440,510,c),
(618,570,l),
(604,660,o),
(526,728,o),
(394,728,cs),
(260,728,o),
(154,664,o),
(124,540,cs),
(94,418,o),
(164,352,o),
(262,310,cs),
(314,288,o),
(382,268,o),
(374,220,cs),
(370,192,o),
(346,156,o),
(298,156,cs),
(246,156,o),
(208,198,o),
(202,242,c),
(20,178,l),
(28,80,o),
(140,-8,o),
(278,-8,cs)
);
}
);
width = 606;
},
{
anchors = (
{
name = bottom;
position = "{226, 0}";
},
{
name = top;
position = "{388, 720}";
}
);
layerId = "39EADFFA-F378-45E3-ACCF-69574A40D336";
shapes = (
{
closed = 1;
nodes = (
(372,-8,o),
(478,60,o),
(500,182,cs),
(528,332,o),
(398,390,o),
(342,414,cs),
(290,436,o),
(222,468,o),
(238,542,cs),
(248,588,o),
(292,632,o),
(354,632,cs),
(416,632,o),
(458,590,o),
(466,558,c),
(568,594,l),
(550,670,o),
(470,728,o),
(362,728,cs),
(252,728,o),
(160,668,o),
(136,568,cs),
(102,430,o),
(222,360,o),
(282,332,cs),
(332,310,o),
(410,278,o),
(394,194,c),
(384,136,o),
(332,88,o),
(266,88,cs),
(194,88,o),
(138,144,o),
(132,198,c),
(26,162,l),
(36,76,o),
(130,-8,o),
(256,-8,cs)
);
}
);
width = 566;
},
{
anchors = (
{
name = bottom;
position = "{220, 0}";
},
{
name = top;
position = "{370, 720}";
}
);
layerId = "0FE7234A-0103-4F7B-BAB8-33CF7CB7E092";
shapes = (
{
closed = 1;
nodes = (
(344,-8,o),
(430,72,o),
(452,176,cs),
(482,322,o),
(356,360,o),
(284,390,cs),
(216,418,o),
(152,460,o),
(174,556,cs),
(192,638,o),
(264,698,o),
(356,698,cs),
(444,698,o),
(480,644,o),
(490,602,c),
(522,614,l),
(510,666,o),
(456,728,o),
(356,728,cs),
(252,728,o),
(166,664,o),
(142,558,cs),
(118,444,o),
(196,394,o),
(286,356,cs),
(348,330,o),
(446,294,o),
(420,182,cs),
(400,86,o),
(316,22,o),
(226,22,cs),
(144,22,o),
(72,76,o),
(62,146,c),
(28,132,l),
(40,68,o),
(112,-8,o),
(224,-8,cs)
);
}
);
width = 536;
}
);
leftKerningGroup = LAT_S_UC;
rightKerningGroup = LAT_S_UC;
unicode = 83;
}
{
glyphname = T;
layers = (
{
anchors = (
{
name = bottom;
position = "{222, 0}";
},
{
name = cedilla;
position = "{222, 0}";
},
{
name = center;
position = "{296, 328}";
},
{
name = top;
position = "{386, 720}";
}
);
layerId = "EF07516E-CE4D-469D-8301-1491E725ACEB";
shapes = (
{
closed = 1;
nodes = (
(314,0,l),
(446,584,l),
(264,584,l),
(134,0,l)
);
},
{
closed = 1;
nodes = (
(602,560,l),
(640,720,l),
(132,720,l),
(96,560,l)
);
}
);
width = 564;
},
{
anchors = (
{
name = bottom;
position = "{208, 0}";
},
{
name = cedilla;
position = "{208, 0}";
},
{
name = center;
position = "{286, 344}";
},
{
name = top;
position = "{372, 720}";
}
);
layerId = "C82BF5B4-EE1A-4CB4-A2C0-4E66566823BE";
shapes = (
{
closed = 1;
nodes = (
(262,0,l),
(407,641,l),
(300,641,l),
(156,0,l)
);
},
{
closed = 1;
nodes = (
(583,625,l),
(606,720,l),
(137,720,l),
(115,625,l)
);
}
);
width = 533;
},
{
anchors = (
{
name = bottom;
position = "{194, 0}";
},
{
name = cedilla;
position = "{194, 0}";
},
{
name = center;
position = "{276, 360}";
},
{
name = top;
position = "{358, 720}";
}
);
layerId = "960527DE-BC0D-48AB-B834-0D46F4119FDB";
shapes = (
{
closed = 1;
nodes = (
(210,0,l),
(368,698,l),
(336,698,l),
(178,0,l)
);
},
{
closed = 1;
nodes = (
(564,690,l),
(572,720,l),
(142,720,l),
(134,690,l)
);
}
);
width = 502;
}
);
leftKerningGroup = LAT_T_UC;
rightKerningGroup = LAT_T_UC;
unicode = 84;
}
{
glyphname = U;
layers = (
{
anchors = (
{
name = bottom;
position = "{300, 0}";
},
{
name = horn;
position = "{706, 720}";
},
{
name = ogonek;
position = "{300, 0}";
},
{
name = top;
position = "{462, 720}";
}
);
layerId = "9C023954-B0F0-4AC3-996A-DC35BCD11D7C";
shapes = (
{
closed = 1;
nodes = (
(80,294,ls),
(40,116,o),
(146,-8,o),
(324,-8,cs),
(496,-8,o),
(610,96,o),
(650,274,cs),
(750,720,l),
(570,720,l),
(470,278,ls),
(454,206,o),
(410,152,o),
(338,152,cs),
(278,152,o),
(236,188,o),
(252,262,cs),
(356,720,l),
(176,720,l)
);
}
);
width = 720;
},
{
anchors = (
{
name = bottom;
position = "{287, 0}";
},
{
name = horn;
position = "{678, 720}";
},
{
name = ogonek;
position = "{287, 0}";
},
{
name = top;
position = "{450, 720}";
}
);
layerId = "169D7F5A-B55B-498B-8A7E-44B3106F6DC0";
shapes = (
{
closed = 1;
nodes = (
(87,262,ls),
(51,103,o),
(144,-8,o),
(307,-8,cs),
(461,-8,o),
(567,89,o),
(604,252,cs),
(710,720,l),
(604,720,l),
(499,260,ls),
(475,154,o),
(406,87,o),
(312,87,cs),
(223,87,o),
(167,144,o),
(190,248,cs),
(297,720,l),
(191,720,l)
);
}
);
width = 692;
},
{
anchors = (
{
name = bottom;
position = "{274, 0}";
},
{
name = horn;
position = "{650, 720}";
},
{
name = ogonek;
position = "{274, 0}";
},
{
name = top;
position = "{438, 720}";
}
);
layerId = "1CFA5324-D054-4A76-8DD1-A1279E18B2E8";
shapes = (
{
closed = 1;
nodes = (
(94,230,ls),
(62,90,o),
(142,-8,o),
(290,-8,cs),
(426,-8,o),
(524,82,o),
(558,230,cs),
(670,720,l),
(638,720,l),
(528,242,ls),
(496,102,o),
(402,22,o),
(286,22,cs),
(168,22,o),
(98,100,o),
(128,234,cs),
(238,720,l),
(206,720,l)
);
}
);
width = 664;
}
);
leftKerningGroup = LAT_U_UC;
rightKerningGroup = LAT_U_UC;
unicode = 85;
}
{
glyphname = V;
layers = (
{
anchors = (
{
name = bottom;
position = "{310, 0}";
},
{
name = top;
position = "{472, 720}";
}
);
layerId = "EF07516E-CE4D-469D-8301-1491E725ACEB";
shapes = (
{
closed = 1;
nodes = (
(388,0,l),
(836,720,l),
(630,720,l),
(466,438,l),
(360,242,l),
(356,242,l),
(332,438,l),
(296,720,l),
(108,720,l),
(236,0,l)
);
}
);
width = 736;
},
{
anchors = (
{
name = bottom;
position = "{294, 0}";
},
{
name = top;
position = "{454, 720}";
}
);
layerId = "C82BF5B4-EE1A-4CB4-A2C0-4E66566823BE";
shapes = (
{
closed = 1;
nodes = (
(336,0,l),
(794,720,l),
(674,720,l),
(460,366,l),
(328,152,l),
(324,152,l),
(284,366,l),
(228,720,l),
(116,720,l),
(252,0,l)
);
}
);
width = 702;
},
{
anchors = (
{
name = bottom;
position = "{280, 0}";
},
{
name = top;
position = "{440, 720}";
}
);
layerId = "960527DE-BC0D-48AB-B834-0D46F4119FDB";
shapes = (
{
closed = 1;
nodes = (
(292,0,l),
(746,720,l),
(708,720,l),
(442,294,l),
(288,44,l),
(284,44,l),
(242,294,l),
(170,720,l),
(138,720,l),
(264,0,l)
);
}
);
width = 672;
}
);
leftKerningGroup = LAT_V_UC;
rightKerningGroup = LAT_V_UC;
unicode = 86;
}
{
color = 9;
glyphname = W;
layers = (
{
anchors = (
{
name = bottom;
position = "{424, -24}";
},
{
name = top;
position = "{596, 744}";
}
);
layerId = "9C023954-B0F0-4AC3-996A-DC35BCD11D7C";
shapes = (
{
closed = 1;
nodes = (
(116,0,l),
(292,0,l),
(428,236,l),
(518,396,l),
(522,396,l),
(538,236,l),
(568,0,l),
(738,0,l),
(1066,720,l),
(880,720,l),
(762,432,l),
(692,240,l),
(686,240,l),
(672,396,l),
(640,720,l),
(538,720,l),
(360,398,l),
(278,240,l),
(274,240,l),
(284,432,l),
(300,720,l),
(116,720,l)
);
}
);
width = 974;
},
{
anchors = (
{
name = bottom;
position = "{412, 0}";
},
{
name = top;
position = "{576, 720}";
}
);
layerId = "169D7F5A-B55B-498B-8A7E-44B3106F6DC0";
shapes = (
{
closed = 1;
nodes = (
(166,0,l),
(262,0,l),
(376,214,l),
(524,494,l),
(528,494,l),
(550,214,l),
(566,0,l),
(664,0,l),
(1028,720,l),
(922,720,l),
(740,350,l),
(654,164,l),
(650,164,l),
(634,364,l),
(606,720,l),
(548,720,l),
(354,364,l),
(252,164,l),
(248,164,l),
(246,350,l),
(232,720,l),
(124,720,l)
);
}
);
width = 946;
},
{
anchors = (
{
name = bottom;
position = "{388, -24}";
},
{
name = top;
position = "{562, 754}";
}
);
layerId = "1CFA5324-D054-4A76-8DD1-A1279E18B2E8";
shapes = (
{
closed = 1;
nodes = (
(168,0,l),
(208,0,l),
(354,292,l),
(536,658,l),
(540,658,l),
(554,292,l),
(570,0,l),
(608,0,l),
(966,720,l),
(932,720,l),
(722,290,l),
(600,40,l),
(596,40,l),
(586,290,l),
(566,720,l),
(538,720,l),
(322,290,l),
(198,40,l),
(194,40,l),
(186,290,l),
(172,720,l),
(138,720,l)
);
}
);
width = 892;
}
);
leftKerningGroup = LAT_W_UC;
rightKerningGroup = LAT_W_UC;
unicode = 87;
}
{
glyphname = X;
layers = (
{
anchors = (
{
name = bottom;
position = "{320, 0}";
},
{
name = top;
position = "{484, 720}";
}
);
layerId = "9C023954-B0F0-4AC3-996A-DC35BCD11D7C";
shapes = (
{
closed = 1;
nodes = (
(196,0,l),
(380,224,l),
(382,224,l),
(522,346,l),
(522,348,l),
(832,720,l),
(610,720,l),
(424,478,l),
(420,478,l),
(282,372,l),
(282,370,l),
(-34,0,l)
);
},
{
closed = 1;
nodes = (
(668,0,l),
(522,344,l),
(522,346,l),
(426,478,l),
(422,478,l),
(336,720,l),
(142,720,l),
(282,374,l),
(282,372,l),
(378,224,l),
(382,224,l),
(474,0,l)
);
}
);
width = 758;
},
{
anchors = (
{
name = bottom;
position = "{284, 0}";
},
{
name = top;
position = "{448, 720}";
}
);
layerId = "169D7F5A-B55B-498B-8A7E-44B3106F6DC0";
shapes = (
{
closed = 1;
nodes = (
(113,0,l),
(355,280,l),
(358,280,l),
(438,351,l),
(438,354,l),
(752,720,l),
(622,720,l),
(380,431,l),
(376,431,l),
(298,368,l),
(298,365,l),
(-22,0,l)
);
},
{
closed = 1;
nodes = (
(588,0,l),
(438,351,l),
(438,354,l),
(382,431,l),
(378,431,l),
(261,720,l),
(148,720,l),
(298,368,l),
(298,365,l),
(353,280,l),
(357,280,l),
(474,0,l)
);
}
);
width = 686;
},
{
anchors = (
{
name = bottom;
position = "{248, 0}";
},
{
name = top;
position = "{412, 720}";
}
);
layerId = "1CFA5324-D054-4A76-8DD1-A1279E18B2E8";
shapes = (
{
closed = 1;
nodes = (
(30,0,l),
(330,336,l),
(334,336,l),
(354,356,l),
(354,360,l),
(672,720,l),
(634,720,l),
(336,384,l),
(332,384,l),
(314,364,l),
(314,360,l),
(-10,0,l)
);
},
{
closed = 1;
nodes = (
(508,0,l),
(354,358,l),
(354,362,l),
(338,384,l),
(334,384,l),
(186,720,l),
(154,720,l),
(314,362,l),
(314,358,l),
(328,336,l),
(332,336,l),
(474,0,l)
);
}
);
width = 614;
}
);
leftKerningGroup = LAT_X_UC;
rightKerningGroup = LAT_X_UC;
unicode = 88;
}
{
glyphname = Y;
layers = (
{
anchors = (
{
name = bottom;
position = "{276, 0}";
},
{
name = top;
position = "{426, 720}";
}
);
layerId = "EF07516E-CE4D-469D-8301-1491E725ACEB";
shapes = (
{
closed = 1;
nodes = (
(186,0,l),
(366,0,l),
(426,258,l),
(772,720,l),
(548,720,l),
(464,586,l),
(372,442,l),
(366,442,l),
(332,586,l),
(296,720,l),
(108,720,l),
(248,270,l)
);
}
);
width = 672;
},
{
anchors = (
{
name = bottom;
position = "{255, 0}";
},
{
name = top;
position = "{411, 720}";
}
);
layerId = "C82BF5B4-EE1A-4CB4-A2C0-4E66566823BE";
shapes = (
{
closed = 1;
nodes = (
(202,0,l),
(308,0,l),
(375,293,l),
(715,720,l),
(583,720,l),
(452,548,l),
(345,404,l),
(340,404,l),
(292,548,l),
(231,720,l),
(121,720,l),
(271,301,l)
);
}
);
width = 628;
},
{
anchors = (
{
name = bottom;
position = "{234, 0}";
},
{
name = top;
position = "{396, 720}";
}
);
layerId = "960527DE-BC0D-48AB-B834-0D46F4119FDB";
shapes = (
{
closed = 1;
nodes = (
(218,0,l),
(250,0,l),
(324,328,l),
(658,720,l),
(618,720,l),
(440,510,l),
(318,366,l),
(314,366,l),
(252,510,l),
(166,720,l),
(134,720,l),
(294,332,l)
);
}
);
width = 584;
}
);
leftKerningGroup = LAT_Y_UC;
rightKerningGroup = LAT_Y_UC;
unicode = 89;
}
{
glyphname = Z;
layers = (
{
anchors = (
{
name = bottom;
position = "{250, 0}";
},
{
name = top;
position = "{414, 720}";
}
);
layerId = "9C023954-B0F0-4AC3-996A-DC35BCD11D7C";
shapes = (
{
closed = 1;
nodes = (
(-20,0,l),
(524,0,l),
(560,158,l),
(282,158,l),
(284,160,l),
(670,694,l),
(676,720,l),
(148,720,l),
(110,562,l),
(372,562,l),
(370,560,l),
(-16,24,l)
);
}
);
width = 620;
},
{
anchors = (
{
name = bottom;
position = "{253, 0}";
},
{
name = top;
position = "{415, 720}";
}
);
layerId = "169D7F5A-B55B-498B-8A7E-44B3106F6DC0";
shapes = (
{
closed = 1;
nodes = (
(-5,0,l),
(498,0,l),
(519,94,l),
(172,94,l),
(174,96,l),
(644,698,l),
(649,720,l),
(169,720,l),
(146,626,l),
(469,626,l),
(468,624,l),
(-1,21,l)
);
}
);
width = 609;
},
{
anchors = (
{
name = bottom;
position = "{256, 0}";
},
{
name = top;
position = "{416, 720}";
}
);
layerId = "1CFA5324-D054-4A76-8DD1-A1279E18B2E8";
shapes = (
{
closed = 1;
nodes = (
(10,0,l),
(472,0,l),
(478,30,l),
(62,30,l),
(64,32,l),
(618,702,l),
(622,720,l),
(190,720,l),
(182,690,l),
(566,690,l),
(566,688,l),
(14,18,l)
);
}
);
width = 598;
}
);
leftKerningGroup = LAT_Z_UC;
rightKerningGroup = LAT_Z_UC;
unicode = 90;
}
{
glyphname = bracketleft;
layers = (
{
layerId = "EF07516E-CE4D-469D-8301-1491E725ACEB";
shapes = (
{
closed = 1;
nodes = (
(-8,-146,l),
(230,-146,l),
(258,-30,l),
(152,-30,l),
(316,698,l),
(422,698,l),
(448,812,l),
(210,812,l)
);
}
);
width = 380;
},
{
layerId = "C82BF5B4-EE1A-4CB4-A2C0-4E66566823BE";
shapes = (
{
closed = 1;
nodes = (
(-4,-146,l),
(195,-146,l),
(213,-74,l),
(96,-74,l),
(280,741,l),
(397,741,l),
(413,812,l),
(214,812,l)
);
}
);
width = 332;
},
{
layerId = "960527DE-BC0D-48AB-B834-0D46F4119FDB";
shapes = (
{
closed = 1;
nodes = (
(0,-146,l),
(160,-146,l),
(168,-118,l),
(40,-118,l),
(244,784,l),
(372,784,l),
(378,812,l),
(218,812,l)
);
}
);
width = 284;
}
);
rightKerningGroup = PCT_BRACELEFT;
unicode = 91;
}
{
glyphname = backslash;
layers = (
{
layerId = "E1414F7C-7342-42E0-9F1C-475EAD3EF451";
shapes = (
{
closed = 1;
nodes = (
(282,-146,l),
(404,-146,l),
(222,812,l),
(100,812,l)
);
}
);
width = 474;
},
{
layerId = "39EADFFA-F378-45E3-ACCF-69574A40D336";
shapes = (
{
closed = 1;
nodes = (
(279,-146,l),
(355,-146,l),
(175,812,l),
(100,812,l)
);
}
);
width = 422;
},
{
layerId = "0FE7234A-0103-4F7B-BAB8-33CF7CB7E092";
shapes = (
{
closed = 1;
nodes = (
(276,-146,l),
(306,-146,l),
(128,812,l),
(100,812,l)
);
}
);
width = 370;
}
);
leftKerningGroup = PCT_BACKSLASHSS10;
rightKerningGroup = PCT_BACKSLASHSS10;
unicode = 92;
}
{
glyphname = bracketright;
layers = (
{
layerId = "9C023954-B0F0-4AC3-996A-DC35BCD11D7C";
shapes = (
{
closed = 1;
nodes = (
(181,812,l),
(155,698,l),
(261,698,l),
(94,-30,l),
(-12,-30,l),
(-36,-146,l),
(202,-146,l),
(419,812,l)
);
}
);
width = 380;
},
{
layerId = "169D7F5A-B55B-498B-8A7E-44B3106F6DC0";
shapes = (
{
closed = 1;
nodes = (
(170,812,l),
(154,741,l),
(271,741,l),
(84,-74,l),
(-33,-74,l),
(-47,-146,l),
(152,-146,l),
(369,812,l)
);
}
);
width = 332;
},
{
layerId = "1CFA5324-D054-4A76-8DD1-A1279E18B2E8";
shapes = (
{
closed = 1;
nodes = (
(159,812,l),
(152,784,l),
(280,784,l),
(74,-118,l),
(-54,-118,l),
(-58,-146,l),
(102,-146,l),
(319,812,l)
);
}
);
width = 284;
}
);
leftKerningGroup = PCT_BRACERIGHT;
rightKerningGroup = LAT_H_UC;
unicode = 93;
}
{
glyphname = asciicircum;
layers = (
{
layerId = "EF07516E-CE4D-469D-8301-1491E725ACEB";
shapes = (
{
closed = 1;
nodes = (
(64,364,l),
(218,364,l),
(270,466,l),
(354,614,l),
(358,614,l),
(376,466,l),
(382,364,l),
(532,364,l),
(452,764,l),
(324,764,l)
);
}
);
width = 552;
},
{
layerId = "C82BF5B4-EE1A-4CB4-A2C0-4E66566823BE";
shapes = (
{
closed = 1;
nodes = (
(79,361,l),
(173,361,l),
(267,526,l),
(351,672,l),
(355,672,l),
(374,526,l),
(392,361,l),
(483,361,l),
(414,762,l),
(330,762,l)
);
}
);
width = 518;
},
{
layerId = "960527DE-BC0D-48AB-B834-0D46F4119FDB";
shapes = (
{
closed = 1;
nodes = (
(94,358,l),
(128,358,l),
(264,586,l),
(348,730,l),
(352,730,l),
(372,586,l),
(402,358,l),
(434,358,l),
(376,760,l),
(336,760,l)
);
}
);
width = 484;
}
);
unicode = 94;
}
{
glyphname = underscore;
layers = (
{
layerId = "9C023954-B0F0-4AC3-996A-DC35BCD11D7C";
shapes = (
{
closed = 1;
nodes = (
(-74,-146,l),
(412,-146,l),
(436,-42,l),
(-50,-42,l)
);
}
);
width = 526;
},
{
layerId = "169D7F5A-B55B-498B-8A7E-44B3106F6DC0";
shapes = (
{
closed = 1;
nodes = (
(-73,-146,l),
(413,-146,l),
(429,-79,l),
(-57,-79,l)
);
}
);
width = 526;
},
{
layerId = "1CFA5324-D054-4A76-8DD1-A1279E18B2E8";
shapes = (
{
closed = 1;
nodes = (
(-72,-146,l),
(414,-146,l),
(422,-116,l),
(-64,-116,l)
);
}
);
width = 526;
}
);
leftKerningGroup = PCT_UNDERSCORE;
rightKerningGroup = PCT_UNDERSCORE;
unicode = 95;
}
{
color = 4;
glyphname = a;
rightMetricsKey = "=112";
layers = (
{
anchors = (
{
name = bottom;
position = "{264, 0}";
},
{
name = center;
position = "{322, 264}";
},
{
name = ogonek;
position = "{512, 0}";
},
{
name = top;
position = "{390, 528}";
},
{
name = topright;
position = "{668, 528}";
}
);
layerId = "9C023954-B0F0-4AC3-996A-DC35BCD11D7C";
shapes = (
{
closed = 1;
nodes = (
(506,0,l),
(628,528,l),
(464,528,l),
(450,470,l),
(432,470,l),
(438,420,l),
(358,88,l),
(340,62,l),
(358,62,l),
(344,0,l)
);
},
{
closed = 1;
nodes = (
(328,-8,o),
(446,94,o),
(480,244,cs),
(516,400,o),
(442,536,o),
(308,536,cs),
(212,536,o),
(78,468,o),
(36,280,cs),
(-4,102,o),
(82,-8,o),
(208,-8,cs)
);
},
{
closed = 1;
nodes = (
(213,136,o),
(185,181,o),
(198,252,cs),
(212,331,o),
(265,392,o),
(330,392,cs),
(385,392,o),
(413,347,o),
(402,278,c),
(388,206,o),
(341,136,o),
(270,136,cs)
);
}
);
width = 630;
},
{
anchors = (
{
name = bottom;
position = "{262, 0}";
},
{
name = center;
position = "{326, 262}";
},
{
name = ogonek;
position = "{430, -2}";
},
{
name = top;
position = "{390, 520}";
},
{
name = topright;
position = "{678, 520}";
}
);
layerId = "169D7F5A-B55B-498B-8A7E-44B3106F6DC0";
shapes = (
{
closed = 1;
nodes = (
(468,0,l),
(588,520,l),
(484,520,l),
(470,460,l),
(456,460,l),
(470,430,l),
(390,90,l),
(366,60,l),
(378,60,l),
(364,0,l)
);
},
{
closed = 1;
nodes = (
(362,-8,o),
(464,116,o),
(494,256,cs),
(526,408,o),
(458,528,o),
(322,528,cs),
(198,528,o),
(80,428,o),
(48,276,cs),
(12,108,o),
(110,-8,o),
(234,-8,cs)
);
},
{
closed = 1;
nodes = (
(166,84,o),
(122,160,o),
(144,260,cs),
(166,358,o),
(234,436,o),
(320,436,cs),
(402,436,o),
(452,364,o),
(430,262,cs),
(410,168,o),
(340,84,o),
(252,84,cs)
);
}
);
width = 641;
},
{
anchors = (
{
name = bottom;
position = "{188, 0}";
},
{
name = center;
position = "{256, 256}";
},
{
name = ogonek;
position = "{412, 0}";
},
{
name = top;
position = "{334, 512}";
},
{
name = topright;
position = "{598, 512}";
}
);
layerId = "1CFA5324-D054-4A76-8DD1-A1279E18B2E8";
shapes = (
{
closed = 1;
nodes = (
(438,0,l),
(554,512,l),
(524,512,l),
(498,396,l),
(488,396,l),
(494,372,l),
(442,140,l),
(422,116,l),
(434,116,l),
(408,0,l)
);
},
{
closed = 1;
nodes = (
(336,-8,o),
(452,66,o),
(492,252,cs),
(530,430,o),
(452,520,o),
(330,520,cs),
(194,520,o),
(92,408,o),
(60,256,cs),
(24,92,o),
(100,-8,o),
(226,-8,cs)
);
},
{
closed = 1;
nodes = (
(126,20,o),
(56,100,o),
(88,250,cs),
(120,392,o),
(218,492,o),
(328,492,cs),
(434,492,o),
(498,402,o),
(466,256,cs),
(434,110,o),
(336,20,o),
(228,20,cs)
);
}
);
width = 608;
}
);
leftKerningGroup = LAT_O_LC;
rightKerningGroup = LAT_A_LC;
unicode = 97;
}
{
glyphname = b;
layers = (
{
anchors = (
{
name = bottom;
position = "{254, 0}";
},
{
name = center;
position = "{232, 634}";
},
{
name = top;
position = "{458, 568}";
}
);
layerId = "E1414F7C-7342-42E0-9F1C-475EAD3EF451";
shapes = (
{
closed = 1;
nodes = (
(0,0,l),
(164,0,l),
(178,66,l),
(198,66,l),
(190,132,l),
(264,440,l),
(300,496,l),
(286,496,l),
(337,720,l),
(163,720,l)
);
},
{
closed = 1;
nodes = (
(422,-8,o),
(548,64,o),
(590,246,cs),
(634,438,o),
(538,536,o),
(418,536,cs),
(292,536,o),
(178,426,o),
(146,284,cs),
(112,128,o),
(190,-8,o),
(324,-8,cs)
);
},
{
closed = 1;
nodes = (
(241,136,o),
(213,181,o),
(226,252,cs),
(240,331,o),
(293,392,o),
(358,392,cs),
(413,392,o),
(441,347,o),
(430,278,c),
(416,206,o),
(369,136,o),
(298,136,cs)
);
}
);
width = 626;
},
{
anchors = (
{
name = bottom;
position = "{250, 0}";
},
{
name = center;
position = "{206, 626}";
},
{
name = top;
position = "{428, 566}";
}
);
layerId = "39EADFFA-F378-45E3-ACCF-69574A40D336";
shapes = (
{
closed = 1;
nodes = (
(12,0,l),
(114,0,l),
(130,66,l),
(148,66,l),
(132,122,l),
(202,422,l),
(230,468,l),
(222,468,l),
(279,720,l),
(177,720,l)
);
},
{
closed = 1;
nodes = (
(406,-8,o),
(524,104,o),
(556,250,cs),
(592,418,o),
(494,528,o),
(376,528,cs),
(248,528,o),
(140,410,o),
(108,266,cs),
(72,110,o),
(144,-8,o),
(274,-8,cs)
);
},
{
closed = 1;
nodes = (
(191,84,o),
(145,156,o),
(168,260,cs),
(189,355,o),
(262,436,o),
(352,436,cs),
(432,436,o),
(480,363,o),
(458,262,cs),
(436,166,o),
(362,84,o),
(274,84,cs)
);
}
);
width = 602;
},
{
anchors = (
{
name = bottom;
position = "{226, 0}";
},
{
name = center;
position = "{180, 616}";
},
{
name = top;
position = "{376, 564}";
}
);
layerId = "0FE7234A-0103-4F7B-BAB8-33CF7CB7E092";
shapes = (
{
closed = 1;
nodes = (
(26,0,l),
(56,0,l),
(82,116,l),
(90,116,l),
(86,156,l),
(136,372,l),
(156,416,l),
(150,416,l),
(219,720,l),
(189,720,l)
);
},
{
closed = 1;
nodes = (
(390,-8,o),
(486,104,o),
(518,256,cs),
(556,432,o),
(476,520,o),
(352,520,cs),
(228,520,o),
(122,432,o),
(86,262,cs),
(48,84,o),
(130,-8,o),
(254,-8,cs)
);
},
{
closed = 1;
nodes = (
(146,20,o),
(82,110,o),
(112,256,cs),
(144,410,o),
(248,492,o),
(352,492,cs),
(460,492,o),
(522,408,o),
(488,258,cs),
(456,116,o),
(364,20,o),
(254,20,cs)
);
}
);
width = 574;
}
);
leftKerningGroup = LAT_H_UC;
rightKerningGroup = LAT_O_LC;
unicode = 98;
}
{
glyphname = c;
layers = (
{
anchors = (
{
name = base;
position = "{358, 0}";
},
{
name = bottom;
position = "{248, 0}";
},
{
name = cedilla;
position = "{254, 0}";
},
{
name = top;
position = "{374, 528}";
}
);
layerId = "EF07516E-CE4D-469D-8301-1491E725ACEB";
shapes = (
{
closed = 1;
nodes = (
(322,-6,o),
(380,8,o),
(416,30,c),
(382,182,l),
(356,160,o),
(322,142,o),
(282,142,cs),
(222,142,o),
(184,182,o),
(192,252,cs),
(200,322,o),
(252,388,o),
(324,388,cs),
(356,388,o),
(400,372,o),
(414,352,c),
(502,480,l),
(466,508,o),
(404,536,o),
(334,536,cs),
(190,536,o),
(72,432,o),
(38,290,cs),
(0,128,o),
(100,-6,o),
(268,-6,cs)
);
}
);
width = 488;
},
{
anchors = (
{
name = base;
position = "{356, 0}";
},
{
name = bottom;
position = "{242, 0}";
},
{
name = cedilla;
position = "{248, 0}";
},
{
name = top;
position = "{364, 520}";
}
);
layerId = "C82BF5B4-EE1A-4CB4-A2C0-4E66566823BE";
shapes = (
{
closed = 1;
nodes = (
(318,-6,o),
(372,12,o),
(422,44,c),
(402,134,l),
(370,108,o),
(314,86,o),
(266,86,cs),
(176,86,o),
(126,160,o),
(148,260,c),
(170,366,o),
(256,436,o),
(338,436,cs),
(382,436,o),
(432,416,o),
(450,392,c),
(504,476,l),
(472,506,o),
(414,528,o),
(344,528,cs),
(178,528,o),
(72,400,o),
(46,270,cs),
(14,116,o),
(104,-6,o),
(260,-6,cs)
);
}
);
width = 502;
},
{
anchors = (
{
name = base;
position = "{336, 0}";
},
{
name = bottom;
position = "{224, 0}";
},
{
name = cedilla;
position = "{232, 0}";
},
{
name = top;
position = "{340, 512}";
}
);
layerId = "960527DE-BC0D-48AB-B834-0D46F4119FDB";
shapes = (
{
closed = 1;
nodes = (
(296,-6,o),
(354,14,o),
(404,52,c),
(396,84,l),
(360,50,o),
(298,22,o),
(240,22,cs),
(126,22,o),
(54,134,o),
(86,264,cs),
(118,394,o),
(234,492,o),
(348,492,cs),
(392,492,o),
(450,472,o),
(472,440,c),
(490,466,l),
(458,498,o),
(404,520,o),
(350,520,cs),
(222,520,o),
(92,416,o),
(58,266,cs),
(22,108,o),
(114,-6,o),
(240,-6,cs)
);
}
);
width = 498;
}
);
leftKerningGroup = LAT_O_LC;
rightKerningGroup = LAT_C_LC;
unicode = 99;
}
{
color = 4;
glyphname = d;
rightMetricsKey = "=54";
layers = (
{
anchors = (
{
name = bottom;
position = "{272, 0}";
},
{
name = center;
position = "{578, 634}";
},
{
name = leghookretroflex;
position = "{446, 0}";
},
{
name = top;
position = "{604, 752}";
},
{
name = topright;
position = "{686, 752}";
}
);
layerId = "E1414F7C-7342-42E0-9F1C-475EAD3EF451";
shapes = (
{
closed = 1;
nodes = (
(489,720,l),
(438,480,l),
(426,480,l),
(428,398,l),
(370,110,l),
(342,62,l),
(362,62,l),
(348,0,l),
(512,0,l),
(663,720,l)
);
},
{
closed = 1;
nodes = (
(330,-8,o),
(448,94,o),
(482,244,cs),
(518,400,o),
(444,536,o),
(310,536,cs),
(214,536,o),
(80,468,o),
(38,280,cs),
(-2,102,o),
(84,-8,o),
(210,-8,cs)
);
},
{
closed = 1;
nodes = (
(215,136,o),
(187,181,o),
(200,252,cs),
(214,331,o),
(267,392,o),
(332,392,cs),
(387,392,o),
(415,347,o),
(404,278,c),
(390,206,o),
(343,136,o),
(272,136,cs)
);
}
);
width = 626;
},
{
anchors = (
{
name = bottom;
position = "{212, 0}";
},
{
name = center;
position = "{684, 624}";
},
{
name = leghookretroflex;
position = "{400, 0}";
},
{
name = top;
position = "{742, 752}";
},
{
name = topright;
position = "{872, 752}";
}
);
layerId = "39EADFFA-F378-45E3-ACCF-69574A40D336";
shapes = (
{
closed = 1;
nodes = (
(531,720,l),
(472,460,l),
(462,460,l),
(462,404,l),
(394,94,l),
(370,62,l),
(382,62,l),
(368,0,l),
(470,0,l),
(633,720,l)
);
},
{
closed = 1;
nodes = (
(362,-8,o),
(464,116,o),
(494,256,cs),
(526,408,o),
(458,528,o),
(322,528,cs),
(198,528,o),
(80,428,o),
(48,276,cs),
(12,108,o),
(110,-8,o),
(234,-8,cs)
);
},
{
closed = 1;
nodes = (
(166,84,o),
(122,160,o),
(144,260,cs),
(166,358,o),
(234,436,o),
(320,436,cs),
(402,436,o),
(452,364,o),
(430,262,cs),
(410,168,o),
(340,84,o),
(252,84,cs)
);
}
);
width = 602;
},
{
anchors = (
{
name = bottom;
position = "{258, 0}";
},
{
name = center;
position = "{594, 616}";
},
{
name = leghookretroflex;
position = "{452, 0}";
},
{
name = top;
position = "{624, 752}";
},
{
name = topright;
position = "{640, 752}";
}
);
layerId = "0FE7234A-0103-4F7B-BAB8-33CF7CB7E092";
shapes = (
{
closed = 1;
nodes = (
(565,720,l),
(496,394,l),
(492,394,l),
(494,364,l),
(444,132,l),
(428,116,l),
(438,116,l),
(414,0,l),
(444,0,l),
(595,720,l)
);
},
{
closed = 1;
nodes = (
(338,-8,o),
(454,66,o),
(494,252,cs),
(532,430,o),
(454,520,o),
(332,520,cs),
(196,520,o),
(94,408,o),
(62,256,cs),
(26,92,o),
(102,-8,o),
(228,-8,cs)
);
},
{
closed = 1;
nodes = (
(128,20,o),
(58,100,o),
(90,250,cs),
(122,392,o),
(220,492,o),
(330,492,cs),
(436,492,o),
(500,402,o),
(468,256,cs),
(436,110,o),
(338,20,o),
(230,20,cs)
);
}
);
width = 614;
}
);
leftKerningGroup = LAT_O_LC;
rightKerningGroup = LAT_D_LC;
unicode = 100;
}
{
glyphname = e;
layers = (
{
anchors = (
{
name = bottom;
position = "{248, 0}";
},
{
name = cedilla;
position = "{252, 0}";
},
{
name = ogonek;
position = "{426, 34}";
},
{
name = top;
position = "{352, 528}";
}
);
layerId = "9C023954-B0F0-4AC3-996A-DC35BCD11D7C";
shapes = (
{
closed = 1;
nodes = (
(336,-8,o),
(392,4,o),
(434,24,c),
(406,158,l),
(386,146,o),
(334,126,o),
(288,126,cs),
(226,126,o),
(168,162,o),
(176,250,cs),
(182,310,o),
(222,410,o),
(316,410,cs),
(357,410,o),
(374,402,o),
(374,382,cs),
(374,341,o),
(333,318,o),
(283,318,cs),
(182,318,l),
(158,214,l),
(305,214,ls),
(431,214,o),
(509,274,o),
(511,364,cs),
(513,465,o),
(441,536,o),
(324,536,cs),
(194,536,o),
(70,446,o),
(36,280,cs),
(2,108,o),
(96,-8,o),
(278,-8,cs)
);
}
);
width = 532;
},
{
anchors = (
{
name = bottom;
position = "{238, 0}";
},
{
name = cedilla;
position = "{234, 0}";
},
{
name = ogonek;
position = "{420, 40}";
},
{
name = top;
position = "{348, 520}";
}
);
layerId = "169D7F5A-B55B-498B-8A7E-44B3106F6DC0";
shapes = (
{
closed = 1;
nodes = (
(326,-8,o),
(380,10,o),
(428,40,c),
(404,130,l),
(370,104,o),
(332,80,o),
(272,80,cs),
(160,80,o),
(120,158,o),
(138,260,cs),
(154,354,o),
(216,440,o),
(312,440,cs),
(359,440,o),
(416,425,o),
(417,388,cs),
(418,310,o),
(309,304,o),
(257,304,cs),
(128,304,l),
(110,224,l),
(251,224,ls),
(411,224,o),
(520,286,o),
(521,388,c),
(521,473,o),
(428,528,o),
(322,528,cs),
(188,528,o),
(80,432,o),
(48,278,cs),
(12,104,o),
(106,-8,o),
(264,-8,cs)
);
}
);
width = 560;
},
{
anchors = (
{
name = bottom;
position = "{226, 0}";
},
{
name = cedilla;
position = "{220, 0}";
},
{
name = ogonek;
position = "{376, 38}";
},
{
name = top;
position = "{338, 512}";
}
);
layerId = "1CFA5324-D054-4A76-8DD1-A1279E18B2E8";
shapes = (
{
closed = 1;
nodes = (
(314,-8,o),
(372,20,o),
(410,50,c),
(402,78,l),
(358,46,o),
(308,20,o),
(240,20,cs),
(120,20,o),
(56,114,o),
(86,254,cs),
(114,388,o),
(212,492,o),
(324,492,cs),
(388,492,o),
(457,463,o),
(458,406,cs),
(460,328,o),
(352,274,o),
(208,274,cs),
(84,274,l),
(76,246,l),
(209,246,ls),
(371,246,o),
(492,306,o),
(491,402,cs),
(491,480,o),
(410,520,o),
(326,520,cs),
(194,520,o),
(86,410,o),
(56,256,cs),
(26,96,o),
(100,-8,o),
(238,-8,cs)
);
}
);
width = 521;
}
);
leftKerningGroup = LAT_O_LC;
rightKerningGroup = LAT_E_LC;
unicode = 101;
}
{
glyphname = f;
layers = (
{
anchors = (
{
name = bottom;
position = "{150, 0}";
},
{
name = top;
position = "{386, 752}";
},
{
name = center;
position = "{-184, 278}";
}
);
layerId = "9C023954-B0F0-4AC3-996A-DC35BCD11D7C";
shapes = (
{
closed = 1;
nodes = (
(434,380,l),
(470,528,l),
(82,528,l),
(46,380,l)
);
},
{
closed = 1;
nodes = (
(122,-218,o),
(201,-136,o),
(227,-14,cs),
(348,528,ls),
(357,570,o),
(382,596,o),
(416,596,cs),
(426,596,o),
(444,592,o),
(458,584,c),
(538,720,l),
(508,736,o),
(456,748,o),
(406,748,cs),
(278,748,o),
(208,670,o),
(180,548,cs),
(54,-10,ls),
(49,-36,o),
(24,-64,o),
(-18,-64,cs),
(-26,-64,o),
(-46,-64,o),
(-58,-60,c),
(-86,-208,l),
(-62,-214,o),
(-36,-218,o),
(-6,-218,cs)
);
}
);
width = 450;
},
{
anchors = (
{
name = bottom;
position = "{120, 0}";
},
{
name = top;
position = "{382, 752}";
}
);
layerId = "169D7F5A-B55B-498B-8A7E-44B3106F6DC0";
shapes = (
{
closed = 1;
nodes = (
(390,430,l),
(412,520,l),
(94,520,l),
(70,430,l)
);
},
{
closed = 1;
nodes = (
(73,-214,o),
(134,-150,o),
(154,-62,cs),
(299,572,ls),
(309,616,o),
(335,644,o),
(377,644,cs),
(399,644,o),
(411,640,o),
(421,636,c),
(473,720,l),
(447,732,o),
(417,738,o),
(383,738,cs),
(283,738,o),
(222,678,o),
(201,588,cs),
(55,-46,ls),
(44,-94,o),
(13,-118,o),
(-29,-118,cs),
(-41,-118,o),
(-57,-116,o),
(-71,-110,c),
(-89,-208,l),
(-75,-212,o),
(-59,-214,o),
(-39,-214,cs)
);
}
);
width = 392;
},
{
anchors = (
{
name = bottom;
position = "{94, 0}";
},
{
name = top;
position = "{352, 752}";
},
{
name = center;
position = "{124, 278}";
}
);
layerId = "1CFA5324-D054-4A76-8DD1-A1279E18B2E8";
shapes = (
{
closed = 1;
nodes = (
(344,484,l),
(350,512,l),
(110,512,l),
(102,484,l)
);
},
{
closed = 1;
nodes = (
(17,-224,o),
(70,-162,o),
(88,-80,cs),
(241,592,ls),
(254,650,o),
(283,706,o),
(347,706,cs),
(363,706,o),
(385,702,o),
(395,694,c),
(411,720,l),
(395,730,o),
(371,734,o),
(351,734,cs),
(273,734,o),
(230,672,o),
(211,590,c),
(57,-82,l),
(44,-140,o),
(3,-194,o),
(-63,-194,cs),
(-71,-194,o),
(-83,-192,o),
(-95,-188,c),
(-99,-220,l),
(-87,-222,o),
(-73,-224,o),
(-63,-224,cs)
);
}
);
width = 342;
}
);
leftKerningGroup = LAT_F_LC;
rightKerningGroup = LAT_F_LC;
unicode = 102;
}
{
glyphname = g;
layers = (
{
anchors = (
{
name = bottom;
position = "{206, -206}";
},
{
name = top;
position = "{362, 528}";
}
);
layerId = "EF07516E-CE4D-469D-8301-1491E725ACEB";
shapes = (
{
closed = 1;
nodes = (
(348,-214,o),
(480,-134,o),
(516,26,cs),
(630,528,l),
(474,528,l),
(458,462,l),
(420,462,l),
(442,420,l),
(370,112,l),
(348,66,l),
(362,66,l),
(354,32,ls),
(338,-35,o),
(272,-70,o),
(202,-70,cs),
(144,-70,o),
(90,-50,o),
(60,-26,c),
(-18,-152,l),
(20,-178,o),
(92,-214,o),
(194,-214,cs)
);
},
{
closed = 1;
nodes = (
(328,-8,o),
(446,94,o),
(480,244,cs),
(516,400,o),
(442,536,o),
(308,536,cs),
(212,536,o),
(78,468,o),
(36,280,cs),
(-4,102,o),
(82,-8,o),
(208,-8,cs)
);
},
{
closed = 1;
nodes = (
(213,136,o),
(185,181,o),
(198,252,cs),
(212,331,o),
(265,392,o),
(330,392,cs),
(385,392,o),
(413,347,o),
(402,278,c),
(388,206,o),
(341,136,o),
(270,136,cs)
);
}
);
width = 630;
},
{
anchors = (
{
name = bottom;
position = "{196, -206}";
},
{
name = top;
position = "{354, 520}";
}
);
layerId = "C82BF5B4-EE1A-4CB4-A2C0-4E66566823BE";
shapes = (
{
closed = 1;
nodes = (
(334,-214,o),
(443,-134,o),
(476,10,cs),
(592,520,l),
(492,520,l),
(474,448,l),
(448,448,l),
(464,384,l),
(404,122,l),
(368,60,l),
(386,60,l),
(378,16,ls),
(362,-74,o),
(282,-124,o),
(194,-124,cs),
(126,-124,o),
(68,-92,o),
(44,-72,c),
(-10,-158,l),
(24,-180,o),
(102,-214,o),
(192,-214,cs)
);
},
{
closed = 1;
nodes = (
(362,-8,o),
(464,116,o),
(494,256,cs),
(526,408,o),
(458,528,o),
(322,528,cs),
(198,528,o),
(80,428,o),
(48,276,cs),
(12,108,o),
(110,-8,o),
(234,-8,cs)
);
},
{
closed = 1;
nodes = (
(166,84,o),
(122,160,o),
(144,260,cs),
(166,358,o),
(234,436,o),
(320,436,cs),
(402,436,o),
(452,364,o),
(430,262,cs),
(410,168,o),
(340,84,o),
(252,84,cs)
);
}
);
width = 612;
},
{
anchors = (
{
name = bottom;
position = "{184, -206}";
},
{
name = top;
position = "{344, 512}";
}
);
layerId = "960527DE-BC0D-48AB-B834-0D46F4119FDB";
shapes = (
{
closed = 1;
nodes = (
(262,-212,o),
(396,-158,o),
(432,2,cs),
(548,512,l),
(518,512,l),
(492,396,l),
(488,396,l),
(490,374,l),
(434,138,l),
(420,98,l),
(424,98,l),
(402,4,ls),
(368,-140,o),
(248,-184,o),
(174,-184,cs),
(120,-184,o),
(64,-162,o),
(30,-120,c),
(12,-146,l),
(44,-184,o),
(110,-212,o),
(174,-212,cs)
);
},
{
closed = 1;
nodes = (
(332,-8,o),
(448,66,o),
(488,252,cs),
(526,430,o),
(448,520,o),
(326,520,cs),
(190,520,o),
(88,408,o),
(56,256,cs),
(20,92,o),
(96,-8,o),
(222,-8,cs)
);
},
{
closed = 1;
nodes = (
(122,20,o),
(52,100,o),
(84,250,cs),
(116,392,o),
(214,492,o),
(324,492,cs),
(430,492,o),
(494,402,o),
(462,256,cs),
(430,110,o),
(332,20,o),
(224,20,cs)
);
}
);
width = 578;
}
);
leftKerningGroup = LAT_G_LC;
rightKerningGroup = LAT_G_LC;
unicode = 103;
}
{
glyphname = h;
layers = (
{
anchors = (
{
name = bottom;
position = "{242, 0}";
},
{
name = center;
position = "{230, 634}";
},
{
name = top;
position = "{256, 752}";
}
);
layerId = "9C023954-B0F0-4AC3-996A-DC35BCD11D7C";
shapes = (
{
closed = 1;
nodes = (
(174,0,l),
(242,300,ls),
(255,356,o),
(294,394,o),
(342,394,cs),
(376,394,o),
(399,374,o),
(386,318,cs),
(314,0,l),
(488,0,l),
(566,342,ls),
(592,458,o),
(542,536,o),
(428,536,cs),
(360,536,o),
(276,508,o),
(244,432,c),
(296,480,l),
(284,480,l),
(337,720,l),
(163,720,l),
(0,0,l)
);
}
);
width = 604;
},
{
anchors = (
{
name = bottom;
position = "{232, 0}";
},
{
name = center;
position = "{208, 624}";
},
{
name = top;
position = "{234, 752}";
}
);
layerId = "169D7F5A-B55B-498B-8A7E-44B3106F6DC0";
shapes = (
{
closed = 1;
nodes = (
(114,0,l),
(186,308,ls),
(206,392,o),
(272,436,o),
(340,436,cs),
(410,436,o),
(441,394,o),
(422,312,cs),
(350,0,l),
(452,0,l),
(528,330,ls),
(547,412,o),
(530,528,o),
(384,528,cs),
(308,528,o),
(234,498,o),
(190,428,c),
(244,466,l),
(220,466,l),
(279,720,l),
(177,720,l),
(12,0,l)
);
}
);
width = 580;
},
{
anchors = (
{
name = bottom;
position = "{212, 0}";
},
{
name = center;
position = "{182, 616}";
},
{
name = top;
position = "{208, 720}";
}
);
layerId = "1CFA5324-D054-4A76-8DD1-A1279E18B2E8";
shapes = (
{
closed = 1;
nodes = (
(56,0,l),
(130,324,ls),
(152,418,o),
(246,492,o),
(342,492,cs),
(456,492,o),
(456,388,o),
(438,308,cs),
(368,0,l),
(398,0,l),
(468,312,ls),
(496,438,o),
(456,520,o),
(338,520,cs),
(256,520,o),
(180,470,o),
(138,404,c),
(166,428,l),
(154,428,l),
(219,720,l),
(189,720,l),
(26,0,l)
);
}
);
width = 536;
}
);
leftKerningGroup = LAT_H_UC;
rightKerningGroup = LAT_N_LC;
unicode = 104;
}
{
glyphname = k;
layers = (
{
anchors = (
{
name = bottom;
position = "{252, 0}";
},
{
name = top;
position = "{258, 752}";
}
);
layerId = "EF07516E-CE4D-469D-8301-1491E725ACEB";
shapes = (
{
closed = 1;
nodes = (
(174,0,l),
(224,222,l),
(264,222,l),
(220,248,l),
(352,0,l),
(534,0,l),
(354,318,l),
(346,218,l),
(654,528,l),
(438,528,l),
(230,296,l),
(288,322,l),
(248,322,l),
(337,720,l),
(163,720,l),
(0,0,l)
);
}
);
width = 616;
},
{
anchors = (
{
name = bottom;
position = "{224, 0}";
},
{
name = top;
position = "{234, 752}";
}
);
layerId = "C82BF5B4-EE1A-4CB4-A2C0-4E66566823BE";
shapes = (
{
closed = 1;
nodes = (
(114,0,l),
(170,238,l),
(210,238,l),
(180,266,l),
(360,0,l),
(478,0,l),
(274,302,l),
(266,248,l),
(578,520,l),
(438,520,l),
(178,298,l),
(232,324,l),
(188,324,l),
(279,720,l),
(177,720,l),
(12,0,l)
);
}
);
width = 562;
},
{
anchors = (
{
name = bottom;
position = "{194, 0}";
},
{
name = top;
position = "{210, 752}";
}
);
layerId = "960527DE-BC0D-48AB-B834-0D46F4119FDB";
shapes = (
{
closed = 1;
nodes = (
(56,0,l),
(112,246,l),
(152,246,l),
(134,258,l),
(340,0,l),
(378,0,l),
(162,270,l),
(160,252,l),
(470,512,l),
(428,512,l),
(132,264,l),
(158,276,l),
(118,276,l),
(219,720,l),
(189,720,l),
(26,0,l)
);
}
);
width = 476;
}
);
leftKerningGroup = LAT_H_UC;
rightKerningGroup = LAT_K_LC;
unicode = 107;
}
{
glyphname = l;
layers = (
{
anchors = (
{
name = bottom;
position = "{110, 0}";
},
{
name = center;
position = "{174, 394}";
},
{
name = top;
position = "{256, 754}";
},
{
name = topright;
position = "{334, 752}";
}
);
layerId = "E1414F7C-7342-42E0-9F1C-475EAD3EF451";
shapes = (
{
closed = 1;
nodes = (
(190,-8,o),
(226,-2,o),
(250,10,c),
(268,150,l),
(260,144,o),
(247,136,o),
(228,136,cs),
(212,136,o),
(208,148,o),
(212,166,cs),
(335,720,l),
(163,720,l),
(34,152,ls),
(16,72,o),
(48,-8,o),
(160,-8,cs)
);
}
);
width = 320;
},
{
anchors = (
{
name = bottom;
position = "{92, 0}";
},
{
name = center;
position = "{154, 384}";
},
{
name = top;
position = "{236, 752}";
},
{
name = topright;
position = "{390, 752}";
}
);
layerId = "39EADFFA-F378-45E3-ACCF-69574A40D336";
shapes = (
{
closed = 1;
nodes = (
(154,-8,o),
(178,-4,o),
(190,2,c),
(196,88,l),
(187,86,o),
(175,84,o),
(168,84,cs),
(147,84,o),
(137,103,o),
(144,130,c),
(279,720,l),
(177,720,l),
(44,140,ls),
(24,53,o),
(61,-8,o),
(132,-8,cs)
);
}
);
width = 268;
},
{
anchors = (
{
name = bottom;
position = "{72, 0}";
},
{
name = center;
position = "{126, 374}";
},
{
name = top;
position = "{212, 752}";
},
{
name = topright;
position = "{230, 752}";
}
);
layerId = "0FE7234A-0103-4F7B-BAB8-33CF7CB7E092";
shapes = (
{
closed = 1;
nodes = (
(108,-4,o),
(126,2,o),
(134,8,c),
(138,38,l),
(134,36,o),
(114,24,o),
(92,24,cs),
(58,24,o),
(68,56,o),
(74,84,cs),
(219,720,l),
(189,720,l),
(46,92,ls),
(37,52,o),
(30,-4,o),
(88,-4,cs)
);
}
);
width = 218;
}
);
leftKerningGroup = LAT_L_LC;
rightKerningGroup = LAT_L_LC;
unicode = 108;
}
{
glyphname = m;
layers = (
{
anchors = (
{
name = bottom;
position = "{368, 0}";
},
{
name = leghookleft;
position = "{665, 0}";
},
{
name = top;
position = "{486, 521}";
}
);
layerId = "416E4CDB-24DB-4880-8411-1E3E7938ABBF";
name = "#instance";
shapes = (
{
closed = 1;
nodes = (
(125,0,l),
(196,310,ls),
(209,369,o),
(259,435,o),
(327,435,cs),
(377,435,o),
(400,399,o),
(384,327,cs),
(309,0,l),
(423,0,l),
(495,315,ls),
(507,370,o),
(556,435,o),
(625,435,cs),
(677,435,o),
(698,399,o),
(681,325,cs),
(608,0,l),
(722,0,l),
(796,327,ls),
(819,427,o),
(794,529,o),
(676,529,cs),
(602,529,o),
(537,491,o),
(497,429,c),
(514,436,l),
(495,436,l),
(503,417,l),
(496,485,o),
(453,529,o),
(382,529,cs),
(305,529,o),
(242,489,o),
(187,405,c),
(236,444,l),
(219,444,l),
(237,521,l),
(129,521,l),
(11,0,l)
);
}
);
width = 847;
},
{
anchors = (
{
name = bottom;
position = "{386, 0}";
},
{
name = leghookleft;
position = "{676, 0}";
},
{
name = top;
position = "{504, 528}";
}
);
layerId = "9C023954-B0F0-4AC3-996A-DC35BCD11D7C";
shapes = (
{
closed = 1;
nodes = (
(174,0,l),
(244,306,ls),
(254,350,o),
(284,394,o),
(334,394,cs),
(380,394,o),
(376,358,o),
(368,322,cs),
(294,0,l),
(468,0,l),
(538,306,ls),
(548,350,o),
(578,394,o),
(628,394,cs),
(676,394,o),
(670,356,o),
(662,322,cs),
(590,0,l),
(764,0,l),
(836,322,ls),
(854,400,o),
(860,536,o),
(714,536,cs),
(652,536,o),
(584,514,o),
(536,446,c),
(556,454,l),
(538,454,l),
(546,430,l),
(534,498,o),
(496,536,o),
(426,536,cs),
(350,536,o),
(282,502,o),
(220,406,c),
(292,462,l),
(268,462,l),
(284,528,l),
(120,528,l),
(0,0,l)
);
}
);
width = 880;
},
{
anchors = (
{
name = bottom;
position = "{372, 0}";
},
{
name = leghookleft;
position = "{674, 0}";
},
{
name = top;
position = "{492, 520}";
}
);
layerId = "169D7F5A-B55B-498B-8A7E-44B3106F6DC0";
shapes = (
{
closed = 1;
nodes = (
(114,0,l),
(186,308,ls),
(206,392,o),
(264,436,o),
(324,436,cs),
(384,436,o),
(406,392,o),
(388,312,cs),
(316,0,l),
(418,0,l),
(490,308,ls),
(510,392,o),
(568,436,o),
(628,436,cs),
(688,436,o),
(710,392,o),
(692,312,cs),
(620,0,l),
(724,0,l),
(800,332,ls),
(824,436,o),
(800,528,o),
(678,528,cs),
(590,528,o),
(508,478,o),
(468,410,c),
(528,446,l),
(462,446,l),
(500,406,l),
(496,472,o),
(462,528,o),
(378,528,cs),
(298,528,o),
(220,484,o),
(180,408,c),
(240,462,l),
(220,462,l),
(234,520,l),
(130,520,l),
(12,0,l)
);
}
);
width = 852;
},
{
anchors = (
{
name = bottom;
position = "{344, 0}";
},
{
name = leghookleft;
position = "{650, 0}";
},
{
name = top;
position = "{460, 512}";
}
);
layerId = "1CFA5324-D054-4A76-8DD1-A1279E18B2E8";
shapes = (
{
closed = 1;
nodes = (
(56,0,l),
(128,316,ls),
(146,396,o),
(224,492,o),
(318,492,cs),
(374,492,o),
(434,456,o),
(406,334,cs),
(330,0,l),
(360,0,l),
(434,328,ls),
(450,398,o),
(526,492,o),
(622,492,cs),
(678,492,o),
(738,460,o),
(708,328,cs),
(634,0,l),
(664,0,l),
(740,334,ls),
(770,464,o),
(702,520,o),
(622,520,cs),
(532,520,o),
(472,458,o),
(442,406,c),
(456,410,l),
(434,410,l),
(444,398,l),
(444,466,o),
(394,520,o),
(320,520,cs),
(242,520,o),
(186,470,o),
(140,404,c),
(158,418,l),
(150,418,l),
(172,512,l),
(142,512,l),
(26,0,l)
);
}
);
width = 802;
}
);
leftKerningGroup = LAT_N_LC;
rightKerningGroup = LAT_N_LC;
unicode = 109;
}
{
glyphname = n;
layers = (
{
anchors = (
{
name = bottom;
position = "{240, 0}";
},
{
name = leghookleft;
position = "{86, 0}";
},
{
name = leghookretroflex;
position = "{400, 0}";
},
{
name = top;
position = "{378, 528}";
}
);
layerId = "EF07516E-CE4D-469D-8301-1491E725ACEB";
shapes = (
{
closed = 1;
nodes = (
(174,0,l),
(242,300,ls),
(254,356,o),
(286,394,o),
(334,394,cs),
(368,394,o),
(398,374,o),
(386,318,cs),
(314,0,l),
(488,0,l),
(566,344,ls),
(592,460,o),
(524,536,o),
(418,536,cs),
(344,536,o),
(282,496,o),
(246,406,c),
(292,456,l),
(272,456,l),
(288,528,l),
(120,528,l),
(0,0,l)
);
}
);
width = 604;
},
{
anchors = (
{
name = bottom;
position = "{234, 0}";
},
{
name = leghookleft;
position = "{64, 0}";
},
{
name = leghookretroflex;
position = "{400, 0}";
},
{
name = top;
position = "{370, 520}";
}
);
layerId = "C82BF5B4-EE1A-4CB4-A2C0-4E66566823BE";
shapes = (
{
closed = 1;
nodes = (
(114,0,l),
(186,308,ls),
(206,392,o),
(270,436,o),
(340,436,cs),
(414,436,o),
(440,388,o),
(422,312,cs),
(350,0,l),
(452,0,l),
(528,330,ls),
(548,414,o),
(514,528,o),
(368,528,cs),
(288,528,o),
(232,492,o),
(188,424,c),
(242,462,l),
(220,462,l),
(234,520,l),
(130,520,l),
(12,0,l)
);
}
);
width = 580;
},
{
anchors = (
{
name = bottom;
position = "{222, 0}";
},
{
name = leghookleft;
position = "{42, 0}";
},
{
name = leghookretroflex;
position = "{384, 0}";
},
{
name = top;
position = "{340, 512}";
}
);
layerId = "960527DE-BC0D-48AB-B834-0D46F4119FDB";
shapes = (
{
closed = 1;
nodes = (
(56,0,l),
(130,324,ls),
(150,414,o),
(230,492,o),
(330,492,cs),
(444,492,o),
(456,388,o),
(438,308,cs),
(368,0,l),
(398,0,l),
(468,312,ls),
(496,438,o),
(450,520,o),
(332,520,cs),
(240,520,o),
(180,470,o),
(138,404,c),
(166,420,l),
(152,420,l),
(172,512,l),
(142,512,l),
(26,0,l)
);
}
);
width = 536;
}
);
leftKerningGroup = LAT_N_LC;
rightKerningGroup = LAT_N_LC;
unicode = 110;
}
{
glyphname = o;
layers = (
{
anchors = (
{
name = bottom;
position = "{244, 0}";
},
{
name = center;
position = "{304, 264}";
},
{
name = horn;
position = "{502, 496}";
},
{
name = ogonek;
position = "{312, 0}";
},
{
name = top;
position = "{364, 528}";
},
{
name = topright;
position = "{636, 528}";
}
);
layerId = "EF07516E-CE4D-469D-8301-1491E725ACEB";
shapes = (
{
closed = 1;
nodes = (
(404,-8,o),
(536,98,o),
(572,248,cs),
(610,404,o),
(518,536,o),
(352,536,cs),
(202,536,o),
(70,426,o),
(36,280,cs),
(-2,120,o),
(98,-8,o),
(258,-8,cs)
);
},
{
closed = 1;
nodes = (
(220,136,o),
(178,176,o),
(192,250,cs),
(206,322,o),
(264,390,o),
(336,390,cs),
(398,390,o),
(426,342,o),
(416,280,cs),
(404,208,o),
(346,136,o),
(274,136,cs)
);
}
);
width = 608;
},
{
anchors = (
{
name = bottom;
position = "{232, 0}";
},
{
name = center;
position = "{290, 258}";
},
{
name = horn;
position = "{472, 512}";
},
{
name = ogonek;
position = "{294, 0}";
},
{
name = top;
position = "{350, 520}";
},
{
name = topright;
position = "{620, 520}";
}
);
layerId = "C82BF5B4-EE1A-4CB4-A2C0-4E66566823BE";
shapes = (
{
closed = 1;
nodes = (
(386,-8,o),
(506,96,o),
(538,252,cs),
(572,412,o),
(492,528,o),
(342,528,cs),
(200,528,o),
(78,420,o),
(46,268,cs),
(12,108,o),
(102,-8,o),
(248,-8,cs)
);
},
{
closed = 1;
nodes = (
(164,84,o),
(120,158,o),
(146,264,cs),
(170,362,o),
(242,436,o),
(332,436,cs),
(422,436,o),
(462,360,o),
(438,262,cs),
(414,162,o),
(340,84,o),
(250,84,cs)
);
}
);
width = 584;
},
{
anchors = (
{
name = bottom;
position = "{240, 0}";
},
{
name = center;
position = "{298, 256}";
},
{
name = horn;
position = "{464, 494}";
},
{
name = ogonek;
position = "{300, 0}";
},
{
name = top;
position = "{356, 512}";
},
{
name = topright;
position = "{632, 512}";
}
);
layerId = "960527DE-BC0D-48AB-B834-0D46F4119FDB";
shapes = (
{
closed = 1;
nodes = (
(394,-8,o),
(506,112,o),
(536,256,cs),
(568,408,o),
(496,520,o),
(352,520,cs),
(198,520,o),
(84,394,o),
(56,256,cs),
(26,110,o),
(100,-8,o),
(248,-8,cs)
);
},
{
closed = 1;
nodes = (
(128,20,o),
(56,114,o),
(86,252,cs),
(114,384,o),
(220,492,o),
(350,492,cs),
(474,492,o),
(534,398,o),
(506,262,cs),
(478,128,o),
(380,20,o),
(250,20,cs)
);
}
);
width = 592;
}
);
leftKerningGroup = LAT_O_LC;
rightKerningGroup = LAT_O_LC;
unicode = 111;
}
{
glyphname = p;
layers = (
{
anchors = (
{
name = bottom;
position = "{42, -206}";
},
{
name = top;
position = "{394, 528}";
}
);
layerId = "E1414F7C-7342-42E0-9F1C-475EAD3EF451";
shapes = (
{
closed = 1;
nodes = (
(190,52,l),
(214,52,l),
(196,122,l),
(266,440,l),
(298,488,l),
(276,488,l),
(286,528,l),
(122,528,l),
(-44,-206,l),
(130,-206,l)
);
},
{
closed = 1;
nodes = (
(422,-8,o),
(548,64,o),
(590,246,cs),
(634,438,o),
(538,536,o),
(418,536,cs),
(292,536,o),
(178,426,o),
(146,284,cs),
(112,128,o),
(190,-8,o),
(324,-8,cs)
);
},
{
closed = 1;
nodes = (
(241,136,o),
(213,181,o),
(226,252,cs),
(240,331,o),
(293,392,o),
(358,392,cs),
(413,392,o),
(441,347,o),
(430,278,c),
(416,206,o),
(369,136,o),
(298,136,cs)
);
}
);
width = 626;
},
{
anchors = (
{
name = bottom;
position = "{16, -206}";
},
{
name = top;
position = "{376, 520}";
}
);
layerId = "39EADFFA-F378-45E3-ACCF-69574A40D336";
shapes = (
{
closed = 1;
nodes = (
(128,68,l),
(144,68,l),
(132,130,l),
(198,416,l),
(232,464,l),
(218,464,l),
(230,520,l),
(128,520,l),
(-38,-206,l),
(66,-206,l)
);
},
{
closed = 1;
nodes = (
(406,-8,o),
(524,104,o),
(556,250,cs),
(592,418,o),
(494,528,o),
(376,528,cs),
(248,528,o),
(140,410,o),
(108,266,cs),
(72,110,o),
(144,-8,o),
(274,-8,cs)
);
},
{
closed = 1;
nodes = (
(191,84,o),
(145,156,o),
(168,260,cs),
(189,355,o),
(262,436,o),
(352,436,cs),
(432,436,o),
(480,363,o),
(458,262,cs),
(436,166,o),
(362,84,o),
(274,84,cs)
);
}
);
width = 602;
},
{
anchors = (
{
name = bottom;
position = "{-4, -206}";
},
{
name = top;
position = "{346, 512}";
}
);
layerId = "0FE7234A-0103-4F7B-BAB8-33CF7CB7E092";
shapes = (
{
closed = 1;
nodes = (
(82,118,l),
(94,118,l),
(90,162,l),
(142,394,l),
(156,416,l),
(150,416,l),
(172,512,l),
(142,512,l),
(-20,-206,l),
(10,-206,l)
);
},
{
closed = 1;
nodes = (
(390,-8,o),
(486,104,o),
(518,256,cs),
(556,432,o),
(476,520,o),
(352,520,cs),
(228,520,o),
(122,432,o),
(86,262,cs),
(48,84,o),
(130,-8,o),
(254,-8,cs)
);
},
{
closed = 1;
nodes = (
(146,20,o),
(82,110,o),
(112,256,cs),
(144,410,o),
(248,492,o),
(352,492,cs),
(460,492,o),
(522,408,o),
(488,258,cs),
(456,116,o),
(364,20,o),
(254,20,cs)
);
}
);
width = 574;
}
);
leftKerningGroup = LAT_P_LC;
rightKerningGroup = LAT_O_LC;
unicode = 112;
}
{
color = 4;
glyphname = q;
rightMetricsKey = "=60";
layers = (
{
anchors = (
{
name = bottom;
position = "{382, -206}";
},
{
name = top;
position = "{368, 528}";
}
);
layerId = "E1414F7C-7342-42E0-9F1C-475EAD3EF451";
shapes = (
{
closed = 1;
nodes = (
(613,528,l),
(449,528,l),
(437,472,l),
(415,472,l),
(423,418,l),
(365,134,l),
(329,52,l),
(339,52,l),
(287,-208,l),
(459,-206,l)
);
},
{
closed = 1;
nodes = (
(323,-8,o),
(441,94,o),
(475,244,cs),
(511,400,o),
(437,536,o),
(303,536,cs),
(207,536,o),
(73,468,o),
(31,280,cs),
(-9,102,o),
(77,-8,o),
(203,-8,cs)
);
},
{
closed = 1;
nodes = (
(208,136,o),
(180,181,o),
(193,252,cs),
(207,331,o),
(260,392,o),
(325,392,cs),
(380,392,o),
(408,347,o),
(397,278,c),
(383,206,o),
(336,136,o),
(265,136,cs)
);
}
);
width = 626;
},
{
anchors = (
{
name = bottom;
position = "{408, -206}";
},
{
name = top;
position = "{378, 520}";
}
);
layerId = "39EADFFA-F378-45E3-ACCF-69574A40D336";
rightMetricsKey = "=75";
shapes = (
{
closed = 1;
nodes = (
(586,520,l),
(486,520,l),
(474,458,l),
(462,458,l),
(465,416,l),
(401,130,l),
(367,64,l),
(381,64,l),
(320,-206,l),
(422,-206,l)
);
},
{
closed = 1;
nodes = (
(362,-8,o),
(464,116,o),
(494,256,cs),
(526,408,o),
(458,528,o),
(322,528,cs),
(198,528,o),
(80,428,o),
(48,276,cs),
(12,108,o),
(110,-8,o),
(234,-8,cs)
);
},
{
closed = 1;
nodes = (
(166,84,o),
(122,160,o),
(144,260,cs),
(166,358,o),
(234,436,o),
(320,436,cs),
(402,436,o),
(452,364,o),
(430,262,cs),
(410,168,o),
(340,84,o),
(252,84,cs)
);
}
);
width = 603;
},
{
anchors = (
{
name = bottom;
position = "{398, -206}";
},
{
name = top;
position = "{362, 512}";
}
);
layerId = "0FE7234A-0103-4F7B-BAB8-33CF7CB7E092";
rightMetricsKey = "=80";
shapes = (
{
closed = 1;
nodes = (
(545,512,l),
(515,512,l),
(491,396,l),
(483,396,l),
(489,380,l),
(439,148,l),
(427,118,l),
(433,118,l),
(363,-206,l),
(393,-206,l)
);
},
{
closed = 1;
nodes = (
(332,-8,o),
(448,66,o),
(488,252,cs),
(526,430,o),
(448,520,o),
(326,520,cs),
(190,520,o),
(88,408,o),
(56,256,cs),
(20,92,o),
(96,-8,o),
(222,-8,cs)
);
},
{
closed = 1;
nodes = (
(122,20,o),
(52,100,o),
(84,250,cs),
(116,392,o),
(214,492,o),
(324,492,cs),
(430,492,o),
(494,402,o),
(462,256,cs),
(430,110,o),
(332,20,o),
(224,20,cs)
);
}
);
width = 578;
}
);
leftKerningGroup = LAT_O_LC;
rightKerningGroup = LAT_Q_LC;
unicode = 113;
}
{
glyphname = r;
layers = (
{
anchors = (
{
name = bottom;
position = "{88, 0}";
},
{
name = top;
position = "{284, 528}";
}
);
layerId = "EF07516E-CE4D-469D-8301-1491E725ACEB";
shapes = (
{
closed = 1;
nodes = (
(174,0,l),
(232,256,ls),
(249,330,o),
(312,368,o),
(358,368,cs),
(376,368,o),
(394,364,o),
(404,358,c),
(502,512,l),
(492,524,o),
(464,536,o),
(426,536,cs),
(334,536,o),
(270,470,o),
(250,426,c),
(286,466,l),
(274,466,l),
(288,528,l),
(120,528,l),
(0,0,l)
);
}
);
width = 446;
},
{
anchors = (
{
name = bottom;
position = "{64, 0}";
},
{
name = top;
position = "{268, 520}";
}
);
layerId = "C82BF5B4-EE1A-4CB4-A2C0-4E66566823BE";
shapes = (
{
closed = 1;
nodes = (
(116,0,l),
(182,286,ls),
(202,370,o),
(280,430,o),
(338,430,cs),
(360,430,o),
(384,422,o),
(390,416,c),
(448,508,l),
(436,518,o),
(414,528,o),
(380,528,cs),
(300,528,o),
(222,470,o),
(196,412,c),
(226,446,l),
(216,446,l),
(234,520,l),
(132,520,l),
(12,0,l)
);
}
);
width = 400;
},
{
anchors = (
{
name = bottom;
position = "{42, 0}";
},
{
name = top;
position = "{242, 512}";
}
);
layerId = "960527DE-BC0D-48AB-B834-0D46F4119FDB";
shapes = (
{
closed = 1;
nodes = (
(56,0,l),
(126,312,ls),
(149,416,o),
(246,492,o),
(312,492,cs),
(334,492,o),
(354,484,o),
(362,476,c),
(376,502,l),
(364,511,o),
(343,520,o),
(314,520,cs),
(254,520,o),
(174,466,o),
(138,398,c),
(158,420,l),
(152,420,l),
(172,512,l),
(142,512,l),
(26,0,l)
);
}
);
width = 332;
}
);
leftKerningGroup = LAT_N_LC;
rightKerningGroup = LAT_R_LC;
unicode = 114;
}
{
glyphname = s;
layers = (
{
anchors = (
{
name = bottom;
position = "{178, 0}";
},
{
name = cedilla;
position = "{186, 0}";
},
{
name = top;
position = "{298, 532}";
}
);
layerId = "E1414F7C-7342-42E0-9F1C-475EAD3EF451";
shapes = (
{
closed = 1;
nodes = (
(296,-8,o),
(399,58,o),
(422,154,cs),
(447,266,o),
(348,302,o),
(300,314,c),
(267,324,o),
(212,335,o),
(218,362,cs),
(223,384,o),
(252,404,o),
(278,404,cs),
(305,404,o),
(323,387,o),
(332,366,c),
(470,416,l),
(454,490,o),
(384,536,o),
(292,536,cs),
(189,536,o),
(95,476,o),
(72,382,cs),
(52,292,o),
(102,244,o),
(184,216,cs),
(224,203,o),
(279,192,o),
(274,166,cs),
(270,146,o),
(241,124,o),
(210,124,cs),
(168,124,o),
(149,157,o),
(138,182,c),
(-4,130,l),
(15,40,o),
(97,-8,o),
(188,-8,cs)
);
}
);
width = 466;
},
{
anchors = (
{
name = bottom;
position = "{164, 0}";
},
{
name = cedilla;
position = "{170, 0}";
},
{
name = top;
position = "{284, 522}";
}
);
layerId = "39EADFFA-F378-45E3-ACCF-69574A40D336";
shapes = (
{
closed = 1;
nodes = (
(282,-8,o),
(364,52,o),
(382,140,cs),
(402,240,o),
(314,282,o),
(260,300,cs),
(218,314,o),
(166,330,o),
(178,384,c),
(186,416,o),
(222,442,o),
(262,442,cs),
(308,442,o),
(328,410,o),
(336,388,c),
(430,420,l),
(416,474,o),
(364,528,o),
(272,528,cs),
(176,528,o),
(106,478,o),
(86,396,cs),
(64,308,o),
(126,254,o),
(190,232,cs),
(230,218,o),
(298,200,o),
(286,148,c),
(278,108,o),
(238,80,o),
(192,80,cs),
(150,80,o),
(110,112,o),
(104,150,c),
(8,116,l),
(18,52,o),
(94,-8,o),
(186,-8,cs)
);
}
);
width = 448;
},
{
anchors = (
{
name = bottom;
position = "{156, 0}";
},
{
name = cedilla;
position = "{160, 0}";
},
{
name = top;
position = "{272, 512}";
}
);
layerId = "0FE7234A-0103-4F7B-BAB8-33CF7CB7E092";
shapes = (
{
closed = 1;
nodes = (
(266,-8,o),
(330,52,o),
(346,128,cs),
(364,210,o),
(308,252,o),
(234,278,c),
(182,298,o),
(114,326,o),
(128,396,cs),
(138,448,o),
(188,492,o),
(258,492,cs),
(318,492,o),
(352,458,o),
(364,422,c),
(394,430,l),
(384,474,o),
(338,520,o),
(260,520,cs),
(170,520,o),
(114,466,o),
(100,406,cs),
(78,316,o),
(160,276,o),
(216,254,cs),
(254,240,o),
(336,210,o),
(316,128,cs),
(300,64,o),
(238,20,o),
(176,20,cs),
(114,20,o),
(64,66,o),
(56,112,c),
(26,104,l),
(36,46,o),
(92,-8,o),
(176,-8,cs)
);
}
);
width = 434;
}
);
leftKerningGroup = LAT_S_LC;
rightKerningGroup = LAT_S_LC;
unicode = 115;
}
{
glyphname = t;
layers = (
{
anchors = (
{
name = bottom;
position = "{210, 0}";
},
{
name = cedilla;
position = "{222, 0}";
},
{
name = center;
position = "{198, 264}";
},
{
name = top;
position = "{288, 674}";
},
{
name = topright;
position = "{410, 846}";
}
);
layerId = "EF07516E-CE4D-469D-8301-1491E725ACEB";
shapes = (
{
closed = 1;
nodes = (
(286,-8,o),
(340,-4,o),
(372,10,c),
(342,154,l),
(328,146,o),
(312,140,o),
(294,140,cs),
(252,140,o),
(260,174,o),
(264,192,cs),
(372,674,l),
(200,674,l),
(94,208,ls),
(66,86,o),
(110,-8,o),
(256,-8,cs)
);
},
{
closed = 1;
nodes = (
(418,380,l),
(454,528,l),
(82,528,l),
(46,380,l)
);
}
);
width = 438;
},
{
anchors = (
{
name = bottom;
position = "{192, 0}";
},
{
name = cedilla;
position = "{204, 0}";
},
{
name = center;
position = "{172, 262}";
},
{
name = top;
position = "{266, 682}";
},
{
name = topright;
position = "{368, 804}";
}
);
layerId = "C82BF5B4-EE1A-4CB4-A2C0-4E66566823BE";
shapes = (
{
closed = 1;
nodes = (
(256,-8,o),
(292,0,o),
(320,10,c),
(290,98,l),
(278,92,o),
(254,86,o),
(236,86,cs),
(204,86,o),
(186,108,o),
(196,154,cs),
(316,682,l),
(214,682,l),
(92,146,ls),
(72,56,o),
(120,-8,o),
(226,-8,cs)
);
},
{
closed = 1;
nodes = (
(384,432,l),
(404,520,l),
(92,520,l),
(72,432,l)
);
}
);
width = 384;
},
{
anchors = (
{
name = bottom;
position = "{162, 0}";
},
{
name = cedilla;
position = "{172, 0}";
},
{
name = center;
position = "{142, 256}";
},
{
name = top;
position = "{240, 690}";
},
{
name = topright;
position = "{288, 772}";
}
);
layerId = "960527DE-BC0D-48AB-B834-0D46F4119FDB";
shapes = (
{
closed = 1;
nodes = (
(202,-6,o),
(220,-4,o),
(240,4,c),
(232,30,l),
(218,24,o),
(202,22,o),
(186,22,cs),
(130,22,o),
(112,64,o),
(128,132,cs),
(254,690,l),
(224,690,l),
(100,142,ls),
(80,50,o),
(104,-6,o),
(188,-6,cs)
);
},
{
closed = 1;
nodes = (
(340,484,l),
(346,512,l),
(106,512,l),
(100,484,l)
);
}
);
width = 344;
}
);
leftKerningGroup = LAT_T_LC;
rightKerningGroup = LAT_T_LC;
unicode = 116;
}
{
color = 4;
glyphname = u;
layers = (
{
anchors = (
{
name = bottom;
position = "{276, 0}";
},
{
name = horn;
position = "{524, 528}";
},
{
name = ogonek;
position = "{484, 0}";
},
{
name = top;
position = "{376, 528}";
}
);
layerId = "E1414F7C-7342-42E0-9F1C-475EAD3EF451";
shapes = (
{
closed = 1;
nodes = (
(276,-8,o),
(344,46,o),
(412,136,c),
(390,232,l),
(360,190,o),
(320,132,o),
(260,132,cs),
(204,132,o),
(220,190,o),
(226,216,cs),
(296,528,l),
(122,528,l),
(48,202,ls),
(18,68,o),
(94,-8,o),
(190,-8,cs)
);
},
{
closed = 1;
nodes = (
(484,0,l),
(604,528,l),
(430,528,l),
(326,78,l),
(300,54,l),
(332,54,l),
(320,0,l)
);
}
);
width = 606;
},
{
anchors = (
{
name = bottom;
position = "{224, 0}";
},
{
name = horn;
position = "{506, 520}";
},
{
name = ogonek;
position = "{442, 0}";
},
{
name = top;
position = "{342, 520}";
}
);
layerId = "39EADFFA-F378-45E3-ACCF-69574A40D336";
shapes = (
{
closed = 1;
nodes = (
(278,-8,o),
(360,42,o),
(408,104,c),
(400,192,l),
(370,124,o),
(294,76,o),
(226,76,cs),
(124,76,o),
(148,184,o),
(162,238,c),
(226,520,l),
(124,520,l),
(52,204,ls),
(22,76,o),
(72,-8,o),
(188,-8,cs)
);
},
{
closed = 1;
nodes = (
(442,0,l),
(562,520,l),
(458,520,l),
(362,100,l),
(342,50,l),
(352,50,l),
(340,0,l)
);
}
);
width = 576;
},
{
anchors = (
{
name = bottom;
position = "{232, 0}";
},
{
name = horn;
position = "{492, 512}";
},
{
name = ogonek;
position = "{392, 0}";
},
{
name = top;
position = "{328, 512}";
}
);
layerId = "0FE7234A-0103-4F7B-BAB8-33CF7CB7E092";
shapes = (
{
closed = 1;
nodes = (
(284,-8,o),
(356,52,o),
(398,116,c),
(402,160,l),
(356,92,o),
(280,20,o),
(190,20,cs),
(58,20,o),
(90,162,o),
(110,252,cs),
(168,512,l),
(138,512,l),
(70,212,ls),
(42,88,o),
(62,-8,o),
(186,-8,cs)
);
},
{
closed = 1;
nodes = (
(392,0,l),
(508,512,l),
(478,512,l),
(390,126,l),
(376,96,l),
(384,96,l),
(362,0,l)
);
}
);
width = 502;
}
);
leftKerningGroup = LAT_U_LC;
rightKerningGroup = LAT_A_LC;
unicode = 117;
}
{
glyphname = v;
layers = (
{
anchors = (
{
name = bottom;
position = "{226, 0}";
},
{
name = top;
position = "{346, 528}";
}
);
layerId = "E1414F7C-7342-42E0-9F1C-475EAD3EF451";
shapes = (
{
closed = 1;
nodes = (
(146,0,l),
(310,0,l),
(618,528,l),
(428,528,l),
(326,318,l),
(264,180,l),
(260,180,l),
(260,318,l),
(254,528,l),
(78,528,l)
);
}
);
width = 572;
},
{
anchors = (
{
name = bottom;
position = "{210, 0}";
},
{
name = top;
position = "{330, 520}";
}
);
layerId = "39EADFFA-F378-45E3-ACCF-69574A40D336";
shapes = (
{
closed = 1;
nodes = (
(164,0,l),
(258,0,l),
(574,520,l),
(458,520,l),
(300,238,l),
(234,122,l),
(230,122,l),
(218,238,l),
(188,520,l),
(84,520,l)
);
}
);
width = 538;
},
{
anchors = (
{
name = bottom;
position = "{182, 0}";
},
{
name = top;
position = "{298, 512}";
}
);
layerId = "0FE7234A-0103-4F7B-BAB8-33CF7CB7E092";
shapes = (
{
closed = 1;
nodes = (
(166,0,l),
(198,0,l),
(504,512,l),
(470,512,l),
(274,182,l),
(192,40,l),
(188,40,l),
(166,182,l),
(122,512,l),
(92,512,l)
);
}
);
width = 480;
}
);
leftKerningGroup = LAT_V_LC;
rightKerningGroup = LAT_V_LC;
unicode = 118;
}
{
color = 9;
glyphname = w;
layers = (
{
anchors = (
{
name = bottom;
position = "{354, 0}";
},
{
name = top;
position = "{474, 528}";
}
);
layerId = "E1414F7C-7342-42E0-9F1C-475EAD3EF451";
shapes = (
{
closed = 1;
nodes = (
(268,0,l),
(356,150,l),
(410,254,l),
(412,254,l),
(424,150,l),
(444,0,l),
(602,0,l),
(874,528,l),
(686,528,l),
(596,306,l),
(548,178,l),
(544,178,l),
(532,310,l),
(516,528,l),
(428,528,l),
(312,310,l),
(246,178,l),
(242,178,l),
(248,306,l),
(262,528,l),
(78,528,l),
(110,0,l)
);
}
);
width = 828;
},
{
anchors = (
{
name = bottom;
position = "{340, 0}";
},
{
name = top;
position = "{460, 520}";
}
);
layerId = "39EADFFA-F378-45E3-ACCF-69574A40D336";
shapes = (
{
closed = 1;
nodes = (
(222,0,l),
(322,174,l),
(418,348,l),
(422,348,l),
(442,174,l),
(462,0,l),
(560,0,l),
(836,520,l),
(724,520,l),
(606,278,l),
(536,128,l),
(534,128,l),
(518,280,l),
(486,520,l),
(430,520,l),
(290,280,l),
(208,128,l),
(206,128,l),
(202,278,l),
(192,520,l),
(84,520,l),
(124,0,l)
);
}
);
width = 800;
},
{
anchors = (
{
name = bottom;
position = "{318, 0}";
},
{
name = top;
position = "{434, 512}";
}
);
layerId = "0FE7234A-0103-4F7B-BAB8-33CF7CB7E092";
shapes = (
{
closed = 1;
nodes = (
(172,0,l),
(282,198,l),
(416,448,l),
(422,448,l),
(444,198,l),
(462,0,l),
(498,0,l),
(774,512,l),
(742,512,l),
(580,208,l),
(490,36,l),
(488,36,l),
(470,208,l),
(444,512,l),
(422,512,l),
(256,208,l),
(164,36,l),
(162,36,l),
(146,208,l),
(124,512,l),
(92,512,l),
(136,0,l)
);
}
);
width = 750;
}
);
leftKerningGroup = LAT_V_LC;
rightKerningGroup = LAT_V_LC;
unicode = 119;
}
{
glyphname = x;
layers = (
{
anchors = (
{
name = bottom;
position = "{232, 0}";
},
{
name = top;
position = "{352, 528}";
}
);
layerId = "9C023954-B0F0-4AC3-996A-DC35BCD11D7C";
shapes = (
{
closed = 1;
nodes = (
(146,0,l),
(270,154,l),
(276,154,l),
(398,256,l),
(400,258,l),
(628,528,l),
(440,528,l),
(310,362,l),
(306,362,l),
(186,270,l),
(184,268,l),
(-46,0,l)
);
},
{
closed = 1;
nodes = (
(502,0,l),
(398,254,l),
(396,256,l),
(310,362,l),
(306,362,l),
(244,528,l),
(80,528,l),
(186,272,l),
(188,270,l),
(270,154,l),
(274,154,l),
(334,0,l)
);
}
);
width = 582;
},
{
anchors = (
{
name = bottom;
position = "{208, 0}";
},
{
name = top;
position = "{328, 520}";
}
);
layerId = "169D7F5A-B55B-498B-8A7E-44B3106F6DC0";
shapes = (
{
closed = 1;
nodes = (
(90,0,l),
(254,188,l),
(260,188,l),
(334,250,l),
(334,252,l),
(568,520,l),
(446,520,l),
(278,326,l),
(272,326,l),
(198,270,l),
(198,268,l),
(-36,0,l)
);
},
{
closed = 1;
nodes = (
(448,0,l),
(334,248,l),
(334,252,l),
(280,326,l),
(274,326,l),
(194,520,l),
(86,520,l),
(198,272,l),
(198,270,l),
(252,188,l),
(258,188,l),
(338,0,l)
);
}
);
width = 532;
},
{
anchors = (
{
name = bottom;
position = "{182, 0}";
},
{
name = top;
position = "{298, 512}";
}
);
layerId = "1CFA5324-D054-4A76-8DD1-A1279E18B2E8";
shapes = (
{
closed = 1;
nodes = (
(26,0,l),
(240,232,l),
(242,232,l),
(264,252,l),
(264,256,l),
(504,512,l),
(466,512,l),
(246,278,l),
(244,278,l),
(224,258,l),
(224,256,l),
(-16,0,l)
);
},
{
closed = 1;
nodes = (
(388,0,l),
(264,252,l),
(264,256,l),
(248,278,l),
(244,278,l),
(134,512,l),
(100,512,l),
(224,260,l),
(224,256,l),
(236,232,l),
(242,232,l),
(354,0,l)
);
}
);
width = 478;
}
);
leftKerningGroup = LAT_X_LC;
rightKerningGroup = LAT_X_LC;
unicode = 120;
}
{
glyphname = y;
layers = (
{
anchors = (
{
name = bottom;
position = "{104, -206}";
},
{
name = top;
position = "{370, 528}";
}
);
layerId = "EF07516E-CE4D-469D-8301-1491E725ACEB";
shapes = (
{
closed = 1;
nodes = (
(658,528,l),
(470,528,l),
(320,242,l),
(288,174,l),
(284,174,l),
(280,242,l),
(258,528,l),
(82,528,l),
(176,-24,l),
(208,64,l),
(170,-8,ls),
(158,-30,o),
(130,-70,o),
(88,-70,cs),
(66,-70,o),
(42,-58,o),
(34,-50,c),
(-48,-180,l),
(-18,-196,o),
(32,-214,o),
(88,-214,cs),
(216,-214,o),
(268,-128,o),
(306,-64,cs)
);
}
);
width = 612;
},
{
anchors = (
{
name = bottom;
position = "{140, -206}";
},
{
name = top;
position = "{352, 520}";
}
);
layerId = "C82BF5B4-EE1A-4CB4-A2C0-4E66566823BE";
shapes = (
{
closed = 1;
nodes = (
(598,520,l),
(484,520,l),
(310,220,l),
(258,126,l),
(254,126,l),
(240,220,l),
(194,520,l),
(88,520,l),
(190,-26,l),
(202,32,l),
(160,-40,ls),
(144,-68,o),
(106,-122,o),
(52,-122,cs),
(26,-122,o),
(6,-110,o),
(-10,-94,c),
(-66,-182,l),
(-50,-196,o),
(-6,-214,o),
(38,-214,cs),
(142,-214,o),
(208,-134,o),
(246,-70,cs)
);
}
);
width = 562;
},
{
anchors = (
{
name = bottom;
position = "{44, -206}";
},
{
name = top;
position = "{324, 512}";
}
);
layerId = "960527DE-BC0D-48AB-B834-0D46F4119FDB";
shapes = (
{
closed = 1;
nodes = (
(540,512,l),
(506,512,l),
(302,176,l),
(216,32,l),
(212,32,l),
(186,176,l),
(130,512,l),
(100,512,l),
(194,-28,l),
(198,2,l),
(148,-78,ls),
(118,-126,o),
(80,-186,o),
(26,-186,cs),
(0,-186,o),
(-30,-172,o),
(-44,-158,c),
(-60,-186,l),
(-46,-198,o),
(-12,-214,o),
(22,-214,cs),
(92,-214,o),
(130,-160,o),
(174,-88,cs)
);
}
);
width = 516;
}
);
leftKerningGroup = LAT_Y_LC;
rightKerningGroup = LAT_Y_LC;
unicode = 121;
}
{
glyphname = z;
layers = (
{
anchors = (
{
name = bottom;
position = "{200, 0}";
},
{
name = center;
position = "{260, 264}";
},
{
name = leghookretroflex;
position = "{334, 0}";
},
{
name = top;
position = "{320, 528}";
}
);
layerId = "EF07516E-CE4D-469D-8301-1491E725ACEB";
shapes = (
{
closed = 1;
nodes = (
(-28,0,l),
(422,0,l),
(458,148,l),
(254,148,l),
(256,152,l),
(536,492,l),
(544,528,l),
(110,528,l),
(76,380,l),
(260,380,l),
(258,374,l),
(-22,34,l)
);
}
);
width = 516;
},
{
anchors = (
{
name = bottom;
position = "{188, 0}";
},
{
name = center;
position = "{248, 262}";
},
{
name = leghookretroflex;
position = "{342, 0}";
},
{
name = top;
position = "{308, 520}";
}
);
layerId = "C82BF5B4-EE1A-4CB4-A2C0-4E66566823BE";
shapes = (
{
closed = 1;
nodes = (
(-16,0,l),
(392,0,l),
(412,88,l),
(162,88,l),
(164,90,l),
(504,500,l),
(508,520,l),
(114,520,l),
(94,432,l),
(334,432,l),
(332,430,l),
(-10,22,l)
);
}
);
width = 496;
},
{
anchors = (
{
name = bottom;
position = "{174, 0}";
},
{
name = center;
position = "{232, 256}";
},
{
name = leghookretroflex;
position = "{334, 0}";
},
{
name = top;
position = "{290, 512}";
}
);
layerId = "960527DE-BC0D-48AB-B834-0D46F4119FDB";
shapes = (
{
closed = 1;
nodes = (
(-2,0,l),
(348,0,l),
(354,28,l),
(48,28,l),
(50,32,l),
(458,498,l),
(460,512,l),
(128,512,l),
(122,484,l),
(410,484,l),
(408,480,l),
(2,18,l)
);
}
);
width = 464;
}
);
leftKerningGroup = LAT_Z_LC;
rightKerningGroup = LAT_Z_LC;
unicode = 122;
}
{
glyphname = braceleft;
layers = (
{
layerId = "EF07516E-CE4D-469D-8301-1491E725ACEB";
shapes = (
{
closed = 1;
nodes = (
(232,-146,l),
(260,-30,l),
(228,-30,ls),
(212,-30,o),
(162,-48,o),
(174,8,cs),
(186,58,o),
(226,114,o),
(240,184,c),
(262,276,o),
(236,318,o),
(184,330,c),
(196,334,l),
(252,348,o),
(284,374,o),
(298,442,c),
(320,524,o),
(306,588,o),
(314,626,cs),
(328,690,o),
(376,698,o),
(402,698,cs),
(424,698,l),
(450,812,l),
(374,812,ls),
(294,812,o),
(220,790,o),
(192,672,cs),
(172,584,o),
(192,530,o),
(182,488,c),
(170,428,o),
(122,390,o),
(56,384,c),
(40,282,l),
(116,276,o),
(130,252,o),
(118,206,c),
(102,136,o),
(62,98,o),
(46,24,cs),
(14,-110,o),
(86,-146,o),
(166,-146,cs)
);
}
);
width = 398;
},
{
layerId = "C82BF5B4-EE1A-4CB4-A2C0-4E66566823BE";
shapes = (
{
closed = 1;
nodes = (
(206,-146,l),
(224,-73,l),
(191,-73,l),
(150,-74,o),
(112,-69,o),
(127,0,cs),
(141,60,o),
(184,129,o),
(200,203,c),
(218,279,o),
(199,324,o),
(154,337,c),
(162,341,l),
(211,354,o),
(242,385,o),
(255,448,c),
(276,529,o),
(261,589,o),
(273,642,cs),
(288,712,o),
(333,742,o),
(382,741,c),
(408,741,l),
(424,812,l),
(368,812,ls),
(293,812,o),
(224,789,o),
(196,669,c),
(178,587,o),
(194,527,o),
(181,467,cs),
(170,417,o),
(126,375,o),
(57,372,c),
(48,308,l),
(121,304,o),
(136,267,o),
(125,221,cs),
(108,149,o),
(64,84,o),
(46,8,cs),
(17,-120,o),
(83,-146,o),
(157,-146,cs)
);
}
);
width = 355;
},
{
layerId = "960527DE-BC0D-48AB-B834-0D46F4119FDB";
shapes = (
{
closed = 1;
nodes = (
(180,-146,l),
(188,-116,l),
(154,-116,l),
(88,-118,o),
(62,-90,o),
(80,-8,cs),
(96,62,o),
(142,144,o),
(160,222,cs),
(174,282,o),
(162,330,o),
(124,344,c),
(128,348,l),
(170,360,o),
(200,396,o),
(212,454,c),
(232,534,o),
(216,590,o),
(232,658,cs),
(248,734,o),
(290,786,o),
(362,784,c),
(392,784,l),
(398,812,l),
(362,812,ls),
(292,812,o),
(228,788,o),
(200,666,cs),
(184,590,o),
(196,524,o),
(180,446,c),
(170,406,o),
(130,360,o),
(58,360,c),
(56,334,l),
(126,332,o),
(142,282,o),
(132,236,cs),
(114,162,o),
(66,70,o),
(46,-8,c),
(20,-130,o),
(80,-146,o),
(148,-146,cs)
);
}
);
width = 312;
}
);
rightKerningGroup = PCT_BRACELEFT;
unicode = 123;
}
{
glyphname = bar;
layers = (
{
layerId = "E1414F7C-7342-42E0-9F1C-475EAD3EF451";
shapes = (
{
closed = 1;
nodes = (
(-18,-206,l),
(98,-206,l),
(328,812,l),
(212,812,l)
);
}
);
width = 292;
},
{
layerId = "39EADFFA-F378-45E3-ACCF-69574A40D336";
shapes = (
{
closed = 1;
nodes = (
(-5,-206,l),
(68,-206,l),
(298,812,l),
(225,812,l)
);
}
);
width = 273;
},
{
layerId = "0FE7234A-0103-4F7B-BAB8-33CF7CB7E092";
shapes = (
{
closed = 1;
nodes = (
(8,-206,l),
(38,-206,l),
(268,812,l),
(238,812,l)
);
}
);
width = 254;
}
);
unicode = 124;
}
{
glyphname = braceright;
layers = (
{
layerId = "E1414F7C-7342-42E0-9F1C-475EAD3EF451";
shapes = (
{
closed = 1;
nodes = (
(54,-146,ls),
(134,-146,o),
(208,-126,o),
(234,-8,cs),
(254,82,o),
(232,120,o),
(244,174,cs),
(258,236,o),
(294,276,o),
(372,282,c),
(386,384,l),
(322,390,o),
(298,412,o),
(308,456,cs),
(320,514,o),
(366,568,o),
(382,640,cs),
(412,774,o),
(342,812,o),
(262,812,cs),
(194,812,l),
(168,698,l),
(198,698,ls),
(224,698,o),
(264,706,o),
(254,658,cs),
(242,604,o),
(198,540,o),
(186,474,c),
(164,390,o),
(192,352,o),
(242,338,c),
(232,334,l),
(176,322,o),
(142,292,o),
(128,216,c),
(106,130,o),
(120,74,o),
(114,40,c),
(96,-32,o),
(40,-30,o),
(24,-30,cs),
(4,-30,l),
(-24,-146,l)
);
}
);
width = 398;
},
{
layerId = "39EADFFA-F378-45E3-ACCF-69574A40D336";
shapes = (
{
closed = 1;
nodes = (
(19,-146,ls),
(93,-146,o),
(162,-130,o),
(189,-10,cs),
(207,74,o),
(193,139,o),
(207,203,c),
(220,257,o),
(258,304,o),
(334,308,c),
(342,372,l),
(274,375,o),
(254,407,o),
(263,449,cs),
(278,517,o),
(323,577,o),
(340,651,cs),
(368,779,o),
(305,812,o),
(230,812,cs),
(180,812,l),
(164,741,l),
(196,741,l),
(245,742,o),
(273,722,o),
(259,660,cs),
(245,599,o),
(203,539,o),
(188,466,c),
(170,395,o),
(192,356,o),
(235,343,c),
(228,339,l),
(179,326,o),
(146,289,o),
(133,221,c),
(113,139,o),
(124,70,o),
(114,18,c),
(95,-59,o),
(46,-74,o),
(5,-73,c),
(-20,-73,l),
(-38,-146,l)
);
}
);
width = 355;
},
{
layerId = "0FE7234A-0103-4F7B-BAB8-33CF7CB7E092";
shapes = (
{
closed = 1;
nodes = (
(-16,-146,ls),
(52,-146,o),
(116,-134,o),
(144,-12,cs),
(160,66,o),
(154,158,o),
(170,232,c),
(182,278,o),
(222,332,o),
(296,334,c),
(298,360,l),
(226,360,o),
(210,402,o),
(218,442,c),
(236,520,o),
(280,586,o),
(298,662,cs),
(324,784,o),
(268,812,o),
(198,812,cs),
(166,812,l),
(160,784,l),
(194,784,l),
(266,786,o),
(282,738,o),
(264,662,cs),
(248,594,o),
(208,538,o),
(190,458,cs),
(176,400,o),
(192,360,o),
(228,348,c),
(224,344,l),
(182,330,o),
(150,286,o),
(138,226,c),
(120,148,o),
(128,66,o),
(114,-4,c),
(94,-86,o),
(52,-118,o),
(-14,-116,c),
(-44,-116,l),
(-52,-146,l)
);
}
);
width = 312;
}
);
leftKerningGroup = PCT_BRACERIGHT;
unicode = 125;
}
{
glyphname = asciitilde;
layers = (
{
layerId = "9C023954-B0F0-4AC3-996A-DC35BCD11D7C";
shapes = (
{
closed = 1;
nodes = (
(168,192,l),
(178,240,o),
(204,276,o),
(236,276,cs),
(286,276,o),
(306,196,o),
(402,196,cs),
(504,196,o),
(588,294,o),
(618,426,c),
(470,426,l),
(460,376,o),
(436,338,o),
(398,338,cs),
(346,338,o),
(332,422,o),
(234,422,cs),
(136,422,o),
(50,324,o),
(18,192,c)
);
}
);
width = 616;
},
{
layerId = "169D7F5A-B55B-498B-8A7E-44B3106F6DC0";
shapes = (
{
closed = 1;
nodes = (
(116,216,l),
(127,266,o),
(165,307,o),
(209,307,cs),
(276,307,o),
(290,219,o),
(385,219,c),
(473,220,o),
(545,300,o),
(566,397,c),
(477,397,l),
(466,348,o),
(431,305,o),
(383,305,cs),
(318,305,o),
(306,394,o),
(208,394,cs),
(123,394,o),
(50,315,o),
(26,216,c)
);
}
);
width = 571;
},
{
layerId = "1CFA5324-D054-4A76-8DD1-A1279E18B2E8";
shapes = (
{
closed = 1;
nodes = (
(64,240,l),
(76,292,o),
(125,338,o),
(182,338,cs),
(265,338,o),
(274,242,o),
(368,242,cs),
(442,243,o),
(501,306,o),
(514,368,c),
(484,368,l),
(472,320,o),
(425,272,o),
(368,272,cs),
(290,272,o),
(279,366,o),
(182,366,cs),
(109,366,o),
(50,306,o),
(34,240,c)
);
}
);
width = 526;
}
);
unicode = 126;
}
{
glyphname = exclamdown;
layers = (
{
layerId = "E1414F7C-7342-42E0-9F1C-475EAD3EF451";
shapes = (
{
closed = 1;
nodes = (
(260,292,l),
(120,292,l),
(-14,-192,l),
(174,-192,l)
);
},
{
closed = 1;
nodes = (
(171,536,o),
(125,492,o),
(123,436,cs),
(121,380,o),
(163,336,o),
(221,336,cs),
(275,336,o),
(321,380,o),
(323,436,cs),
(325,492,o),
(282,536,o),
(225,536,cs)
);
}
);
width = 368;
},
{
layerId = "39EADFFA-F378-45E3-ACCF-69574A40D336";
shapes = (
{
closed = 1;
nodes = (
(211,279,l),
(126,279,l),
(4,-200,l),
(113,-200,l)
);
},
{
closed = 1;
nodes = (
(157,528,o),
(125,497,o),
(124,457,cs),
(123,417,o),
(153,386,o),
(194,386,cs),
(233,386,o),
(265,417,o),
(266,457,cs),
(267,497,o),
(236,528,o),
(196,528,cs)
);
}
);
width = 313;
},
{
layerId = "0FE7234A-0103-4F7B-BAB8-33CF7CB7E092";
shapes = (
{
closed = 1;
nodes = (
(148,266,l),
(118,266,l),
(8,-208,l),
(38,-208,l)
);
},
{
closed = 1;
nodes = (
(145,520,o),
(127,502,o),
(127,478,cs),
(127,454,o),
(145,436,o),
(169,436,cs),
(193,436,o),
(211,454,o),
(211,478,cs),
(211,502,o),
(193,520,o),
(169,520,cs)
);
}
);
width = 258;
}
);
unicode = 161;
}
{
glyphname = cent;
layers = (
{
anchors = (
{
name = base;
position = "{348, 0}";
},
{
name = bottom;
position = "{240, 0}";
},
{
name = cedilla;
position = "{246, 0}";
},
{
name = top;
position = "{366, 528}";
}
);
layerId = "E1414F7C-7342-42E0-9F1C-475EAD3EF451";
shapes = (
{
closed = 1;
nodes = (
(332,638,l),
(302,496,l),
(296,428,l),
(222,106,l),
(192,20,l),
(160,-124,l),
(242,-124,l),
(274,18,l),
(284,106,l),
(358,428,l),
(382,494,l),
(414,638,l)
);
},
{
closed = 1;
nodes = (
(310,-6,o),
(366,8,o),
(406,30,c),
(374,182,l),
(350,162,o),
(308,142,o),
(268,142,cs),
(202,142,o),
(172,190,o),
(186,250,c),
(202,328,o),
(268,388,o),
(340,388,cs),
(372,388,o),
(400,380,o),
(420,356,c),
(504,484,l),
(466,514,o),
(414,536,o),
(354,536,cs),
(216,536,o),
(70,430,o),
(36,282,cs),
(0,120,o),
(98,-6,o),
(256,-6,cs)
);
}
);
width = 478;
},
{
anchors = (
{
name = base;
position = "{342, 0}";
},
{
name = bottom;
position = "{232, 0}";
},
{
name = cedilla;
position = "{238, 0}";
},
{
name = top;
position = "{354, 520}";
}
);
layerId = "39EADFFA-F378-45E3-ACCF-69574A40D336";
shapes = (
{
closed = 1;
nodes = (
(322,638,l),
(290,498,l),
(282,460,l),
(184,34,l),
(176,-8,l),
(148,-124,l),
(228,-124,l),
(256,-8,l),
(264,34,l),
(362,460,l),
(370,498,l),
(402,638,l)
);
},
{
closed = 1;
nodes = (
(300,-6,o),
(358,14,o),
(406,44,c),
(388,132,l),
(356,106,o),
(306,84,o),
(258,84,cs),
(166,84,o),
(116,160,o),
(138,260,cs),
(162,364,o),
(254,440,o),
(344,440,cs),
(380,440,o),
(424,426,o),
(448,396,c),
(500,478,l),
(466,510,o),
(412,528,o),
(356,528,cs),
(226,528,o),
(80,420,o),
(46,264,c),
(10,112,o),
(102,-6,o),
(242,-6,cs)
);
}
);
width = 486;
},
{
anchors = (
{
name = base;
position = "{327, 0}";
},
{
name = bottom;
position = "{217, 0}";
},
{
name = cedilla;
position = "{225, 0}";
},
{
name = top;
position = "{333, 512}";
}
);
layerId = "0FE7234A-0103-4F7B-BAB8-33CF7CB7E092";
shapes = (
{
closed = 1;
nodes = (
(345,638,l),
(315,502,l),
(313,490,l),
(207,26,l),
(205,16,l),
(173,-124,l),
(201,-124,l),
(233,16,l),
(235,26,l),
(341,490,l),
(343,504,l),
(373,638,l)
);
},
{
closed = 1;
nodes = (
(285,-6,o),
(343,13,o),
(393,52,c),
(385,84,l),
(352,51,o),
(291,24,o),
(231,24,cs),
(123,24,o),
(55,125,o),
(85,256,cs),
(116,393,o),
(238,492,o),
(345,492,cs),
(384,492,o),
(442,475,o),
(465,440,c),
(485,468,l),
(451,499,o),
(398,520,o),
(347,520,cs),
(228,520,o),
(91,413,o),
(57,260,cs),
(21,107,o),
(105,-6,o),
(229,-6,cs)
);
}
);
width = 487;
}
);
unicode = 162;
}
{
glyphname = sterling;
layers = (
{
layerId = "EF07516E-CE4D-469D-8301-1491E725ACEB";
shapes = (
{
closed = 1;
nodes = (
(494,0,l),
(526,144,l),
(214,144,l),
(218,144,l),
(246,170,o),
(274,226,o),
(288,290,cs),
(308,374,o),
(306,424,o),
(318,476,cs),
(336,556,o),
(376,578,o),
(424,578,cs),
(460,578,o),
(516,568,o),
(540,526,c),
(626,662,l),
(574,702,o),
(504,726,o),
(434,726,cs),
(304,726,o),
(186,650,o),
(158,528,cs),
(138,442,o),
(158,392,o),
(140,314,cs),
(114,204,o),
(40,126,o),
(2,116,c),
(-20,0,l)
);
},
{
closed = 1;
nodes = (
(466,302,l),
(494,426,l),
(76,426,l),
(48,302,l)
);
}
);
width = 616;
},
{
layerId = "C82BF5B4-EE1A-4CB4-A2C0-4E66566823BE";
shapes = (
{
closed = 1;
nodes = (
(444,0,l),
(466,92,l),
(138,92,l),
(140,94,l),
(182,132,o),
(224,212,o),
(240,290,c),
(260,372,o),
(250,450,o),
(264,516,c),
(284,600,o),
(342,634,o),
(404,632,c),
(452,632,o),
(514,612,o),
(544,570,c),
(598,664,l),
(550,706,o),
(480,728,o),
(416,728,cs),
(302,728,o),
(194,650,o),
(166,530,cs),
(148,452,o),
(170,380,o),
(150,290,c),
(126,190,o),
(52,90,o),
(8,70,c),
(-8,0,l)
);
},
{
closed = 1;
nodes = (
(434,324,l),
(454,412,l),
(94,412,l),
(74,324,l)
);
}
);
width = 560;
},
{
layerId = "960527DE-BC0D-48AB-B834-0D46F4119FDB";
shapes = (
{
closed = 1;
nodes = (
(402,0,l),
(408,28,l),
(58,28,l),
(60,30,l),
(114,78,o),
(172,192,o),
(188,276,c),
(212,366,o),
(190,468,o),
(206,540,cs),
(228,638,o),
(312,700,o),
(386,698,c),
(446,698,o),
(508,676,o),
(542,630,c),
(558,660,l),
(518,706,o),
(452,728,o),
(386,728,cs),
(296,728,o),
(202,656,o),
(176,546,cs),
(160,470,o),
(180,372,o),
(160,280,cs),
(132,164,o),
(56,54,o),
(8,24,c),
(4,0,l)
);
},
{
closed = 1;
nodes = (
(388,356,l),
(396,384,l),
(108,384,l),
(100,356,l)
);
}
);
width = 504;
}
);
unicode = 163;
}
{
glyphname = currency;
layers = (
{
layerId = "9C023954-B0F0-4AC3-996A-DC35BCD11D7C";
shapes = (
{
closed = 1;
nodes = (
(80,222,o),
(162,120,o),
(296,120,cs),
(424,120,o),
(538,206,o),
(564,324,cs),
(596,458,o),
(514,560,o),
(378,560,cs),
(252,560,o),
(138,474,o),
(110,356,cs)
);
},
{
closed = 1;
nodes = (
(424,292,o),
(366,240,o),
(306,240,cs),
(256,240,o),
(226,276,o),
(238,324,c),
(252,388,o),
(310,438,o),
(368,438,cs),
(420,438,o),
(450,404,o),
(438,356,c)
);
},
{
closed = 1;
nodes = (
(292,528,l),
(212,636,l),
(106,546,l),
(178,446,l)
);
},
{
closed = 1;
nodes = (
(552,446,l),
(664,546,l),
(596,636,l),
(470,528,l)
);
},
{
closed = 1;
nodes = (
(386,154,l),
(468,44,l),
(570,130,l),
(496,230,l)
);
},
{
closed = 1;
nodes = (
(126,230,l),
(12,130,l),
(84,44,l),
(210,154,l)
);
}
);
width = 642;
},
{
layerId = "169D7F5A-B55B-498B-8A7E-44B3106F6DC0";
shapes = (
{
closed = 1;
nodes = (
(77,223,o),
(150,131,o),
(270,131,cs),
(387,131,o),
(491,213,o),
(516,324,cs),
(544,445,o),
(472,536,o),
(351,536,cs),
(235,536,o),
(130,455,o),
(104,342,cs)
);
},
{
closed = 1;
nodes = (
(421,266,o),
(351,207,o),
(276,206,c),
(208,207,o),
(168,256,o),
(184,324,cs),
(201,401,o),
(271,460,o),
(345,459,c),
(414,460,o),
(454,411,o),
(438,342,cs)
);
},
{
closed = 1;
nodes = (
(246,498,l),
(175,600,l),
(110,541,l),
(177,446,l)
);
},
{
closed = 1;
nodes = (
(499,446,l),
(607,541,l),
(564,600,l),
(450,498,l)
);
},
{
closed = 1;
nodes = (
(376,169,l),
(448,67,l),
(512,122,l),
(443,219,l)
);
},
{
closed = 1;
nodes = (
(123,219,l),
(15,122,l),
(59,67,l),
(173,169,l)
);
}
);
width = 588;
},
{
layerId = "1CFA5324-D054-4A76-8DD1-A1279E18B2E8";
shapes = (
{
closed = 1;
nodes = (
(74,224,o),
(138,142,o),
(244,142,cs),
(350,142,o),
(444,220,o),
(468,324,cs),
(492,432,o),
(430,512,o),
(324,512,cs),
(218,512,o),
(122,436,o),
(98,328,cs)
);
},
{
closed = 1;
nodes = (
(418,240,o),
(336,174,o),
(246,172,c),
(160,174,o),
(110,236,o),
(130,324,cs),
(150,414,o),
(232,482,o),
(322,480,c),
(408,482,o),
(458,418,o),
(438,328,cs)
);
},
{
closed = 1;
nodes = (
(200,468,l),
(138,564,l),
(114,536,l),
(176,446,l)
);
},
{
closed = 1;
nodes = (
(446,446,l),
(550,536,l),
(532,564,l),
(430,468,l)
);
},
{
closed = 1;
nodes = (
(366,184,l),
(428,90,l),
(454,114,l),
(390,208,l)
);
},
{
closed = 1;
nodes = (
(120,208,l),
(18,114,l),
(34,90,l),
(136,184,l)
);
}
);
width = 534;
}
);
unicode = 164;
}
{
glyphname = yen;
layers = (
{
anchors = (
{
name = bottom;
position = "{236, -24}";
},
{
name = top;
position = "{408, 740}";
}
);
layerId = "9C023954-B0F0-4AC3-996A-DC35BCD11D7C";
shapes = (
{
closed = 1;
nodes = (
(88,358,l),
(68,276,l),
(536,276,l),
(556,358,l)
);
},
{
closed = 1;
nodes = (
(52,206,l),
(34,124,l),
(502,124,l),
(520,206,l)
);
},
{
closed = 1;
nodes = (
(162,0,l),
(318,0,l),
(382,276,l),
(692,716,l),
(512,716,l),
(434,594,l),
(336,428,l),
(332,428,l),
(308,594,l),
(290,716,l),
(112,716,l),
(226,276,l)
);
}
);
width = 598;
},
{
anchors = (
{
name = bottom;
position = "{224, -24}";
},
{
name = top;
position = "{396, 746}";
}
);
layerId = "169D7F5A-B55B-498B-8A7E-44B3106F6DC0";
shapes = (
{
closed = 1;
nodes = (
(104,366,l),
(86,284,l),
(502,284,l),
(520,366,l)
);
},
{
closed = 1;
nodes = (
(70,218,l),
(52,136,l),
(468,136,l),
(486,218,l)
);
},
{
closed = 1;
nodes = (
(176,0,l),
(280,0,l),
(346,288,l),
(652,716,l),
(546,716,l),
(424,550,l),
(318,396,l),
(314,396,l),
(276,550,l),
(234,716,l),
(126,716,l),
(242,288,l)
);
}
);
width = 572;
},
{
anchors = (
{
name = bottom;
position = "{212, -24}";
},
{
name = top;
position = "{386, 750}";
}
);
layerId = "1CFA5324-D054-4A76-8DD1-A1279E18B2E8";
shapes = (
{
closed = 1;
nodes = (
(108,326,l),
(102,298,l),
(464,298,l),
(470,326,l)
);
},
{
closed = 1;
nodes = (
(84,220,l),
(78,192,l),
(440,192,l),
(446,220,l)
);
},
{
closed = 1;
nodes = (
(198,0,l),
(232,0,l),
(300,300,l),
(612,716,l),
(578,716,l),
(410,490,l),
(292,332,l),
(286,332,l),
(240,490,l),
(178,716,l),
(140,716,l),
(266,300,l)
);
}
);
width = 544;
}
);
unicode = 165;
}
{
glyphname = brokenbar;
layers = (
{
layerId = "9C023954-B0F0-4AC3-996A-DC35BCD11D7C";
shapes = (
{
closed = 1;
nodes = (
(118,394,l),
(232,394,l),
(326,812,l),
(212,812,l)
);
},
{
closed = 1;
nodes = (
(-18,-206,l),
(96,-206,l),
(190,212,l),
(76,212,l)
);
}
);
width = 290;
},
{
layerId = "169D7F5A-B55B-498B-8A7E-44B3106F6DC0";
shapes = (
{
closed = 1;
nodes = (
(128,379,l),
(200,379,l),
(298,812,l),
(226,812,l)
);
},
{
closed = 1;
nodes = (
(-5,-206,l),
(68,-206,l),
(166,228,l),
(94,228,l)
);
}
);
width = 273;
},
{
layerId = "1CFA5324-D054-4A76-8DD1-A1279E18B2E8";
shapes = (
{
closed = 1;
nodes = (
(137,364,l),
(167,364,l),
(269,812,l),
(239,812,l)
);
},
{
closed = 1;
nodes = (
(9,-206,l),
(39,-206,l),
(141,244,l),
(111,244,l)
);
}
);
width = 255;
}
);
unicode = 166;
}
{
glyphname = section;
layers = (
{
layerId = "E1414F7C-7342-42E0-9F1C-475EAD3EF451";
shapes = (
{
closed = 1;
nodes = (
(332,-136,o),
(438,-68,o),
(464,40,c),
(484,136,o),
(434,186,o),
(362,204,c),
(360,156,l),
(458,188,o),
(518,226,o),
(536,308,cs),
(560,410,o),
(506,452,o),
(418,482,c),
(364,506,o),
(310,514,o),
(318,550,cs),
(326,582,o),
(354,608,o),
(386,606,c),
(426,608,o),
(444,580,o),
(448,550,c),
(582,598,l),
(566,676,o),
(490,732,o),
(392,732,cs),
(280,732,o),
(192,666,o),
(168,574,c),
(150,482,o),
(202,440,o),
(266,420,c),
(268,466,l),
(172,436,o),
(112,378,o),
(96,310,cs),
(76,222,o),
(120,150,o),
(222,122,c),
(268,106,o),
(322,104,o),
(312,62,cs),
(302,22,o),
(270,-4,o),
(234,-2,c),
(190,-4,o),
(168,34,o),
(158,62,c),
(22,0,l),
(36,-72,o),
(114,-136,o),
(218,-136,cs)
);
},
{
closed = 1;
nodes = (
(240,236,o),
(216,256,o),
(224,288,c),
(234,336,o),
(280,372,o),
(336,372,cs),
(382,372,o),
(406,352,o),
(398,320,c),
(388,272,o),
(344,236,o),
(286,236,cs)
);
}
);
width = 578;
},
{
layerId = "39EADFFA-F378-45E3-ACCF-69574A40D336";
shapes = (
{
closed = 1;
nodes = (
(304,-134,o),
(400,-60,o),
(422,38,c),
(442,120,o),
(392,164,o),
(342,184,c),
(338,158,l),
(414,182,o),
(468,232,o),
(484,308,c),
(508,408,o),
(444,452,o),
(386,474,cs),
(340,492,o),
(262,508,o),
(278,578,cs),
(290,626,o),
(332,646,o),
(372,648,c),
(412,648,o),
(450,624,o),
(462,586,c),
(544,622,l),
(532,682,o),
(464,730,o),
(384,730,cs),
(288,730,o),
(206,666,o),
(188,586,c),
(170,514,o),
(210,454,o),
(268,432,c),
(270,456,l),
(186,432,o),
(130,376,o),
(112,304,c),
(96,226,o),
(142,172,o),
(214,144,cs),
(260,126,o),
(342,112,o),
(324,34,c),
(314,-14,o),
(266,-50,o),
(212,-52,c),
(164,-52,o),
(122,-20,o),
(112,26,c),
(28,-16,l),
(42,-84,o),
(112,-134,o),
(200,-134,cs)
);
},
{
closed = 1;
nodes = (
(220,212,o),
(190,252,o),
(202,304,cs),
(214,358,o),
(266,398,o),
(324,396,c),
(378,396,o),
(408,360,o),
(396,306,cs),
(384,252,o),
(330,212,o),
(274,212,cs)
);
}
);
width = 552;
},
{
layerId = "0FE7234A-0103-4F7B-BAB8-33CF7CB7E092";
shapes = (
{
closed = 1;
nodes = (
(264,-132,o),
(348,-76,o),
(370,20,cs),
(388,98,o),
(350,144,o),
(296,168,c),
(298,162,l),
(362,174,o),
(430,222,o),
(448,304,cs),
(474,410,o),
(400,452,o),
(338,460,c),
(266,476,o),
(216,520,o),
(234,596,cs),
(248,662,o),
(302,698,o),
(368,696,c),
(436,698,o),
(466,662,o),
(478,626,c),
(508,642,l),
(496,680,o),
(452,728,o),
(370,728,cs),
(286,728,o),
(222,678,o),
(204,602,cs),
(188,530,o),
(224,470,o),
(274,448,c),
(274,454,l),
(208,444,o),
(142,390,o),
(122,312,c),
(104,224,o),
(154,166,o),
(244,154,cs),
(286,148,o),
(362,114,o),
(340,24,c),
(324,-50,o),
(250,-104,o),
(180,-102,c),
(118,-104,o),
(74,-66,o),
(66,-10,c),
(34,-26,l),
(48,-80,o),
(98,-132,o),
(178,-132,cs)
);
},
{
closed = 1;
nodes = (
(182,184,o),
(138,236,o),
(152,304,c),
(170,378,o),
(242,432,o),
(322,434,c),
(396,432,o),
(436,382,o),
(418,308,c),
(404,240,o),
(336,184,o),
(258,182,c)
);
}
);
width = 528;
}
);
unicode = 167;
}
{
glyphname = copyright;
layers = (
{
layerId = "9C023954-B0F0-4AC3-996A-DC35BCD11D7C";
shapes = (
{
closed = 1;
nodes = (
(454,156,o),
(516,188,o),
(562,236,c),
(478,314,l),
(460,294,o),
(424,270,o),
(390,270,cs),
(354,270,o),
(324,304,o),
(332,346,c),
(344,396,o),
(390,450,o),
(450,450,cs),
(480,450,o),
(496,440,o),
(504,422,c),
(614,470,l),
(582,526,o),
(532,564,o),
(460,564,cs),
(352,564,o),
(250,490,o),
(224,378,cs),
(196,258,o),
(260,156,o),
(382,156,cs)
);
},
{
closed = 1;
nodes = (
(2,154,o),
(124,-8,o),
(334,-8,cs),
(538,-8,o),
(724,138,o),
(770,342,cs),
(820,564,o),
(698,732,o),
(486,732,cs),
(284,732,o),
(98,580,o),
(48,374,c)
);
},
{
closed = 1;
nodes = (
(638,210,o),
(496,86,o),
(340,86,cs),
(196,86,o),
(112,194,o),
(146,342,cs),
(184,508,o),
(328,634,o),
(482,634,cs),
(628,634,o),
(710,524,o),
(674,374,cs)
);
}
);
width = 794;
},
{
layerId = "169D7F5A-B55B-498B-8A7E-44B3106F6DC0";
shapes = (
{
closed = 1;
nodes = (
(466,154,o),
(529,190,o),
(567,230,c),
(513,278,l),
(488,254,o),
(448,225,o),
(400,225,cs),
(335,225,o),
(292,283,o),
(306,353,c),
(324,428,o),
(395,493,o),
(473,493,cs),
(503,493,o),
(538,485,o),
(552,449,c),
(622,478,l),
(597,530,o),
(547,566,o),
(478,567,c),
(372,566,o),
(265,486,o),
(238,371,cs),
(210,250,o),
(282,154,o),
(394,154,cs)
);
},
{
closed = 1;
nodes = (
(24,153,o),
(146,-8,o),
(355,-8,cs),
(561,-8,o),
(749,143,o),
(795,350,cs),
(845,567,o),
(723,730,o),
(512,730,cs),
(308,730,o),
(120,577,o),
(71,368,cs)
);
},
{
closed = 1;
nodes = (
(692,189,o),
(533,54,o),
(359,53,cs),
(193,54,o),
(96,179,o),
(134,350,cs),
(176,531,o),
(337,668,o),
(510,667,cs),
(677,668,o),
(772,541,o),
(732,368,cs)
);
}
);
width = 822;
},
{
layerId = "1CFA5324-D054-4A76-8DD1-A1279E18B2E8";
shapes = (
{
closed = 1;
nodes = (
(478,152,o),
(542,192,o),
(572,224,c),
(548,242,l),
(516,214,o),
(472,180,o),
(410,180,cs),
(316,180,o),
(260,262,o),
(280,360,c),
(304,460,o),
(400,536,o),
(496,536,cs),
(526,536,o),
(580,530,o),
(600,476,c),
(630,486,l),
(612,534,o),
(562,568,o),
(496,570,c),
(392,568,o),
(280,482,o),
(252,364,cs),
(224,242,o),
(304,152,o),
(406,152,cs)
);
},
{
closed = 1;
nodes = (
(30,152,o),
(152,-8,o),
(360,-8,cs),
(568,-8,o),
(758,148,o),
(804,358,cs),
(854,570,o),
(732,728,o),
(522,728,cs),
(316,728,o),
(126,574,o),
(78,362,cs)
);
},
{
closed = 1;
nodes = (
(730,168,o),
(554,22,o),
(362,20,cs),
(174,22,o),
(64,164,o),
(106,358,cs),
(152,554,o),
(330,702,o),
(522,700,cs),
(710,702,o),
(818,558,o),
(774,362,cs)
);
}
);
width = 850;
}
);
leftKerningGroup = LAT_O_UC;
rightKerningGroup = LAT_O_UC;
unicode = 169;
}
{
glyphname = ordfeminine;
layers = (
{
layerId = "E1414F7C-7342-42E0-9F1C-475EAD3EF451";
shapes = (
{
closed = 1;
nodes = (
(378,391,l),
(454,721,l),
(338,721,l),
(330,685,l),
(318,685,l),
(320,650,l),
(270,446,l),
(260,430,l),
(273,430,l),
(264,391,l)
);
},
{
closed = 1;
nodes = (
(251,386,o),
(327,444,o),
(350,539,c),
(372,637,o),
(325,726,o),
(243,726,cs),
(189,726,o),
(104,691,o),
(76,566,cs),
(50,453,o),
(100,386,o),
(179,386,cs)
);
},
{
closed = 1;
nodes = (
(198,488,o),
(185,509,o),
(190,545,c),
(198,592,o),
(227,625,o),
(262,625,cs),
(290,625,o),
(303,603,o),
(298,568,c),
(291,528,o),
(267,488,o),
(227,488,cs)
);
}
);
width = 370;
},
{
layerId = "39EADFFA-F378-45E3-ACCF-69574A40D336";
shapes = (
{
closed = 1;
nodes = (
(356,391,l),
(431,721,l),
(349,721,l),
(341,683,l),
(332,683,l),
(338,659,l),
(287,447,l),
(274,429,l),
(283,429,l),
(274,391,l)
);
},
{
closed = 1;
nodes = (
(269,386,o),
(338,458,o),
(358,548,cs),
(379,646,o),
(335,726,o),
(249,726,cs),
(178,726,o),
(101,671,o),
(78,567,cs),
(54,457,o),
(112,386,o),
(190,386,cs)
);
},
{
closed = 1;
nodes = (
(167,458,o),
(144,498,o),
(155,552,cs),
(166,609,o),
(206,654,o),
(254,654,cs),
(299,654,o),
(324,615,o),
(313,561,c),
(302,508,o),
(265,458,o),
(214,458,cs)
);
}
);
width = 358;
},
{
layerId = "0FE7234A-0103-4F7B-BAB8-33CF7CB7E092";
shapes = (
{
closed = 1;
nodes = (
(337,390,l),
(412,720,l),
(379,720,l),
(364,655,l),
(356,655,l),
(361,637,l),
(324,473,l),
(311,457,l),
(319,457,l),
(304,390,l)
);
},
{
closed = 1;
nodes = (
(266,385,o),
(341,439,o),
(364,551,cs),
(389,662,o),
(340,725,o),
(259,725,cs),
(175,725,o),
(108,657,o),
(87,559,cs),
(64,451,o),
(114,385,o),
(194,385,cs)
);
},
{
closed = 1;
nodes = (
(139,416,o),
(98,465,o),
(117,551,cs),
(135,635,o),
(193,695,o),
(259,695,cs),
(322,695,o),
(360,641,o),
(341,557,cs),
(323,472,o),
(265,416,o),
(200,416,cs)
);
}
);
width = 356;
}
);
leftKerningGroup = PCT_QUOTE;
rightKerningGroup = PCT_QUOTE;
unicode = 170;
}
{
glyphname = logicalnot;
layers = (
{
layerId = "EF07516E-CE4D-469D-8301-1491E725ACEB";
shapes = (
{
closed = 1;
nodes = (
(362,70,l),
(510,70,l),
(580,382,l),
(58,382,l),
(26,234,l),
(400,234,l)
);
}
);
width = 587;
},
{
layerId = "C82BF5B4-EE1A-4CB4-A2C0-4E66566823BE";
shapes = (
{
closed = 1;
nodes = (
(368,71,l),
(456,71,l),
(519,350,l),
(52,350,l),
(33,262,l),
(412,262,l)
);
}
);
width = 532;
},
{
layerId = "960527DE-BC0D-48AB-B834-0D46F4119FDB";
shapes = (
{
closed = 1;
nodes = (
(374,72,l),
(402,72,l),
(458,318,l),
(46,318,l),
(40,290,l),
(424,290,l)
);
}
);
width = 476;
}
);
leftKerningGroup = PCT_EMDASH;
unicode = 172;
}
{
glyphname = registered;
layers = (
{
layerId = "E1414F7C-7342-42E0-9F1C-475EAD3EF451";
shapes = (
{
closed = 1;
nodes = (
(374,452,l),
(456,452,ls),
(484,452,o),
(498,446,o),
(494,428,cs),
(486,396,o),
(458,370,o),
(428,370,cs),
(356,370,l),
(336,284,l),
(390,284,ls),
(500,284,o),
(574,328,o),
(592,404,cs),
(612,492,o),
(556,542,o),
(450,542,cs),
(396,542,l)
);
},
{
closed = 1;
nodes = (
(416,542,l),
(306,542,l),
(220,168,l),
(330,168,l)
);
},
{
closed = 1;
nodes = (
(400,296,l),
(432,168,l),
(548,168,l),
(488,362,l)
);
},
{
closed = 1;
nodes = (
(2,154,o),
(124,-8,o),
(334,-8,cs),
(538,-8,o),
(724,138,o),
(770,342,cs),
(820,564,o),
(698,732,o),
(486,732,cs),
(284,732,o),
(98,580,o),
(48,374,c)
);
},
{
closed = 1;
nodes = (
(638,210,o),
(496,86,o),
(340,86,cs),
(196,86,o),
(112,194,o),
(146,342,cs),
(184,508,o),
(328,634,o),
(482,634,cs),
(628,634,o),
(710,524,o),
(674,374,cs)
);
}
);
width = 794;
},
{
layerId = "39EADFFA-F378-45E3-ACCF-69574A40D336";
shapes = (
{
closed = 1;
nodes = (
(374,492,l),
(476,492,ls),
(523,492,o),
(545,473,o),
(537,438,cs),
(527,397,o),
(489,364,o),
(441,364,cs),
(346,364,l),
(332,306,l),
(422,306,ls),
(516,306,o),
(585,353,o),
(601,425,cs),
(619,503,o),
(569,552,o),
(477,552,cs),
(389,552,l)
);
},
{
closed = 1;
nodes = (
(408,552,l),
(337,552,l),
(248,163,l),
(319,163,l)
);
},
{
closed = 1;
nodes = (
(416,312,l),
(474,163,l),
(550,163,l),
(473,355,l)
);
},
{
closed = 1;
nodes = (
(24,153,o),
(146,-8,o),
(355,-8,cs),
(561,-8,o),
(749,143,o),
(795,350,cs),
(845,567,o),
(723,730,o),
(512,730,cs),
(308,730,o),
(120,577,o),
(71,368,cs)
);
},
{
closed = 1;
nodes = (
(692,189,o),
(533,54,o),
(359,53,cs),
(193,54,o),
(96,179,o),
(134,350,cs),
(176,531,o),
(337,668,o),
(510,667,cs),
(677,668,o),
(772,541,o),
(732,368,cs)
);
}
);
width = 822;
},
{
layerId = "0FE7234A-0103-4F7B-BAB8-33CF7CB7E092";
shapes = (
{
closed = 1;
nodes = (
(374,532,l),
(496,532,ls),
(562,532,o),
(592,500,o),
(580,448,cs),
(568,398,o),
(520,358,o),
(454,358,cs),
(336,358,l),
(328,328,l),
(454,328,ls),
(532,328,o),
(596,378,o),
(610,446,c),
(626,514,o),
(582,562,o),
(504,562,cs),
(382,562,l)
);
},
{
closed = 1;
nodes = (
(400,562,l),
(368,562,l),
(276,158,l),
(308,158,l)
);
},
{
closed = 1;
nodes = (
(432,328,l),
(516,158,l),
(552,158,l),
(458,348,l)
);
},
{
closed = 1;
nodes = (
(30,152,o),
(152,-8,o),
(360,-8,cs),
(568,-8,o),
(758,148,o),
(804,358,cs),
(854,570,o),
(732,728,o),
(522,728,cs),
(316,728,o),
(126,574,o),
(78,362,cs)
);
},
{
closed = 1;
nodes = (
(730,168,o),
(554,22,o),
(362,20,cs),
(174,22,o),
(64,164,o),
(106,358,cs),
(152,554,o),
(330,702,o),
(522,700,cs),
(710,702,o),
(818,558,o),
(774,362,cs)
);
}
);
width = 850;
}
);
leftKerningGroup = LAT_O_UC;
rightKerningGroup = LAT_O_UC;
unicode = 174;
}
{
glyphname = degree;
layers = (
{
layerId = "E1414F7C-7342-42E0-9F1C-475EAD3EF451";
shapes = (
{
closed = 1;
nodes = (
(336,394,o),
(420,460,o),
(440,544,cs),
(462,646,o),
(404,728,o),
(304,728,cs),
(216,728,o),
(130,662,o),
(110,576,cs),
(88,476,o),
(148,394,o),
(246,394,cs)
);
},
{
closed = 1;
nodes = (
(218,492,o),
(196,514,o),
(204,544,c),
(214,592,o),
(258,630,o),
(300,630,cs),
(334,630,o),
(354,606,o),
(346,576,c),
(336,530,o),
(294,492,o),
(252,492,cs)
);
}
);
width = 416;
},
{
layerId = "39EADFFA-F378-45E3-ACCF-69574A40D336";
shapes = (
{
closed = 1;
nodes = (
(333,407,o),
(416,473,o),
(436,558,cs),
(457,652,o),
(400,728,o),
(306,728,cs),
(220,728,o),
(136,662,o),
(115,576,c),
(96,483,o),
(153,407,o),
(245,407,cs)
);
},
{
closed = 1;
nodes = (
(198,470,o),
(166,508,o),
(178,558,cs),
(191,617,o),
(248,665,o),
(304,665,cs),
(355,665,o),
(385,626,o),
(373,576,cs),
(360,518,o),
(305,470,o),
(248,470,cs)
);
}
);
width = 412;
},
{
layerId = "0FE7234A-0103-4F7B-BAB8-33CF7CB7E092";
shapes = (
{
closed = 1;
nodes = (
(330,420,o),
(412,486,o),
(432,572,cs),
(452,658,o),
(396,728,o),
(308,728,cs),
(224,728,o),
(142,662,o),
(120,576,c),
(104,490,o),
(158,420,o),
(244,420,cs)
);
},
{
closed = 1;
nodes = (
(178,448,o),
(136,502,o),
(152,572,cs),
(168,642,o),
(238,700,o),
(308,700,cs),
(376,700,o),
(416,646,o),
(400,576,cs),
(384,506,o),
(316,448,o),
(244,448,cs)
);
}
);
width = 408;
}
);
leftKerningGroup = PCT_QUOTE;
rightKerningGroup = PCT_QUOTE;
unicode = 176;
}
{
glyphname = plusminus;
layers = (
{
layerId = "E1414F7C-7342-42E0-9F1C-475EAD3EF451";
shapes = (
{
closed = 1;
nodes = (
(-50,-2,l),
(472,-2,l),
(505,146,l),
(-17,146,l)
);
},
{
closed = 1;
nodes = (
(36,378,l),
(558,378,l),
(592,526,l),
(70,526,l)
);
},
{
closed = 1;
nodes = (
(302,720,l),
(180,186,l),
(328,186,l),
(450,720,l)
);
}
);
width = 588;
},
{
layerId = "39EADFFA-F378-45E3-ACCF-69574A40D336";
shapes = (
{
closed = 1;
nodes = (
(-37,-1,l),
(422,-1,l),
(440,79,l),
(-19,79,l)
);
},
{
closed = 1;
nodes = (
(38,328,l),
(497,328,l),
(514,407,l),
(55,407,l)
);
},
{
closed = 1;
nodes = (
(291,606,l),
(183,130,l),
(263,130,l),
(371,606,l)
);
}
);
width = 524;
},
{
layerId = "0FE7234A-0103-4F7B-BAB8-33CF7CB7E092";
shapes = (
{
closed = 1;
nodes = (
(-27,0,l),
(385,0,l),
(391,28,l),
(-21,28,l)
);
},
{
closed = 1;
nodes = (
(39,290,l),
(451,290,l),
(457,318,l),
(45,318,l)
);
},
{
closed = 1;
nodes = (
(283,520,l),
(185,88,l),
(213,88,l),
(311,520,l)
);
}
);
width = 476;
}
);
unicode = 177;
}
{
glyphname = twosuperior;
layers = (
{
layerId = "E1414F7C-7342-42E0-9F1C-475EAD3EF451";
shapes = (
{
closed = 1;
nodes = (
(93,444,l),
(409,444,l),
(435,560,l),
(385,560,l),
(331,556,l),
(333,560,l),
(353,574,l),
(407,634,o),
(465,680,o),
(479,742,cs),
(499,834,o),
(441,896,o),
(343,896,cs),
(247,896,o),
(173,854,o),
(149,754,c),
(277,728,l),
(283,754,o),
(309,780,o),
(335,780,cs),
(349,780,o),
(359,776,o),
(355,764,c),
(345,718,o),
(287,670,o),
(249,630,cs),
(97,468,l)
);
}
);
width = 410;
},
{
layerId = "39EADFFA-F378-45E3-ACCF-69574A40D336";
shapes = (
{
closed = 1;
nodes = (
(91,444,l),
(391,444,l),
(409,519,l),
(309,519,l),
(248,517,l),
(250,521,l),
(322,587,l),
(387,652,o),
(443,698,o),
(459,764,c),
(475,843,o),
(424,896,o),
(339,896,cs),
(251,896,o),
(179,848,o),
(160,763,c),
(242,748,l),
(252,789,o),
(289,821,o),
(329,821,cs),
(364,821,o),
(383,796,o),
(375,764,cs),
(365,720,o),
(311,674,o),
(255,621,c),
(95,464,l)
);
}
);
width = 392;
},
{
layerId = "0FE7234A-0103-4F7B-BAB8-33CF7CB7E092";
shapes = (
{
closed = 1;
nodes = (
(91,444,l),
(369,444,l),
(375,472,l),
(219,472,l),
(145,472,l),
(147,474,l),
(285,598,ls),
(363,668,o),
(417,714,o),
(429,774,c),
(447,846,o),
(401,896,o),
(329,896,cs),
(253,896,o),
(187,844,o),
(171,774,c),
(201,766,l),
(213,822,o),
(269,868,o),
(327,868,cs),
(385,868,o),
(411,826,o),
(401,778,c),
(389,728,o),
(337,684,o),
(261,614,cs),
(93,458,l)
);
}
);
width = 374;
}
);
unicode = 178;
}
{
glyphname = threesuperior;
layers = (
{
layerId = "E1414F7C-7342-42E0-9F1C-475EAD3EF451";
shapes = (
{
closed = 1;
nodes = (
(343,440,o),
(421,486,o),
(435,552,c),
(455,634,o),
(393,686,o),
(297,686,c),
(299,654,l),
(387,654,o),
(453,686,o),
(467,750,cs),
(483,824,o),
(437,896,o),
(337,896,cs),
(259,896,o),
(190,855,o),
(166,787,c),
(279,754,l),
(283,770,o),
(303,788,o),
(327,788,cs),
(341,788,o),
(349,784,o),
(345,770,c),
(339,742,o),
(317,716,o),
(289,716,cs),
(274,716,l),
(250,624,l),
(277,624,ls),
(315,624,o),
(321,610,o),
(319,600,cs),
(313,572,o),
(287,548,o),
(259,548,cs),
(243,548,o),
(231,550,o),
(235,568,c),
(109,532,l),
(119,475,o),
(174,440,o),
(253,440,cs)
);
}
);
width = 410;
},
{
layerId = "39EADFFA-F378-45E3-ACCF-69574A40D336";
shapes = (
{
closed = 1;
nodes = (
(325,440,o),
(403,493,o),
(418,565,c),
(437,640,o),
(378,690,o),
(288,686,c),
(286,665,l),
(363,660,o),
(433,708,o),
(447,774,c),
(463,839,o),
(419,896,o),
(335,896,cs),
(262,896,o),
(198,859,o),
(176,794,c),
(248,767,l),
(255,798,o),
(286,821,o),
(321,821,cs),
(356,821,o),
(371,799,o),
(365,770,cs),
(357,736,o),
(324,709,o),
(283,709,cs),
(258,709,l),
(242,642,l),
(266,642,ls),
(324,642,o),
(347,616,o),
(339,582,cs),
(331,546,o),
(293,515,o),
(250,515,cs),
(220,515,o),
(196,530,o),
(195,557,c),
(110,528,l),
(116,472,o),
(167,440,o),
(238,440,cs)
);
}
);
width = 397;
},
{
layerId = "0FE7234A-0103-4F7B-BAB8-33CF7CB7E092";
shapes = (
{
closed = 1;
nodes = (
(305,440,o),
(379,494,o),
(393,564,c),
(411,638,o),
(355,692,o),
(275,686,c),
(275,676,l),
(339,670,o),
(405,724,o),
(419,788,cs),
(433,850,o),
(393,896,o),
(327,896,cs),
(259,896,o),
(201,850,o),
(186,790,c),
(209,782,l),
(223,832,o),
(273,868,o),
(323,868,cs),
(373,868,o),
(401,838,o),
(389,790,c),
(379,742,o),
(327,696,o),
(271,696,cs),
(253,696,l),
(245,668,l),
(257,668,ls),
(337,668,o),
(379,630,o),
(365,570,cs),
(353,512,o),
(293,468,o),
(231,468,cs),
(184,468,o),
(148,493,o),
(146,538,c),
(117,530,l),
(123,476,o),
(169,440,o),
(231,440,cs)
);
}
);
width = 383;
}
);
unicode = 179;
}
{
glyphname = micro;
layers = (
{
layerId = "EF07516E-CE4D-469D-8301-1491E725ACEB";
shapes = (
{
closed = 1;
nodes = (
(-44,-206,l),
(130,-206,l),
(296,528,l),
(122,528,l)
);
},
{
closed = 1;
nodes = (
(276,-8,o),
(344,46,o),
(412,136,c),
(390,232,l),
(360,190,o),
(320,132,o),
(260,132,cs),
(204,132,o),
(220,190,o),
(226,216,cs),
(296,528,l),
(122,528,l),
(48,202,ls),
(18,68,o),
(94,-8,o),
(190,-8,cs)
);
},
{
closed = 1;
nodes = (
(484,0,l),
(604,528,l),
(430,528,l),
(326,78,l),
(300,54,l),
(332,54,l),
(320,0,l)
);
}
);
width = 620;
},
{
anchors = (
{
name = bottom;
position = "{226, 0}";
},
{
name = horn;
position = "{508, 520}";
},
{
name = ogonek;
position = "{444, 0}";
},
{
name = top;
position = "{344, 520}";
}
);
layerId = "C82BF5B4-EE1A-4CB4-A2C0-4E66566823BE";
shapes = (
{
closed = 1;
nodes = (
(-40,-206,l),
(62,-206,l),
(226,520,l),
(124,520,l)
);
},
{
closed = 1;
nodes = (
(280,-8,o),
(362,42,o),
(410,104,c),
(402,192,l),
(372,124,o),
(296,76,o),
(228,76,cs),
(126,76,o),
(150,184,o),
(164,238,c),
(228,520,l),
(126,520,l),
(54,204,ls),
(24,76,o),
(74,-8,o),
(190,-8,cs)
);
},
{
closed = 1;
nodes = (
(444,0,l),
(564,520,l),
(460,520,l),
(364,100,l),
(344,50,l),
(354,50,l),
(342,0,l)
);
}
);
width = 586;
},
{
layerId = "960527DE-BC0D-48AB-B834-0D46F4119FDB";
shapes = (
{
closed = 1;
nodes = (
(-24,-206,l),
(6,-206,l),
(168,512,l),
(138,512,l)
);
},
{
closed = 1;
nodes = (
(284,-8,o),
(356,52,o),
(398,116,c),
(402,160,l),
(356,92,o),
(280,20,o),
(190,20,cs),
(58,20,o),
(90,162,o),
(110,252,cs),
(168,512,l),
(138,512,l),
(70,212,ls),
(42,88,o),
(62,-8,o),
(186,-8,cs)
);
},
{
closed = 1;
nodes = (
(392,0,l),
(508,512,l),
(478,512,l),
(390,126,l),
(376,96,l),
(384,96,l),
(362,0,l)
);
}
);
width = 546;
}
);
leftKerningGroup = LAT_P_LC;
rightKerningGroup = LAT_A_LC;
unicode = 181;
}
{
glyphname = paragraph;
layers = (
{
layerId = "EF07516E-CE4D-469D-8301-1491E725ACEB";
shapes = (
{
closed = 1;
nodes = (
(416,-124,l),
(548,-124,l),
(740,720,l),
(608,720,l)
);
},
{
closed = 1;
nodes = (
(66,382,o),
(146,278,o),
(278,278,c),
(370,720,l),
(238,720,o),
(124,634,o),
(98,518,cs)
);
},
{
closed = 1;
nodes = (
(344,588,l),
(812,588,l),
(842,720,l),
(374,720,l)
);
},
{
closed = 1;
nodes = (
(182,-124,l),
(312,-124,l),
(504,720,l),
(374,720,l)
);
}
);
width = 754;
},
{
layerId = "C82BF5B4-EE1A-4CB4-A2C0-4E66566823BE";
shapes = (
{
closed = 1;
nodes = (
(336,-124,l),
(418,-124,l),
(610,720,l),
(528,720,l)
);
},
{
closed = 1;
nodes = (
(78,406,o),
(148,314,o),
(267,314,c),
(354,720,l),
(235,720,o),
(131,638,o),
(106,526,cs)
);
},
{
closed = 1;
nodes = (
(343,639,l),
(679,639,l),
(698,720,l),
(362,720,l)
);
},
{
closed = 1;
nodes = (
(165,-124,l),
(247,-124,l),
(439,720,l),
(357,720,l)
);
}
);
width = 622;
},
{
layerId = "960527DE-BC0D-48AB-B834-0D46F4119FDB";
shapes = (
{
closed = 1;
nodes = (
(256,-124,l),
(288,-124,l),
(480,720,l),
(448,720,l)
);
},
{
closed = 1;
nodes = (
(90,430,o),
(150,350,o),
(256,350,c),
(338,720,l),
(232,720,o),
(138,642,o),
(114,534,cs)
);
},
{
closed = 1;
nodes = (
(342,690,l),
(546,690,l),
(554,720,l),
(350,720,l)
);
},
{
closed = 1;
nodes = (
(148,-124,l),
(182,-124,l),
(374,720,l),
(340,720,l)
);
}
);
width = 490;
}
);
unicode = 182;
}
{
glyphname = onesuperior;
layers = (
{
layerId = "9C023954-B0F0-4AC3-996A-DC35BCD11D7C";
shapes = (
{
closed = 1;
nodes = (
(295,444,l),
(397,890,l),
(359,890,l),
(163,812,l),
(137,690,l),
(251,732,l),
(241,772,l),
(167,444,l)
);
}
);
width = 310;
},
{
layerId = "169D7F5A-B55B-498B-8A7E-44B3106F6DC0";
shapes = (
{
closed = 1;
nodes = (
(254,444,l),
(356,890,l),
(330,890,l),
(170,823,l),
(152,742,l),
(266,787,l),
(256,816,l),
(171,444,l)
);
}
);
width = 271;
},
{
layerId = "1CFA5324-D054-4A76-8DD1-A1279E18B2E8";
shapes = (
{
closed = 1;
nodes = (
(207,444,l),
(309,890,l),
(293,890,l),
(175,834,l),
(169,804,l),
(281,856,l),
(275,866,l),
(179,444,l)
);
}
);
width = 232;
}
);
unicode = 185;
}
{
glyphname = ordmasculine;
layers = (
{
layerId = "EF07516E-CE4D-469D-8301-1491E725ACEB";
shapes = (
{
closed = 1;
nodes = (
(342,392,o),
(428,456,o),
(448,544,cs),
(472,648,o),
(410,728,o),
(302,728,cs),
(206,728,o),
(118,664,o),
(98,576,cs),
(76,472,o),
(138,392,o),
(244,392,cs)
);
},
{
closed = 1;
nodes = (
(224,504,o),
(208,520,o),
(214,544,c),
(222,584,o),
(258,616,o),
(294,616,cs),
(322,616,o),
(338,600,o),
(332,576,c),
(324,536,o),
(288,504,o),
(252,504,cs)
);
}
);
width = 412;
},
{
layerId = "C82BF5B4-EE1A-4CB4-A2C0-4E66566823BE";
shapes = (
{
closed = 1;
nodes = (
(330,398,o),
(413,464,o),
(433,554,cs),
(456,653,o),
(400,728,o),
(301,728,cs),
(211,728,o),
(127,663,o),
(107,572,cs),
(85,474,o),
(141,398,o),
(238,398,cs)
);
},
{
closed = 1;
nodes = (
(194,468,o),
(167,504,o),
(179,554,cs),
(192,613,o),
(243,658,o),
(297,658,cs),
(345,658,o),
(372,623,o),
(361,572,cs),
(348,514,o),
(296,468,o),
(243,468,cs)
);
}
);
width = 402;
},
{
layerId = "960527DE-BC0D-48AB-B834-0D46F4119FDB";
shapes = (
{
closed = 1;
nodes = (
(318,404,o),
(398,472,o),
(418,564,cs),
(440,658,o),
(390,728,o),
(300,728,cs),
(216,728,o),
(136,662,o),
(116,568,cs),
(94,476,o),
(144,404,o),
(232,404,cs)
);
},
{
closed = 1;
nodes = (
(164,432,o),
(126,488,o),
(144,564,cs),
(162,642,o),
(228,700,o),
(300,700,cs),
(368,700,o),
(406,646,o),
(390,568,c),
(372,492,o),
(304,432,o),
(234,432,cs)
);
}
);
width = 392;
}
);
leftKerningGroup = PCT_QUOTE;
rightKerningGroup = PCT_QUOTE;
unicode = 186;
}
{
glyphname = guillemetright;
layers = (
{
layerId = "EF07516E-CE4D-469D-8301-1491E725ACEB";
shapes = (
{
alignment = -1;
ref = guilsinglright;
},
{
pos = (206,0);
ref = guilsinglright;
}
);
width = 542;
},
{
layerId = "C82BF5B4-EE1A-4CB4-A2C0-4E66566823BE";
shapes = (
{
closed = 1;
nodes = (
(55,51,l),
(263,250,l),
(268,285,l),
(150,483,l),
(95,444,l),
(188,273,l),
(16,95,l)
);
},
{
closed = 1;
nodes = (
(228,51,l),
(436,250,l),
(441,285,l),
(323,483,l),
(268,444,l),
(361,273,l),
(189,95,l)
);
}
);
width = 477;
},
{
layerId = "960527DE-BC0D-48AB-B834-0D46F4119FDB";
shapes = (
{
alignment = -1;
ref = guilsinglright;
},
{
pos = (140,0);
ref = guilsinglright;
}
);
width = 412;
}
);
leftKerningGroup = PCT_GUILRIGHT;
rightKerningGroup = PCT_GUILRIGHT;
unicode = 187;
}
{
glyphname = questiondown;
layers = (
{
layerId = "EF07516E-CE4D-469D-8301-1491E725ACEB";
shapes = (
{
closed = 1;
nodes = (
(284,-204,o),
(392,-104,o),
(424,20,c),
(276,20,l),
(264,-22,o),
(216,-60,o),
(170,-60,cs),
(130,-60,o),
(108,-46,o),
(116,-16,c),
(134,68,o),
(292,102,o),
(326,250,cs),
(336,292,l),
(192,292,l),
(186,266,ls),
(160,156,o),
(-2,130,o),
(-30,-4,c),
(-60,-122,o),
(14,-204,o),
(146,-204,cs)
);
},
{
closed = 1;
nodes = (
(220,536,o),
(174,492,o),
(172,436,cs),
(170,380,o),
(212,336,o),
(270,336,cs),
(324,336,o),
(370,380,o),
(372,436,cs),
(374,492,o),
(331,536,o),
(274,536,cs)
);
}
);
width = 510;
},
{
layerId = "C82BF5B4-EE1A-4CB4-A2C0-4E66566823BE";
shapes = (
{
closed = 1;
nodes = (
(249,-218,o),
(351,-138,o),
(375,-32,c),
(283,-32,l),
(271,-88,o),
(213,-130,o),
(151,-132,c),
(91,-132,o),
(57,-92,o),
(69,-38,c),
(93,60,o),
(250,50,o),
(283,198,cs),
(299,270,l),
(205,270,l),
(189,200,ls),
(166,100,o),
(7,94,o),
(-25,-44,cs),
(-47,-142,o),
(23,-218,o),
(137,-218,cs)
);
},
{
closed = 1;
nodes = (
(227,520,o),
(196,489,o),
(196,448,cs),
(196,407,o),
(227,376,o),
(268,376,cs),
(309,376,o),
(340,407,o),
(340,448,cs),
(340,489,o),
(309,520,o),
(268,520,cs)
);
}
);
width = 475;
},
{
layerId = "960527DE-BC0D-48AB-B834-0D46F4119FDB";
shapes = (
{
closed = 1;
nodes = (
(208,-200,o),
(298,-128,o),
(316,-46,c),
(288,-46,l),
(272,-112,o),
(196,-172,o),
(118,-170,c),
(36,-172,o),
(-8,-118,o),
(8,-44,cs),
(36,82,o),
(200,80,o),
(234,228,cs),
(246,282,l),
(216,282,l),
(204,230,ls),
(174,98,o),
(8,100,o),
(-20,-40,c),
(-44,-132,o),
(14,-200,o),
(112,-200,cs)
);
},
{
closed = 1;
nodes = (
(226,536,o),
(208,518,o),
(208,494,cs),
(208,470,o),
(226,452,o),
(250,452,cs),
(274,452,o),
(292,470,o),
(292,494,cs),
(292,518,o),
(274,536,o),
(250,536,cs)
);
}
);
width = 440;
}
);
leftKerningGroup = PCT_QUESTIONDOWN;
rightKerningGroup = PCT_QUESTIONDOWN;
unicode = 191;
}
{
glyphname = Agrave;
layers = (
{
anchors = (
{
name = _top;
position = "{478, 720}";
},
{
name = top;
position = "{500, 822}";
}
);
layerId = "9C023954-B0F0-4AC3-996A-DC35BCD11D7C";
shapes = (
{
closed = 1;
nodes = (
(488,754,l),
(572,824,l),
(424,976,l),
(324,870,l)
);
},
{
alignment = -1;
ref = A;
}
);
width = 744;
},
{
anchors = (
{
name = bottom;
position = "{296, 0}";
},
{
name = ogonek;
position = "{560, 0}";
},
{
name = top;
position = "{482, 822}";
},
{
name = _top;
position = "{460, 720}";
}
);
layerId = "169D7F5A-B55B-498B-8A7E-44B3106F6DC0";
shapes = (
{
closed = 1;
nodes = (
(470,757,l),
(525,804,l),
(397,947,l),
(335,883,l)
);
},
{
alignment = -1;
ref = A;
}
);
width = 706;
},
{
anchors = (
{
name = _top;
position = "{442, 720}";
},
{
name = top;
position = "{464, 822}";
}
);
layerId = "1CFA5324-D054-4A76-8DD1-A1279E18B2E8";
shapes = (
{
closed = 1;
nodes = (
(452,760,l),
(478,784,l),
(370,918,l),
(346,896,l)
);
},
{
alignment = -1;
ref = A;
}
);
width = 668;
}
);
leftKerningGroup = LAT_A_UC;
rightKerningGroup = LAT_A_UC;
unicode = 192;
}
{
glyphname = Aacute;
layers = (
{
anchors = (
{
name = _top;
position = "{478, 720}";
},
{
name = top;
position = "{500, 822}";
}
);
layerId = "E1414F7C-7342-42E0-9F1C-475EAD3EF451";
shapes = (
{
closed = 1;
nodes = (
(556,976,l),
(408,824,l),
(492,754,l),
(656,870,l)
);
},
{
alignment = -1;
ref = A;
}
);
width = 744;
},
{
anchors = (
{
name = bottom;
position = "{296, 0}";
},
{
name = ogonek;
position = "{560, 0}";
},
{
name = top;
position = "{482, 822}";
},
{
name = _top;
position = "{460, 720}";
}
);
layerId = "39EADFFA-F378-45E3-ACCF-69574A40D336";
shapes = (
{
closed = 1;
nodes = (
(551,947,l),
(423,804,l),
(478,757,l),
(613,883,l)
);
},
{
alignment = -1;
ref = A;
}
);
width = 706;
},
{
anchors = (
{
name = _top;
position = "{442, 720}";
},
{
name = top;
position = "{464, 822}";
}
);
layerId = "0FE7234A-0103-4F7B-BAB8-33CF7CB7E092";
shapes = (
{
closed = 1;
nodes = (
(546,918,l),
(438,784,l),
(464,760,l),
(570,896,l)
);
},
{
alignment = -1;
ref = A;
}
);
width = 668;
}
);
leftKerningGroup = LAT_A_UC;
rightKerningGroup = LAT_A_UC;
unicode = 193;
}
{
glyphname = Acircumflex;
layers = (
{
anchors = (
{
name = _top;
position = "{478, 720}";
},
{
name = top;
position = "{524, 924}";
}
);
layerId = "E1414F7C-7342-42E0-9F1C-475EAD3EF451";
shapes = (
{
closed = 1;
nodes = (
(508,846,l),
(512,846,l),
(616,756,l),
(702,834,l),
(544,958,l),
(512,958,l),
(306,834,l),
(370,756,l)
);
},
{
alignment = -1;
ref = A;
}
);
width = 744;
},
{
anchors = (
{
name = bottom;
position = "{296, 0}";
},
{
name = ogonek;
position = "{560, 0}";
},
{
name = top;
position = "{501, 898}";
},
{
name = _top;
position = "{460, 720}";
}
);
layerId = "39EADFFA-F378-45E3-ACCF-69574A40D336";
shapes = (
{
closed = 1;
nodes = (
(492,851,l),
(497,851,l),
(597,758,l),
(651,809,l),
(518,923,l),
(493,923,l),
(311,809,l),
(352,758,l)
);
},
{
alignment = -1;
ref = A;
}
);
width = 706;
},
{
anchors = (
{
name = _top;
position = "{442, 720}";
},
{
name = top;
position = "{478, 872}";
}
);
layerId = "0FE7234A-0103-4F7B-BAB8-33CF7CB7E092";
shapes = (
{
closed = 1;
nodes = (
(476,856,l),
(482,856,l),
(578,760,l),
(600,784,l),
(492,888,l),
(474,888,l),
(316,784,l),
(334,760,l)
);
},
{
alignment = -1;
ref = A;
}
);
width = 668;
}
);
leftKerningGroup = LAT_A_UC;
rightKerningGroup = LAT_A_UC;
unicode = 194;
}
{
glyphname = Atilde;
layers = (
{
anchors = (
{
name = _top;
position = "{478, 720}";
},
{
name = top;
position = "{524, 920}";
}
);
layerId = "EF07516E-CE4D-469D-8301-1491E725ACEB";
shapes = (
{
closed = 1;
nodes = (
(-56,0,l),
(148,0,l),
(252,176,l),
(282,246,l),
(436,514,l),
(440,514,l),
(478,246,l),
(476,176,l),
(500,0,l),
(680,0,l),
(552,720,l),
(400,720,l)
);
},
{
closed = 1;
nodes = (
(150,132,l),
(538,132,l),
(572,278,l),
(184,278,l)
);
},
{
closed = 1;
nodes = (
(644,768,o),
(698,842,o),
(718,930,c),
(620,930,l),
(612,898,o),
(588,868,o),
(560,868,cs),
(528,868,o),
(526,924,o),
(442,922,c),
(370,924,o),
(316,848,o),
(296,758,c),
(394,758,l),
(402,794,o),
(424,822,o),
(452,822,cs),
(486,822,o),
(488,768,o),
(568,766,c)
);
}
);
width = 744;
},
{
anchors = (
{
name = bottom;
position = "{296, 0}";
},
{
name = ogonek;
position = "{560, 0}";
},
{
name = top;
position = "{498, 888}";
},
{
name = _top;
position = "{460, 720}";
}
);
layerId = "C82BF5B4-EE1A-4CB4-A2C0-4E66566823BE";
shapes = (
{
closed = 1;
nodes = (
(-48,0,l),
(66,0,l),
(196,206,l),
(220,244,l),
(426,574,l),
(430,574,l),
(488,244,l),
(492,206,l),
(530,0,l),
(632,0,l),
(498,720,l),
(414,720,l)
);
},
{
closed = 1;
nodes = (
(136,180,l),
(530,180,l),
(550,272,l),
(156,272,l)
);
},
{
closed = 1;
nodes = (
(604,774,o),
(650,832,o),
(666,903,c),
(602,903,l),
(594,869,o),
(569,838,o),
(539,838,cs),
(503,838,o),
(501,899,o),
(427,898,c),
(370,899,o),
(323,843,o),
(306,770,c),
(370,770,l),
(379,807,o),
(403,834,o),
(430,833,c),
(470,834,o),
(474,774,o),
(543,773,c)
);
}
);
width = 706;
},
{
anchors = (
{
name = _top;
position = "{442, 720}";
},
{
name = top;
position = "{472, 856}";
}
);
layerId = "960527DE-BC0D-48AB-B834-0D46F4119FDB";
shapes = (
{
closed = 1;
nodes = (
(-26,0,l),
(10,0,l),
(160,242,l),
(168,254,l),
(430,676,l),
(434,676,l),
(504,252,l),
(508,240,l),
(546,0,l),
(578,0,l),
(452,720,l),
(424,720,l)
);
},
{
closed = 1;
nodes = (
(140,232,l),
(518,232,l),
(526,262,l),
(148,262,l)
);
},
{
closed = 1;
nodes = (
(564,780,o),
(602,822,o),
(614,876,c),
(584,876,l),
(576,840,o),
(550,808,o),
(518,808,cs),
(478,808,o),
(476,874,o),
(412,874,cs),
(370,874,o),
(330,838,o),
(316,782,c),
(346,782,l),
(356,820,o),
(382,846,o),
(408,844,c),
(454,846,o),
(460,780,o),
(518,780,cs)
);
}
);
width = 668;
}
);
leftKerningGroup = LAT_A_UC;
rightKerningGroup = LAT_A_UC;
unicode = 195;
}
{
glyphname = Adieresis;
layers = (
{
anchors = (
{
name = _top;
position = "{478, 720}";
},
{
name = top;
position = "{520, 904}";
}
);
layerId = "EF07516E-CE4D-469D-8301-1491E725ACEB";
shapes = (
{
closed = 1;
nodes = (
(-56,0,l),
(148,0,l),
(252,176,l),
(282,246,l),
(436,514,l),
(440,514,l),
(478,246,l),
(476,176,l),
(500,0,l),
(680,0,l),
(552,720,l),
(400,720,l)
);
},
{
closed = 1;
nodes = (
(150,132,l),
(538,132,l),
(572,278,l),
(184,278,l)
);
},
{
closed = 1;
nodes = (
(684,752,o),
(724,792,o),
(722,844,c),
(724,898,o),
(684,938,o),
(632,938,cs),
(578,938,o),
(538,898,o),
(538,844,cs),
(538,792,o),
(578,752,o),
(632,752,cs)
);
},
{
closed = 1;
nodes = (
(436,752,o),
(476,792,o),
(476,844,cs),
(476,898,o),
(436,938,o),
(384,938,cs),
(332,938,o),
(292,898,o),
(292,844,cs),
(292,792,o),
(332,752,o),
(384,752,cs)
);
}
);
width = 744;
},
{
anchors = (
{
name = bottom;
position = "{296, 0}";
},
{
name = ogonek;
position = "{560, 0}";
},
{
name = top;
position = "{492, 863}";
},
{
name = _top;
position = "{460, 720}";
}
);
layerId = "C82BF5B4-EE1A-4CB4-A2C0-4E66566823BE";
shapes = (
{
closed = 1;
nodes = (
(-48,0,l),
(66,0,l),
(196,206,l),
(220,244,l),
(426,574,l),
(430,574,l),
(488,244,l),
(492,206,l),
(530,0,l),
(632,0,l),
(498,720,l),
(414,720,l)
);
},
{
closed = 1;
nodes = (
(136,180,l),
(530,180,l),
(550,272,l),
(156,272,l)
);
},
{
closed = 1;
nodes = (
(635,767,o),
(663,796,o),
(662,833,c),
(663,872,o),
(635,901,o),
(597,901,cs),
(558,901,o),
(529,872,o),
(529,833,cs),
(529,796,o),
(558,767,o),
(597,767,cs)
);
},
{
closed = 1;
nodes = (
(414,767,o),
(443,796,o),
(443,833,cs),
(443,872,o),
(414,901,o),
(376,901,cs),
(339,901,o),
(310,872,o),
(310,833,cs),
(310,796,o),
(339,767,o),
(376,767,cs)
);
}
);
width = 706;
},
{
anchors = (
{
name = _top;
position = "{442, 720}";
},
{
name = top;
position = "{464, 822}";
}
);
layerId = "960527DE-BC0D-48AB-B834-0D46F4119FDB";
shapes = (
{
closed = 1;
nodes = (
(-26,0,l),
(10,0,l),
(160,242,l),
(168,254,l),
(430,676,l),
(434,676,l),
(504,252,l),
(508,240,l),
(546,0,l),
(578,0,l),
(452,720,l),
(424,720,l)
);
},
{
closed = 1;
nodes = (
(140,232,l),
(518,232,l),
(526,262,l),
(148,262,l)
);
},
{
closed = 1;
nodes = (
(586,782,o),
(602,800,o),
(602,822,cs),
(602,846,o),
(586,864,o),
(562,864,cs),
(538,864,o),
(520,846,o),
(520,822,cs),
(520,800,o),
(538,782,o),
(562,782,cs)
);
},
{
closed = 1;
nodes = (
(392,782,o),
(410,800,o),
(410,822,cs),
(410,846,o),
(392,864,o),
(368,864,cs),
(346,864,o),
(328,846,o),
(328,822,cs),
(328,800,o),
(346,782,o),
(368,782,cs)
);
}
);
width = 668;
}
);
leftKerningGroup = LAT_A_UC;
rightKerningGroup = LAT_A_UC;
unicode = 196;
}
{
glyphname = Aring;
layers = (
{
anchors = (
{
name = _top;
position = "{478, 720}";
},
{
name = top;
position = "{548, 1030}";
}
);
layerId = "EF07516E-CE4D-469D-8301-1491E725ACEB";
shapes = (
{
closed = 1;
nodes = (
(-56,0,l),
(148,0,l),
(252,176,l),
(282,246,l),
(436,514,l),
(440,514,l),
(478,246,l),
(476,176,l),
(500,0,l),
(680,0,l),
(552,720,l),
(400,720,l)
);
},
{
closed = 1;
nodes = (
(150,132,l),
(538,132,l),
(572,278,l),
(184,278,l)
);
},
{
closed = 1;
nodes = (
(572,752,o),
(640,804,o),
(656,874,cs),
(676,962,o),
(626,1030,o),
(540,1030,cs),
(462,1030,o),
(392,978,o),
(376,906,cs),
(356,820,o),
(408,752,o),
(494,752,cs)
);
},
{
closed = 1;
nodes = (
(474,844,o),
(460,856,o),
(464,874,c),
(476,910,o),
(504,938,o),
(536,938,cs),
(560,938,o),
(572,926,o),
(568,906,c),
(558,872,o),
(530,844,o),
(496,842,c)
);
}
);
width = 744;
},
{
anchors = (
{
name = bottom;
position = "{296, 0}";
},
{
name = ogonek;
position = "{560, 0}";
},
{
name = top;
position = "{518, 979}";
},
{
name = _top;
position = "{460, 720}";
}
);
layerId = "C82BF5B4-EE1A-4CB4-A2C0-4E66566823BE";
shapes = (
{
closed = 1;
nodes = (
(-48,0,l),
(66,0,l),
(196,206,l),
(220,244,l),
(426,574,l),
(430,574,l),
(488,244,l),
(492,206,l),
(530,0,l),
(632,0,l),
(498,720,l),
(414,720,l)
);
},
{
closed = 1;
nodes = (
(136,180,l),
(530,180,l),
(550,272,l),
(156,272,l)
);
},
{
closed = 1;
nodes = (
(538,752,o),
(596,797,o),
(609,858,c),
(626,929,o),
(585,984,o),
(514,984,cs),
(450,984,o),
(391,939,o),
(377,876,cs),
(361,807,o),
(403,752,o),
(473,752,cs)
);
},
{
closed = 1;
nodes = (
(446,813,o),
(429,832,o),
(434,858,c),
(445,895,o),
(477,924,o),
(511,923,c),
(542,924,o),
(558,905,o),
(551,876,cs),
(543,842,o),
(511,813,o),
(474,812,c)
);
}
);
width = 706;
},
{
anchors = (
{
name = _top;
position = "{442, 720}";
},
{
name = top;
position = "{488, 928}";
}
);
layerId = "960527DE-BC0D-48AB-B834-0D46F4119FDB";
shapes = (
{
closed = 1;
nodes = (
(-26,0,l),
(10,0,l),
(160,242,l),
(168,254,l),
(430,676,l),
(434,676,l),
(504,252,l),
(508,240,l),
(546,0,l),
(578,0,l),
(452,720,l),
(424,720,l)
);
},
{
closed = 1;
nodes = (
(140,232,l),
(518,232,l),
(526,262,l),
(148,262,l)
);
},
{
closed = 1;
nodes = (
(504,752,o),
(552,790,o),
(562,842,c),
(576,896,o),
(544,938,o),
(488,938,cs),
(438,938,o),
(390,900,o),
(378,846,cs),
(366,794,o),
(398,752,o),
(452,752,cs)
);
},
{
closed = 1;
nodes = (
(418,782,o),
(398,808,o),
(404,842,c),
(414,880,o),
(450,910,o),
(486,908,c),
(524,910,o),
(544,884,o),
(534,846,c),
(528,812,o),
(492,782,o),
(452,782,cs)
);
}
);
width = 668;
}
);
leftKerningGroup = LAT_A_UC;
rightKerningGroup = LAT_A_UC;
unicode = 197;
}
{
glyphname = AE;
layers = (
{
anchors = (
{
name = bottom;
position = "{500, 0}";
},
{
name = top;
position = "{664, 720}";
}
);
layerId = "9C023954-B0F0-4AC3-996A-DC35BCD11D7C";
shapes = (
{
closed = 1;
nodes = (
(-58,0,l),
(138,0,l),
(346,314,l),
(500,564,l),
(510,564,l),
(538,720,l),
(418,720,l)
);
},
{
closed = 1;
nodes = (
(182,138,l),
(566,138,l),
(586,274,l),
(212,274,l)
);
},
{
closed = 1;
nodes = (
(660,560,l),
(926,560,l),
(962,720,l),
(534,720,l),
(482,466,l),
(414,0,l),
(798,0,l),
(834,160,l),
(606,160,l)
);
},
{
closed = 1;
nodes = (
(820,286,l),
(856,438,l),
(632,438,l),
(608,286,l)
);
}
);
width = 911;
},
{
anchors = (
{
name = bottom;
position = "{488, 0}";
},
{
name = top;
position = "{661, 720}";
}
);
layerId = "169D7F5A-B55B-498B-8A7E-44B3106F6DC0";
shapes = (
{
closed = 1;
nodes = (
(-54,0,l),
(63,0,l),
(335,371,l),
(506,615,l),
(522,615,l),
(540,720,l),
(467,720,l)
);
},
{
closed = 1;
nodes = (
(170,185,l),
(515,185,l),
(527,268,l),
(189,268,l)
);
},
{
closed = 1;
nodes = (
(602,625,l),
(924,625,l),
(946,720,l),
(528,720,l),
(491,524,l),
(417,0,l),
(782,0,l),
(803,95,l),
(530,95,l)
);
},
{
closed = 1;
nodes = (
(809,320,l),
(831,411,l),
(564,411,l),
(550,320,l)
);
}
);
width = 902;
},
{
anchors = (
{
name = bottom;
position = "{476, 0}";
},
{
name = top;
position = "{658, 720}";
}
);
layerId = "1CFA5324-D054-4A76-8DD1-A1279E18B2E8";
shapes = (
{
closed = 1;
nodes = (
(-50,0,l),
(-12,0,l),
(324,428,l),
(512,666,l),
(534,666,l),
(542,720,l),
(516,720,l)
);
},
{
closed = 1;
nodes = (
(158,232,l),
(464,232,l),
(468,262,l),
(166,262,l)
);
},
{
closed = 1;
nodes = (
(544,690,l),
(922,690,l),
(930,720,l),
(522,720,l),
(500,582,l),
(420,0,l),
(766,0,l),
(772,30,l),
(454,30,l)
);
},
{
closed = 1;
nodes = (
(798,354,l),
(806,384,l),
(496,384,l),
(492,354,l)
);
}
);
width = 892;
}
);
leftKerningGroup = LAT_AE_UC;
rightKerningGroup = LAT_E_UC;
unicode = 198;
}
{
glyphname = Ccedilla;
layers = (
{
layerId = "E1414F7C-7342-42E0-9F1C-475EAD3EF451";
shapes = (
{
closed = 1;
nodes = (
(196,-256,l),
(336,-258,o),
(400,-220,o),
(416,-154,cs),
(432,-82,o),
(386,-44,o),
(332,-44,c),
(336,-80,l),
(384,0,l),
(308,0,l),
(256,-100,l),
(304,-104,o),
(324,-110,o),
(322,-120,cs),
(316,-150,o),
(278,-176,o),
(206,-174,c)
);
},
{
alignment = -1;
ref = C;
}
);
width = 662;
},
{
anchors = (
{
name = base;
position = "{354, 0}";
},
{
name = bottom;
position = "{341, 0}";
},
{
name = cedilla;
position = "{347, 0}";
},
{
name = top;
position = "{503, 720}";
},
{
name = _cedilla;
position = "{347, 0}";
}
);
layerId = "39EADFFA-F378-45E3-ACCF-69574A40D336";
shapes = (
{
closed = 1;
nodes = (
(212,-233,l),
(320,-234,o),
(383,-207,o),
(398,-143,cs),
(411,-86,o),
(373,-52,o),
(323,-51,c),
(327,-79,l),
(373,0,l),
(319,0,l),
(271,-91,l),
(318,-93,o),
(341,-105,o),
(337,-124,cs),
(330,-159,o),
(287,-179,o),
(219,-177,c)
);
},
{
alignment = -1;
ref = C;
}
);
width = 663;
},
{
layerId = "0FE7234A-0103-4F7B-BAB8-33CF7CB7E092";
shapes = (
{
closed = 1;
nodes = (
(228,-210,l),
(304,-210,o),
(366,-194,o),
(380,-132,cs),
(390,-90,o),
(360,-60,o),
(314,-58,c),
(318,-78,l),
(362,0,l),
(330,0,l),
(286,-82,l),
(332,-82,o),
(358,-100,o),
(352,-128,cs),
(344,-168,o),
(296,-182,o),
(232,-180,c)
);
},
{
alignment = -1;
ref = C;
}
);
width = 664;
}
);
leftKerningGroup = LAT_A_UC;
rightKerningGroup = LAT_C_UC;
unicode = 199;
}
{
glyphname = Egrave;
layers = (
{
anchors = (
{
name = _top;
position = "{404, 720}";
},
{
name = top;
position = "{426, 822}";
}
);
layerId = "E1414F7C-7342-42E0-9F1C-475EAD3EF451";
shapes = (
{
closed = 1;
nodes = (
(414,754,l),
(498,824,l),
(350,976,l),
(250,870,l)
);
},
{
alignment = -1;
ref = E;
}
);
width = 542;
},
{
anchors = (
{
name = bottom;
position = "{243, 0}";
},
{
name = cedilla;
position = "{239, 0}";
},
{
name = ogonek;
position = "{334, 0}";
},
{
name = top;
position = "{423, 822}";
},
{
name = topleft;
position = "{127, 720}";
},
{
name = _top;
position = "{401, 720}";
}
);
layerId = "39EADFFA-F378-45E3-ACCF-69574A40D336";
shapes = (
{
closed = 1;
nodes = (
(411,757,l),
(466,804,l),
(338,947,l),
(276,883,l)
);
},
{
alignment = -1;
ref = E;
}
);
width = 537;
},
{
anchors = (
{
name = _top;
position = "{398, 720}";
},
{
name = top;
position = "{420, 822}";
}
);
layerId = "0FE7234A-0103-4F7B-BAB8-33CF7CB7E092";
shapes = (
{
closed = 1;
nodes = (
(408,760,l),
(434,784,l),
(326,918,l),
(302,896,l)
);
},
{
alignment = -1;
ref = E;
}
);
width = 532;
}
);
leftKerningGroup = LAT_H_UC;
rightKerningGroup = LAT_E_UC;
unicode = 200;
}
{
glyphname = Eacute;
layers = (
{
anchors = (
{
name = _top;
position = "{404, 720}";
},
{
name = top;
position = "{426, 822}";
}
);
layerId = "E1414F7C-7342-42E0-9F1C-475EAD3EF451";
shapes = (
{
closed = 1;
nodes = (
(482,976,l),
(334,824,l),
(418,754,l),
(582,870,l)
);
},
{
alignment = -1;
ref = E;
}
);
width = 542;
},
{
anchors = (
{
name = bottom;
position = "{243, 0}";
},
{
name = cedilla;
position = "{239, 0}";
},
{
name = ogonek;
position = "{334, 0}";
},
{
name = top;
position = "{423, 822}";
},
{
name = topleft;
position = "{127, 720}";
},
{
name = _top;
position = "{401, 720}";
}
);
layerId = "39EADFFA-F378-45E3-ACCF-69574A40D336";
shapes = (
{
closed = 1;
nodes = (
(492,947,l),
(364,804,l),
(419,757,l),
(554,883,l)
);
},
{
alignment = -1;
ref = E;
}
);
width = 537;
},
{
anchors = (
{
name = _top;
position = "{398, 720}";
},
{
name = top;
position = "{420, 822}";
}
);
layerId = "0FE7234A-0103-4F7B-BAB8-33CF7CB7E092";
shapes = (
{
closed = 1;
nodes = (
(502,918,l),
(394,784,l),
(420,760,l),
(526,896,l)
);
},
{
alignment = -1;
ref = E;
}
);
width = 532;
}
);
leftKerningGroup = LAT_H_UC;
rightKerningGroup = LAT_E_UC;
unicode = 201;
}
{
glyphname = Ecircumflex;
layers = (
{
anchors = (
{
name = _top;
position = "{404, 720}";
},
{
name = top;
position = "{450, 924}";
}
);
layerId = "E1414F7C-7342-42E0-9F1C-475EAD3EF451";
shapes = (
{
closed = 1;
nodes = (
(434,846,l),
(438,846,l),
(542,756,l),
(628,834,l),
(470,958,l),
(438,958,l),
(232,834,l),
(296,756,l)
);
},
{
alignment = -1;
ref = E;
}
);
width = 542;
},
{
anchors = (
{
name = bottom;
position = "{243, 0}";
},
{
name = cedilla;
position = "{239, 0}";
},
{
name = ogonek;
position = "{334, 0}";
},
{
name = top;
position = "{442, 898}";
},
{
name = topleft;
position = "{127, 720}";
},
{
name = _top;
position = "{401, 720}";
}
);
layerId = "39EADFFA-F378-45E3-ACCF-69574A40D336";
shapes = (
{
closed = 1;
nodes = (
(433,851,l),
(438,851,l),
(538,758,l),
(592,809,l),
(459,923,l),
(434,923,l),
(252,809,l),
(293,758,l)
);
},
{
alignment = -1;
ref = E;
}
);
width = 537;
},
{
anchors = (
{
name = _top;
position = "{398, 720}";
},
{
name = top;
position = "{434, 872}";
}
);
layerId = "0FE7234A-0103-4F7B-BAB8-33CF7CB7E092";
shapes = (
{
closed = 1;
nodes = (
(432,856,l),
(438,856,l),
(534,760,l),
(556,784,l),
(448,888,l),
(430,888,l),
(272,784,l),
(290,760,l)
);
},
{
alignment = -1;
ref = E;
}
);
width = 532;
}
);
leftKerningGroup = LAT_H_UC;
rightKerningGroup = LAT_E_UC;
unicode = 202;
}
